<?xml version="1.0" encoding="UTF-8" standalone="no"?>
<!-- Created with Inkscape (http://www.inkscape.org/) -->

<svg
   width="198.73283mm"
   height="190.10435mm"
   viewBox="0 0 198.73283 190.10435"
   version="1.1"
   id="svg1"
   xmlns="http://www.w3.org/2000/svg"
   xmlns:svg="http://www.w3.org/2000/svg">
  <defs
     id="defs1" />
  <g
     id="layer1"
     transform="translate(-1.4286417,-0.82087976)">
    <path
       style="fill:#743434;fill-opacity:1;stroke:#f0f353;stroke-width:0.2"
       id="path1"
       d="M 46.477616,1.8980546 A 36.569389,36.569389 0 0 1 73.823458,45.335476 36.569389,36.569389 0 0 1 30.800233,73.328455 36.569389,36.569389 0 0 1 2.1663908,30.729068 36.569389,36.569389 0 0 1 44.332394,1.4607778" />
    <path
       style="fill:#743434;fill-opacity:1;stroke:#f0f353;stroke-width:0.2"
       id="path1-2"
       d="m 171.85816,67.846461 a 36.569389,36.569389 0 0 1 27.34584,43.437419 36.569389,36.569389 0 0 1 -43.02322,27.99298 36.569389,36.569389 0 0 1 -28.63384,-42.599386 36.569389,36.569389 0 0 1 42.166,-29.26829" />
    <path
       style="fill:#753535;fill-opacity:1;stroke:#f0f353;stroke-width:0.2"
       id="path1-8"
       d="M 123.80129,3.8981576 A 36.569389,36.569389 0 0 1 151.14713,47.335579 36.569389,36.569389 0 0 1 108.12391,75.328558 36.569389,36.569389 0 0 1 79.490068,32.729171 36.569389,36.569389 0 0 1 121.65607,3.4608808" />
    <path
       style="fill:#743434;fill-opacity:1;stroke:#f0f353;stroke-width:0.2"
       id="path1-8-1"
       d="M 47.04908,79.22066 A 36.569389,36.569389 0 0 1 74.394922,122.65808 36.569389,36.569389 0 0 1 31.371698,150.65106 36.569389,36.569389 0 0 1 2.7378553,108.05167 36.569389,36.569389 0 0 1 44.903859,78.783383" />
    <path
       style="fill:#743434;fill-opacity:1;stroke:#f0f353;stroke-width:0.2"
       id="path1-8-1-2"
       d="m 113.2293,118.65122 a 36.569389,36.569389 0 0 1 27.34584,43.43742 36.569389,36.569389 0 0 1 -43.023221,27.99298 36.569389,36.569389 0 0 1 -28.633842,-42.59939 36.569389,36.569389 0 0 1 42.166003,-29.26829" />
  </g>
</svg>
