<?xml version="1.0" encoding="UTF-8"?>
<!DOCTYPE svg PUBLIC "-//W3C//DTD SVG 1.1//EN" "http://www.w3.org/Graphics/SVG/1.1/DTD/svg11.dtd">
<svg width="160mm" height="90mm" viewBox="0 0 16000 9000" version="1.1" xmlns="http://www.w3.org/2000/svg" xmlns:xlink="http://www.w3.org/1999/xlink" stroke-width="28.222" stroke-linejoin="round" xml:space="preserve">
 <path fill="rgb(255,255,255)" stroke="none" d="M 7988,8988 L -9,8988 -9,-9 15984,-9 15984,8988 7988,8988 Z "/>
 <path fill="none" stroke="rgb(179,179,179)" stroke-linejoin="round" d="M 8757,6712 L 2045,6712 2045,2261 15470,2261 15470,6712 8757,6712 Z "/>
 <path fill="none" stroke="rgb(179,179,179)" stroke-linejoin="round" d="M 15470,6711 L 2045,6711 "/>
 <path fill="none" stroke="rgb(179,179,179)" stroke-linejoin="round" d="M 15470,5969 L 2045,5969 "/>
 <path fill="none" stroke="rgb(179,179,179)" stroke-linejoin="round" d="M 15470,5227 L 2045,5227 "/>
 <path fill="none" stroke="rgb(179,179,179)" stroke-linejoin="round" d="M 15470,4486 L 2045,4486 "/>
 <path fill="none" stroke="rgb(179,179,179)" stroke-linejoin="round" d="M 15470,3744 L 2045,3744 "/>
 <path fill="none" stroke="rgb(179,179,179)" stroke-linejoin="round" d="M 15470,3002 L 2045,3002 "/>
 <path fill="none" stroke="rgb(179,179,179)" stroke-linejoin="round" d="M 15470,2259 L 2045,2259 "/>
 <path fill="none" stroke="rgb(179,179,179)" stroke-linejoin="round" d="M 2045,6861 L 2045,6711 "/>
 <path fill="none" stroke="rgb(179,179,179)" stroke-linejoin="round" d="M 2507,6861 L 2507,6711 "/>
 <path fill="none" stroke="rgb(179,179,179)" stroke-linejoin="round" d="M 2970,6861 L 2970,6711 "/>
 <path fill="none" stroke="rgb(179,179,179)" stroke-linejoin="round" d="M 3433,6861 L 3433,6711 "/>
 <path fill="none" stroke="rgb(179,179,179)" stroke-linejoin="round" d="M 3896,6861 L 3896,6711 "/>
 <path fill="none" stroke="rgb(179,179,179)" stroke-linejoin="round" d="M 4359,6861 L 4359,6711 "/>
 <path fill="none" stroke="rgb(179,179,179)" stroke-linejoin="round" d="M 4822,6861 L 4822,6711 "/>
 <path fill="none" stroke="rgb(179,179,179)" stroke-linejoin="round" d="M 5285,6861 L 5285,6711 "/>
 <path fill="none" stroke="rgb(179,179,179)" stroke-linejoin="round" d="M 5748,6861 L 5748,6711 "/>
 <path fill="none" stroke="rgb(179,179,179)" stroke-linejoin="round" d="M 6211,6861 L 6211,6711 "/>
 <path fill="none" stroke="rgb(179,179,179)" stroke-linejoin="round" d="M 6674,6861 L 6674,6711 "/>
 <path fill="none" stroke="rgb(179,179,179)" stroke-linejoin="round" d="M 7137,6861 L 7137,6711 "/>
 <path fill="none" stroke="rgb(179,179,179)" stroke-linejoin="round" d="M 7600,6861 L 7600,6711 "/>
 <path fill="none" stroke="rgb(179,179,179)" stroke-linejoin="round" d="M 8062,6861 L 8062,6711 "/>
 <path fill="none" stroke="rgb(179,179,179)" stroke-linejoin="round" d="M 8525,6861 L 8525,6711 "/>
 <path fill="none" stroke="rgb(179,179,179)" stroke-linejoin="round" d="M 8988,6861 L 8988,6711 "/>
 <path fill="none" stroke="rgb(179,179,179)" stroke-linejoin="round" d="M 9451,6861 L 9451,6711 "/>
 <path fill="none" stroke="rgb(179,179,179)" stroke-linejoin="round" d="M 9914,6861 L 9914,6711 "/>
 <path fill="none" stroke="rgb(179,179,179)" stroke-linejoin="round" d="M 10377,6861 L 10377,6711 "/>
 <path fill="none" stroke="rgb(179,179,179)" stroke-linejoin="round" d="M 10840,6861 L 10840,6711 "/>
 <path fill="none" stroke="rgb(179,179,179)" stroke-linejoin="round" d="M 11303,6861 L 11303,6711 "/>
 <path fill="none" stroke="rgb(179,179,179)" stroke-linejoin="round" d="M 11766,6861 L 11766,6711 "/>
 <path fill="none" stroke="rgb(179,179,179)" stroke-linejoin="round" d="M 12229,6861 L 12229,6711 "/>
 <path fill="none" stroke="rgb(179,179,179)" stroke-linejoin="round" d="M 12692,6861 L 12692,6711 "/>
 <path fill="none" stroke="rgb(179,179,179)" stroke-linejoin="round" d="M 13155,6861 L 13155,6711 "/>
 <path fill="none" stroke="rgb(179,179,179)" stroke-linejoin="round" d="M 13618,6861 L 13618,6711 "/>
 <path fill="none" stroke="rgb(179,179,179)" stroke-linejoin="round" d="M 14081,6861 L 14081,6711 "/>
 <path fill="none" stroke="rgb(179,179,179)" stroke-linejoin="round" d="M 14544,6861 L 14544,6711 "/>
 <path fill="none" stroke="rgb(179,179,179)" stroke-linejoin="round" d="M 15007,6861 L 15007,6711 "/>
 <path fill="none" stroke="rgb(179,179,179)" stroke-linejoin="round" d="M 15470,6861 L 15470,6711 "/>
 <path fill="none" stroke="rgb(179,179,179)" stroke-linejoin="round" d="M 2045,6711 L 15470,6711 "/>
 <path fill="none" stroke="rgb(179,179,179)" stroke-linejoin="round" d="M 1895,6711 L 2045,6711 "/>
 <path fill="none" stroke="rgb(179,179,179)" stroke-linejoin="round" d="M 1895,5969 L 2045,5969 "/>
 <path fill="none" stroke="rgb(179,179,179)" stroke-linejoin="round" d="M 1895,5227 L 2045,5227 "/>
 <path fill="none" stroke="rgb(179,179,179)" stroke-linejoin="round" d="M 1895,4486 L 2045,4486 "/>
 <path fill="none" stroke="rgb(179,179,179)" stroke-linejoin="round" d="M 1895,3743 L 2045,3743 "/>
 <path fill="none" stroke="rgb(179,179,179)" stroke-linejoin="round" d="M 1895,3002 L 2045,3002 "/>
 <path fill="none" stroke="rgb(179,179,179)" stroke-linejoin="round" d="M 1895,2259 L 2045,2259 "/>
 <path fill="none" stroke="rgb(179,179,179)" stroke-linejoin="round" d="M 2045,6711 L 2045,2260 "/>
 <path fill="none" stroke="rgb(0,69,134)" stroke-linejoin="round" d="M 2045,2680 L 2507,3021 2970,3189 3433,3345 3896,3394 4359,3755 4822,3539 5285,3570 5748,3465 6211,4854 6674,4328 7137,4248 7600,4053 8062,4099 8525,4291 8988,4509 9451,4507 9914,4506 10377,4338 10840,4427 11303,4308 11766,3831 12229,4271 12692,4920 13155,5087 13618,5479 14081,5898 14544,6006 15007,6501 15470,5929 "/>
 <path fill="none" stroke="rgb(42,96,153)" stroke-linejoin="round" d="M 2507,3105 L 2507,3021 2507,2938 "/>
 <path fill="none" stroke="rgb(42,96,153)" stroke-linejoin="round" d="M 2607,3105 L 2407,3105 "/>
 <path fill="none" stroke="rgb(42,96,153)" stroke-linejoin="round" d="M 2407,2938 L 2607,2938 "/>
 <path fill="none" stroke="rgb(42,96,153)" stroke-linejoin="round" d="M 2970,3190 L 2970,3189 2970,3187 "/>
 <path fill="none" stroke="rgb(42,96,153)" stroke-linejoin="round" d="M 3070,3190 L 2870,3190 "/>
 <path fill="none" stroke="rgb(42,96,153)" stroke-linejoin="round" d="M 2870,3187 L 3070,3187 "/>
 <path fill="none" stroke="rgb(42,96,153)" stroke-linejoin="round" d="M 3433,3347 L 3433,3345 3433,3343 "/>
 <path fill="none" stroke="rgb(42,96,153)" stroke-linejoin="round" d="M 3533,3347 L 3333,3347 "/>
 <path fill="none" stroke="rgb(42,96,153)" stroke-linejoin="round" d="M 3333,3343 L 3533,3343 "/>
 <path fill="none" stroke="rgb(42,96,153)" stroke-linejoin="round" d="M 3896,3396 L 3896,3394 3896,3392 "/>
 <path fill="none" stroke="rgb(42,96,153)" stroke-linejoin="round" d="M 3996,3396 L 3796,3396 "/>
 <path fill="none" stroke="rgb(42,96,153)" stroke-linejoin="round" d="M 3796,3392 L 3996,3392 "/>
 <path fill="none" stroke="rgb(42,96,153)" stroke-linejoin="round" d="M 4359,3758 L 4359,3755 4359,3753 "/>
 <path fill="none" stroke="rgb(42,96,153)" stroke-linejoin="round" d="M 4459,3758 L 4259,3758 "/>
 <path fill="none" stroke="rgb(42,96,153)" stroke-linejoin="round" d="M 4259,3753 L 4459,3753 "/>
 <path fill="none" stroke="rgb(42,96,153)" stroke-linejoin="round" d="M 4822,3585 L 4822,3539 4822,3493 "/>
 <path fill="none" stroke="rgb(42,96,153)" stroke-linejoin="round" d="M 4922,3585 L 4722,3585 "/>
 <path fill="none" stroke="rgb(42,96,153)" stroke-linejoin="round" d="M 4722,3493 L 4922,3493 "/>
 <path fill="none" stroke="rgb(42,96,153)" stroke-linejoin="round" d="M 5285,3574 L 5285,3570 5285,3567 "/>
 <path fill="none" stroke="rgb(42,96,153)" stroke-linejoin="round" d="M 5385,3574 L 5185,3574 "/>
 <path fill="none" stroke="rgb(42,96,153)" stroke-linejoin="round" d="M 5185,3567 L 5385,3567 "/>
 <path fill="none" stroke="rgb(42,96,153)" stroke-linejoin="round" d="M 5748,3469 L 5748,3465 5748,3461 "/>
 <path fill="none" stroke="rgb(42,96,153)" stroke-linejoin="round" d="M 5848,3469 L 5648,3469 "/>
 <path fill="none" stroke="rgb(42,96,153)" stroke-linejoin="round" d="M 5648,3461 L 5848,3461 "/>
 <path fill="none" stroke="rgb(42,96,153)" stroke-linejoin="round" d="M 6211,4857 L 6211,4854 6211,4850 "/>
 <path fill="none" stroke="rgb(42,96,153)" stroke-linejoin="round" d="M 6311,4857 L 6111,4857 "/>
 <path fill="none" stroke="rgb(42,96,153)" stroke-linejoin="round" d="M 6111,4850 L 6311,4850 "/>
 <path fill="none" stroke="rgb(42,96,153)" stroke-linejoin="round" d="M 6674,4336 L 6674,4328 6674,4319 "/>
 <path fill="none" stroke="rgb(42,96,153)" stroke-linejoin="round" d="M 6774,4336 L 6574,4336 "/>
 <path fill="none" stroke="rgb(42,96,153)" stroke-linejoin="round" d="M 6574,4319 L 6774,4319 "/>
 <path fill="none" stroke="rgb(42,96,153)" stroke-linejoin="round" d="M 7137,4266 L 7137,4248 7137,4231 "/>
 <path fill="none" stroke="rgb(42,96,153)" stroke-linejoin="round" d="M 7237,4266 L 7037,4266 "/>
 <path fill="none" stroke="rgb(42,96,153)" stroke-linejoin="round" d="M 7037,4231 L 7237,4231 "/>
 <path fill="none" stroke="rgb(42,96,153)" stroke-linejoin="round" d="M 7600,4057 L 7600,4053 7600,4049 "/>
 <path fill="none" stroke="rgb(42,96,153)" stroke-linejoin="round" d="M 7700,4057 L 7500,4057 "/>
 <path fill="none" stroke="rgb(42,96,153)" stroke-linejoin="round" d="M 7500,4049 L 7700,4049 "/>
 <path fill="none" stroke="rgb(42,96,153)" stroke-linejoin="round" d="M 8062,4112 L 8062,4099 8062,4087 "/>
 <path fill="none" stroke="rgb(42,96,153)" stroke-linejoin="round" d="M 8162,4112 L 7963,4112 "/>
 <path fill="none" stroke="rgb(42,96,153)" stroke-linejoin="round" d="M 7963,4087 L 8162,4087 "/>
 <path fill="none" stroke="rgb(42,96,153)" stroke-linejoin="round" d="M 8525,4310 L 8525,4291 8525,4272 "/>
 <path fill="none" stroke="rgb(42,96,153)" stroke-linejoin="round" d="M 8625,4310 L 8425,4310 "/>
 <path fill="none" stroke="rgb(42,96,153)" stroke-linejoin="round" d="M 8425,4272 L 8625,4272 "/>
 <path fill="none" stroke="rgb(42,96,153)" stroke-linejoin="round" d="M 8988,4536 L 8988,4509 8988,4483 "/>
 <path fill="none" stroke="rgb(42,96,153)" stroke-linejoin="round" d="M 9088,4536 L 8888,4536 "/>
 <path fill="none" stroke="rgb(42,96,153)" stroke-linejoin="round" d="M 8888,4483 L 9088,4483 "/>
 <path fill="none" stroke="rgb(42,96,153)" stroke-linejoin="round" d="M 9451,4541 L 9451,4507 9451,4474 "/>
 <path fill="none" stroke="rgb(42,96,153)" stroke-linejoin="round" d="M 9551,4541 L 9351,4541 "/>
 <path fill="none" stroke="rgb(42,96,153)" stroke-linejoin="round" d="M 9351,4474 L 9551,4474 "/>
 <path fill="none" stroke="rgb(42,96,153)" stroke-linejoin="round" d="M 9914,4536 L 9914,4506 9914,4478 "/>
 <path fill="none" stroke="rgb(42,96,153)" stroke-linejoin="round" d="M 10014,4536 L 9814,4536 "/>
 <path fill="none" stroke="rgb(42,96,153)" stroke-linejoin="round" d="M 9814,4478 L 10014,4478 "/>
 <path fill="none" stroke="rgb(42,96,153)" stroke-linejoin="round" d="M 10377,4369 L 10377,4338 10377,4307 "/>
 <path fill="none" stroke="rgb(42,96,153)" stroke-linejoin="round" d="M 10477,4369 L 10277,4369 "/>
 <path fill="none" stroke="rgb(42,96,153)" stroke-linejoin="round" d="M 10277,4307 L 10477,4307 "/>
 <path fill="none" stroke="rgb(42,96,153)" stroke-linejoin="round" d="M 10840,4449 L 10840,4427 10840,4404 "/>
 <path fill="none" stroke="rgb(42,96,153)" stroke-linejoin="round" d="M 10940,4449 L 10740,4449 "/>
 <path fill="none" stroke="rgb(42,96,153)" stroke-linejoin="round" d="M 10740,4404 L 10940,4404 "/>
 <path fill="none" stroke="rgb(42,96,153)" stroke-linejoin="round" d="M 11303,4332 L 11303,4308 11303,4285 "/>
 <path fill="none" stroke="rgb(42,96,153)" stroke-linejoin="round" d="M 11403,4332 L 11203,4332 "/>
 <path fill="none" stroke="rgb(42,96,153)" stroke-linejoin="round" d="M 11203,4285 L 11403,4285 "/>
 <path fill="none" stroke="rgb(42,96,153)" stroke-linejoin="round" d="M 11766,3852 L 11766,3831 11766,3810 "/>
 <path fill="none" stroke="rgb(42,96,153)" stroke-linejoin="round" d="M 11866,3852 L 11666,3852 "/>
 <path fill="none" stroke="rgb(42,96,153)" stroke-linejoin="round" d="M 11666,3810 L 11866,3810 "/>
 <path fill="none" stroke="rgb(42,96,153)" stroke-linejoin="round" d="M 12229,4284 L 12229,4271 12229,4258 "/>
 <path fill="none" stroke="rgb(42,96,153)" stroke-linejoin="round" d="M 12329,4284 L 12129,4284 "/>
 <path fill="none" stroke="rgb(42,96,153)" stroke-linejoin="round" d="M 12129,4258 L 12329,4258 "/>
 <path fill="none" stroke="rgb(42,96,153)" stroke-linejoin="round" d="M 12692,4934 L 12692,4920 12692,4905 "/>
 <path fill="none" stroke="rgb(42,96,153)" stroke-linejoin="round" d="M 12792,4934 L 12592,4934 "/>
 <path fill="none" stroke="rgb(42,96,153)" stroke-linejoin="round" d="M 12592,4905 L 12792,4905 "/>
 <path fill="none" stroke="rgb(42,96,153)" stroke-linejoin="round" d="M 13155,5114 L 13155,5087 13155,5060 "/>
 <path fill="none" stroke="rgb(42,96,153)" stroke-linejoin="round" d="M 13255,5114 L 13055,5114 "/>
 <path fill="none" stroke="rgb(42,96,153)" stroke-linejoin="round" d="M 13055,5060 L 13255,5060 "/>
 <path fill="none" stroke="rgb(42,96,153)" stroke-linejoin="round" d="M 13618,5506 L 13618,5479 13618,5452 "/>
 <path fill="none" stroke="rgb(42,96,153)" stroke-linejoin="round" d="M 13718,5506 L 13518,5506 "/>
 <path fill="none" stroke="rgb(42,96,153)" stroke-linejoin="round" d="M 13518,5452 L 13718,5452 "/>
 <path fill="none" stroke="rgb(42,96,153)" stroke-linejoin="round" d="M 14081,5961 L 14081,5898 14081,5834 "/>
 <path fill="none" stroke="rgb(42,96,153)" stroke-linejoin="round" d="M 14181,5961 L 13981,5961 "/>
 <path fill="none" stroke="rgb(42,96,153)" stroke-linejoin="round" d="M 13981,5834 L 14181,5834 "/>
 <path fill="none" stroke="rgb(42,96,153)" stroke-linejoin="round" d="M 14544,6079 L 14544,6006 14544,5933 "/>
 <path fill="none" stroke="rgb(42,96,153)" stroke-linejoin="round" d="M 14644,6079 L 14444,6079 "/>
 <path fill="none" stroke="rgb(42,96,153)" stroke-linejoin="round" d="M 14444,5933 L 14644,5933 "/>
 <path fill="none" stroke="rgb(42,96,153)" stroke-linejoin="round" d="M 15007,6581 L 15007,6501 15007,6422 "/>
 <path fill="none" stroke="rgb(42,96,153)" stroke-linejoin="round" d="M 15107,6581 L 14907,6581 "/>
 <path fill="none" stroke="rgb(42,96,153)" stroke-linejoin="round" d="M 14907,6422 L 15107,6422 "/>
 <path fill="none" stroke="rgb(42,96,153)" stroke-linejoin="round" d="M 15470,6036 L 15470,5929 15470,5822 "/>
 <path fill="none" stroke="rgb(42,96,153)" stroke-linejoin="round" d="M 15570,6036 L 15370,6036 "/>
 <path fill="none" stroke="rgb(42,96,153)" stroke-linejoin="round" d="M 15370,5822 L 15570,5822 "/>
 <path fill="none" stroke="rgb(255,66,14)" stroke-linejoin="round" d="M 2045,2894 L 2507,3379 2970,4793 3433,5533 3896,5748 4359,6212 4822,5905 5285,5825 5748,5695 6211,6455 6674,6355 7137,6303 7600,6169 8062,6162 8525,6209 8988,6297 9451,6313 9914,6319 10377,6297 10840,6306 11303,6283 11766,5929 12229,6070 12692,6294 13155,6305 13618,6305 14081,6361 14544,6379 15007,6438 15470,6238 "/>
 <path fill="none" stroke="rgb(255,64,0)" stroke-linejoin="round" d="M 2970,4834 L 2970,4793 2970,4753 "/>
 <path fill="none" stroke="rgb(255,64,0)" stroke-linejoin="round" d="M 3070,4834 L 2870,4834 "/>
 <path fill="none" stroke="rgb(255,64,0)" stroke-linejoin="round" d="M 2870,4753 L 3070,4753 "/>
 <path fill="none" stroke="rgb(255,64,0)" stroke-linejoin="round" d="M 3433,5622 L 3433,5533 3433,5444 "/>
 <path fill="none" stroke="rgb(255,64,0)" stroke-linejoin="round" d="M 3533,5622 L 3333,5622 "/>
 <path fill="none" stroke="rgb(255,64,0)" stroke-linejoin="round" d="M 3333,5444 L 3533,5444 "/>
 <path fill="none" stroke="rgb(255,64,0)" stroke-linejoin="round" d="M 3896,5846 L 3896,5748 3896,5651 "/>
 <path fill="none" stroke="rgb(255,64,0)" stroke-linejoin="round" d="M 3996,5846 L 3796,5846 "/>
 <path fill="none" stroke="rgb(255,64,0)" stroke-linejoin="round" d="M 3796,5651 L 3996,5651 "/>
 <path fill="none" stroke="rgb(255,64,0)" stroke-linejoin="round" d="M 4359,6328 L 4359,6212 4359,6096 "/>
 <path fill="none" stroke="rgb(255,64,0)" stroke-linejoin="round" d="M 4459,6328 L 4259,6328 "/>
 <path fill="none" stroke="rgb(255,64,0)" stroke-linejoin="round" d="M 4259,6096 L 4459,6096 "/>
 <path fill="none" stroke="rgb(255,64,0)" stroke-linejoin="round" d="M 4822,6049 L 4822,5905 4822,5760 "/>
 <path fill="none" stroke="rgb(255,64,0)" stroke-linejoin="round" d="M 4922,6049 L 4722,6049 "/>
 <path fill="none" stroke="rgb(255,64,0)" stroke-linejoin="round" d="M 4722,5760 L 4922,5760 "/>
 <path fill="none" stroke="rgb(255,64,0)" stroke-linejoin="round" d="M 5285,5898 L 5285,5825 5285,5752 "/>
 <path fill="none" stroke="rgb(255,64,0)" stroke-linejoin="round" d="M 5385,5898 L 5185,5898 "/>
 <path fill="none" stroke="rgb(255,64,0)" stroke-linejoin="round" d="M 5185,5752 L 5385,5752 "/>
 <path fill="none" stroke="rgb(255,64,0)" stroke-linejoin="round" d="M 5748,5749 L 5748,5695 5748,5641 "/>
 <path fill="none" stroke="rgb(255,64,0)" stroke-linejoin="round" d="M 5848,5749 L 5648,5749 "/>
 <path fill="none" stroke="rgb(255,64,0)" stroke-linejoin="round" d="M 5648,5641 L 5848,5641 "/>
 <path fill="none" stroke="rgb(255,64,0)" stroke-linejoin="round" d="M 6211,6507 L 6211,6455 6211,6402 "/>
 <path fill="none" stroke="rgb(255,64,0)" stroke-linejoin="round" d="M 6311,6507 L 6111,6507 "/>
 <path fill="none" stroke="rgb(255,64,0)" stroke-linejoin="round" d="M 6111,6402 L 6311,6402 "/>
 <path fill="none" stroke="rgb(255,64,0)" stroke-linejoin="round" d="M 6674,6422 L 6674,6355 6674,6288 "/>
 <path fill="none" stroke="rgb(255,64,0)" stroke-linejoin="round" d="M 6774,6422 L 6574,6422 "/>
 <path fill="none" stroke="rgb(255,64,0)" stroke-linejoin="round" d="M 6574,6288 L 6774,6288 "/>
 <path fill="none" stroke="rgb(255,64,0)" stroke-linejoin="round" d="M 7137,6370 L 7137,6303 7137,6237 "/>
 <path fill="none" stroke="rgb(255,64,0)" stroke-linejoin="round" d="M 7237,6370 L 7037,6370 "/>
 <path fill="none" stroke="rgb(255,64,0)" stroke-linejoin="round" d="M 7037,6237 L 7237,6237 "/>
 <path fill="none" stroke="rgb(255,64,0)" stroke-linejoin="round" d="M 7600,6237 L 7600,6169 7600,6101 "/>
 <path fill="none" stroke="rgb(255,64,0)" stroke-linejoin="round" d="M 7700,6237 L 7500,6237 "/>
 <path fill="none" stroke="rgb(255,64,0)" stroke-linejoin="round" d="M 7500,6101 L 7700,6101 "/>
 <path fill="none" stroke="rgb(255,64,0)" stroke-linejoin="round" d="M 8062,6237 L 8062,6162 8062,6087 "/>
 <path fill="none" stroke="rgb(255,64,0)" stroke-linejoin="round" d="M 8162,6237 L 7963,6237 "/>
 <path fill="none" stroke="rgb(255,64,0)" stroke-linejoin="round" d="M 7963,6087 L 8162,6087 "/>
 <path fill="none" stroke="rgb(255,64,0)" stroke-linejoin="round" d="M 8525,6261 L 8525,6209 8525,6158 "/>
 <path fill="none" stroke="rgb(255,64,0)" stroke-linejoin="round" d="M 8625,6261 L 8425,6261 "/>
 <path fill="none" stroke="rgb(255,64,0)" stroke-linejoin="round" d="M 8425,6158 L 8625,6158 "/>
 <path fill="none" stroke="rgb(255,64,0)" stroke-linejoin="round" d="M 8988,6349 L 8988,6297 8988,6244 "/>
 <path fill="none" stroke="rgb(255,64,0)" stroke-linejoin="round" d="M 9088,6349 L 8888,6349 "/>
 <path fill="none" stroke="rgb(255,64,0)" stroke-linejoin="round" d="M 8888,6244 L 9088,6244 "/>
 <path fill="none" stroke="rgb(255,64,0)" stroke-linejoin="round" d="M 9451,6371 L 9451,6313 9451,6255 "/>
 <path fill="none" stroke="rgb(255,64,0)" stroke-linejoin="round" d="M 9551,6371 L 9351,6371 "/>
 <path fill="none" stroke="rgb(255,64,0)" stroke-linejoin="round" d="M 9351,6255 L 9551,6255 "/>
 <path fill="none" stroke="rgb(255,64,0)" stroke-linejoin="round" d="M 9914,6380 L 9914,6319 9914,6258 "/>
 <path fill="none" stroke="rgb(255,64,0)" stroke-linejoin="round" d="M 10014,6380 L 9814,6380 "/>
 <path fill="none" stroke="rgb(255,64,0)" stroke-linejoin="round" d="M 9814,6258 L 10014,6258 "/>
 <path fill="none" stroke="rgb(255,64,0)" stroke-linejoin="round" d="M 10377,6360 L 10377,6297 10377,6235 "/>
 <path fill="none" stroke="rgb(255,64,0)" stroke-linejoin="round" d="M 10477,6360 L 10277,6360 "/>
 <path fill="none" stroke="rgb(255,64,0)" stroke-linejoin="round" d="M 10277,6235 L 10477,6235 "/>
 <path fill="none" stroke="rgb(255,64,0)" stroke-linejoin="round" d="M 10840,6370 L 10840,6306 10840,6241 "/>
 <path fill="none" stroke="rgb(255,64,0)" stroke-linejoin="round" d="M 10940,6370 L 10740,6370 "/>
 <path fill="none" stroke="rgb(255,64,0)" stroke-linejoin="round" d="M 10740,6241 L 10940,6241 "/>
 <path fill="none" stroke="rgb(255,64,0)" stroke-linejoin="round" d="M 11303,6351 L 11303,6283 11303,6214 "/>
 <path fill="none" stroke="rgb(255,64,0)" stroke-linejoin="round" d="M 11403,6351 L 11203,6351 "/>
 <path fill="none" stroke="rgb(255,64,0)" stroke-linejoin="round" d="M 11203,6214 L 11403,6214 "/>
 <path fill="none" stroke="rgb(255,64,0)" stroke-linejoin="round" d="M 11766,5974 L 11766,5929 11766,5884 "/>
 <path fill="none" stroke="rgb(255,64,0)" stroke-linejoin="round" d="M 11866,5974 L 11666,5974 "/>
 <path fill="none" stroke="rgb(255,64,0)" stroke-linejoin="round" d="M 11666,5884 L 11866,5884 "/>
 <path fill="none" stroke="rgb(255,64,0)" stroke-linejoin="round" d="M 12229,6121 L 12229,6070 12229,6020 "/>
 <path fill="none" stroke="rgb(255,64,0)" stroke-linejoin="round" d="M 12329,6121 L 12129,6121 "/>
 <path fill="none" stroke="rgb(255,64,0)" stroke-linejoin="round" d="M 12129,6020 L 12329,6020 "/>
 <path fill="none" stroke="rgb(255,64,0)" stroke-linejoin="round" d="M 12692,6342 L 12692,6294 12692,6246 "/>
 <path fill="none" stroke="rgb(255,64,0)" stroke-linejoin="round" d="M 12792,6342 L 12592,6342 "/>
 <path fill="none" stroke="rgb(255,64,0)" stroke-linejoin="round" d="M 12592,6246 L 12792,6246 "/>
 <path fill="none" stroke="rgb(255,64,0)" stroke-linejoin="round" d="M 13155,6397 L 13155,6305 13155,6212 "/>
 <path fill="none" stroke="rgb(255,64,0)" stroke-linejoin="round" d="M 13255,6397 L 13055,6397 "/>
 <path fill="none" stroke="rgb(255,64,0)" stroke-linejoin="round" d="M 13055,6212 L 13255,6212 "/>
 <path fill="none" stroke="rgb(255,64,0)" stroke-linejoin="round" d="M 13618,6406 L 13618,6305 13618,6204 "/>
 <path fill="none" stroke="rgb(255,64,0)" stroke-linejoin="round" d="M 13718,6406 L 13518,6406 "/>
 <path fill="none" stroke="rgb(255,64,0)" stroke-linejoin="round" d="M 13518,6204 L 13718,6204 "/>
 <path fill="none" stroke="rgb(255,64,0)" stroke-linejoin="round" d="M 14081,6469 L 14081,6361 14081,6253 "/>
 <path fill="none" stroke="rgb(255,64,0)" stroke-linejoin="round" d="M 14181,6469 L 13981,6469 "/>
 <path fill="none" stroke="rgb(255,64,0)" stroke-linejoin="round" d="M 13981,6253 L 14181,6253 "/>
 <path fill="none" stroke="rgb(255,64,0)" stroke-linejoin="round" d="M 14544,6505 L 14544,6379 14544,6252 "/>
 <path fill="none" stroke="rgb(255,64,0)" stroke-linejoin="round" d="M 14644,6505 L 14444,6505 "/>
 <path fill="none" stroke="rgb(255,64,0)" stroke-linejoin="round" d="M 14444,6252 L 14644,6252 "/>
 <path fill="none" stroke="rgb(255,64,0)" stroke-linejoin="round" d="M 15007,6573 L 15007,6438 15007,6303 "/>
 <path fill="none" stroke="rgb(255,64,0)" stroke-linejoin="round" d="M 15107,6573 L 14907,6573 "/>
 <path fill="none" stroke="rgb(255,64,0)" stroke-linejoin="round" d="M 14907,6303 L 15107,6303 "/>
 <path fill="none" stroke="rgb(255,64,0)" stroke-linejoin="round" d="M 15470,6397 L 15470,6238 15470,6080 "/>
 <path fill="none" stroke="rgb(255,64,0)" stroke-linejoin="round" d="M 15570,6397 L 15370,6397 "/>
 <path fill="none" stroke="rgb(255,64,0)" stroke-linejoin="round" d="M 15370,6080 L 15570,6080 "/>
 <path fill="none" stroke="rgb(129,212,26)" stroke-linejoin="round" d="M 2045,2679 L 2507,3022 2970,3189 3433,3346 3896,3396 4359,3789 4822,3539 5285,3570 5748,3465 6211,4854 6674,4327 7137,4248 7600,4084 8062,4331 8525,4551 8988,4783 9451,4879 9914,4819 10377,4554 10840,4561 11303,4308 11766,3831 12229,4270 12692,4920 13155,5086 13618,5479 14081,5898 14544,6006 15007,6501 15470,5929 "/>
 <path fill="none" stroke="rgb(129,212,26)" stroke-linejoin="round" d="M 2970,3189 L 2970,3189 Z "/>
 <path fill="none" stroke="rgb(129,212,26)" stroke-linejoin="round" d="M 3070,3189 L 2870,3189 "/>
 <path fill="none" stroke="rgb(129,212,26)" stroke-linejoin="round" d="M 2870,3189 L 3070,3189 "/>
 <path fill="none" stroke="rgb(129,212,26)" stroke-linejoin="round" d="M 3433,3348 L 3433,3346 3433,3345 "/>
 <path fill="none" stroke="rgb(129,212,26)" stroke-linejoin="round" d="M 3533,3348 L 3333,3348 "/>
 <path fill="none" stroke="rgb(129,212,26)" stroke-linejoin="round" d="M 3333,3345 L 3533,3345 "/>
 <path fill="none" stroke="rgb(129,212,26)" stroke-linejoin="round" d="M 3896,3398 L 3896,3396 3896,3395 "/>
 <path fill="none" stroke="rgb(129,212,26)" stroke-linejoin="round" d="M 3996,3398 L 3796,3398 "/>
 <path fill="none" stroke="rgb(129,212,26)" stroke-linejoin="round" d="M 3796,3395 L 3996,3395 "/>
 <path fill="none" stroke="rgb(129,212,26)" stroke-linejoin="round" d="M 4359,3791 L 4359,3789 4359,3787 "/>
 <path fill="none" stroke="rgb(129,212,26)" stroke-linejoin="round" d="M 4459,3791 L 4259,3791 "/>
 <path fill="none" stroke="rgb(129,212,26)" stroke-linejoin="round" d="M 4259,3787 L 4459,3787 "/>
 <path fill="none" stroke="rgb(129,212,26)" stroke-linejoin="round" d="M 4822,3541 L 4822,3539 4822,3536 "/>
 <path fill="none" stroke="rgb(129,212,26)" stroke-linejoin="round" d="M 4922,3541 L 4722,3541 "/>
 <path fill="none" stroke="rgb(129,212,26)" stroke-linejoin="round" d="M 4722,3536 L 4922,3536 "/>
 <path fill="none" stroke="rgb(129,212,26)" stroke-linejoin="round" d="M 5285,3571 L 5285,3570 5285,3569 "/>
 <path fill="none" stroke="rgb(129,212,26)" stroke-linejoin="round" d="M 5385,3571 L 5185,3571 "/>
 <path fill="none" stroke="rgb(129,212,26)" stroke-linejoin="round" d="M 5185,3569 L 5385,3569 "/>
 <path fill="none" stroke="rgb(129,212,26)" stroke-linejoin="round" d="M 5748,3466 L 5748,3465 5748,3464 "/>
 <path fill="none" stroke="rgb(129,212,26)" stroke-linejoin="round" d="M 5848,3466 L 5648,3466 "/>
 <path fill="none" stroke="rgb(129,212,26)" stroke-linejoin="round" d="M 5648,3464 L 5848,3464 "/>
 <path fill="none" stroke="rgb(129,212,26)" stroke-linejoin="round" d="M 6211,4855 L 6211,4854 6211,4853 "/>
 <path fill="none" stroke="rgb(129,212,26)" stroke-linejoin="round" d="M 6311,4855 L 6111,4855 "/>
 <path fill="none" stroke="rgb(129,212,26)" stroke-linejoin="round" d="M 6111,4853 L 6311,4853 "/>
 <path fill="none" stroke="rgb(129,212,26)" stroke-linejoin="round" d="M 6674,4329 L 6674,4327 6674,4326 "/>
 <path fill="none" stroke="rgb(129,212,26)" stroke-linejoin="round" d="M 6774,4329 L 6574,4329 "/>
 <path fill="none" stroke="rgb(129,212,26)" stroke-linejoin="round" d="M 6574,4326 L 6774,4326 "/>
 <path fill="none" stroke="rgb(129,212,26)" stroke-linejoin="round" d="M 7137,4250 L 7137,4248 7137,4247 "/>
 <path fill="none" stroke="rgb(129,212,26)" stroke-linejoin="round" d="M 7237,4250 L 7037,4250 "/>
 <path fill="none" stroke="rgb(129,212,26)" stroke-linejoin="round" d="M 7037,4247 L 7237,4247 "/>
 <path fill="none" stroke="rgb(129,212,26)" stroke-linejoin="round" d="M 7600,4086 L 7600,4084 7600,4083 "/>
 <path fill="none" stroke="rgb(129,212,26)" stroke-linejoin="round" d="M 7700,4086 L 7500,4086 "/>
 <path fill="none" stroke="rgb(129,212,26)" stroke-linejoin="round" d="M 7500,4083 L 7700,4083 "/>
 <path fill="none" stroke="rgb(129,212,26)" stroke-linejoin="round" d="M 8062,4332 L 8062,4331 8062,4329 "/>
 <path fill="none" stroke="rgb(129,212,26)" stroke-linejoin="round" d="M 8162,4332 L 7963,4332 "/>
 <path fill="none" stroke="rgb(129,212,26)" stroke-linejoin="round" d="M 7963,4329 L 8162,4329 "/>
 <path fill="none" stroke="rgb(129,212,26)" stroke-linejoin="round" d="M 8525,4553 L 8525,4551 8525,4550 "/>
 <path fill="none" stroke="rgb(129,212,26)" stroke-linejoin="round" d="M 8625,4553 L 8425,4553 "/>
 <path fill="none" stroke="rgb(129,212,26)" stroke-linejoin="round" d="M 8425,4550 L 8625,4550 "/>
 <path fill="none" stroke="rgb(129,212,26)" stroke-linejoin="round" d="M 8988,4784 L 8988,4783 8988,4781 "/>
 <path fill="none" stroke="rgb(129,212,26)" stroke-linejoin="round" d="M 9088,4784 L 8888,4784 "/>
 <path fill="none" stroke="rgb(129,212,26)" stroke-linejoin="round" d="M 8888,4781 L 9088,4781 "/>
 <path fill="none" stroke="rgb(129,212,26)" stroke-linejoin="round" d="M 9451,4880 L 9451,4879 9451,4877 "/>
 <path fill="none" stroke="rgb(129,212,26)" stroke-linejoin="round" d="M 9551,4880 L 9351,4880 "/>
 <path fill="none" stroke="rgb(129,212,26)" stroke-linejoin="round" d="M 9351,4877 L 9551,4877 "/>
 <path fill="none" stroke="rgb(129,212,26)" stroke-linejoin="round" d="M 9914,4821 L 9914,4819 9914,4817 "/>
 <path fill="none" stroke="rgb(129,212,26)" stroke-linejoin="round" d="M 10014,4821 L 9814,4821 "/>
 <path fill="none" stroke="rgb(129,212,26)" stroke-linejoin="round" d="M 9814,4817 L 10014,4817 "/>
 <path fill="none" stroke="rgb(129,212,26)" stroke-linejoin="round" d="M 10377,4556 L 10377,4554 10377,4552 "/>
 <path fill="none" stroke="rgb(129,212,26)" stroke-linejoin="round" d="M 10477,4556 L 10277,4556 "/>
 <path fill="none" stroke="rgb(129,212,26)" stroke-linejoin="round" d="M 10277,4552 L 10477,4552 "/>
 <path fill="none" stroke="rgb(129,212,26)" stroke-linejoin="round" d="M 10840,4562 L 10840,4561 10840,4559 "/>
 <path fill="none" stroke="rgb(129,212,26)" stroke-linejoin="round" d="M 10940,4562 L 10740,4562 "/>
 <path fill="none" stroke="rgb(129,212,26)" stroke-linejoin="round" d="M 10740,4559 L 10940,4559 "/>
 <path fill="none" stroke="rgb(129,212,26)" stroke-linejoin="round" d="M 11303,4310 L 11303,4308 11303,4306 "/>
 <path fill="none" stroke="rgb(129,212,26)" stroke-linejoin="round" d="M 11403,4310 L 11203,4310 "/>
 <path fill="none" stroke="rgb(129,212,26)" stroke-linejoin="round" d="M 11203,4306 L 11403,4306 "/>
 <path fill="none" stroke="rgb(129,212,26)" stroke-linejoin="round" d="M 11766,3832 L 11766,3831 11766,3830 "/>
 <path fill="none" stroke="rgb(129,212,26)" stroke-linejoin="round" d="M 11866,3832 L 11666,3832 "/>
 <path fill="none" stroke="rgb(129,212,26)" stroke-linejoin="round" d="M 11666,3830 L 11866,3830 "/>
 <path fill="none" stroke="rgb(129,212,26)" stroke-linejoin="round" d="M 12229,4271 L 12229,4270 12229,4269 "/>
 <path fill="none" stroke="rgb(129,212,26)" stroke-linejoin="round" d="M 12329,4271 L 12129,4271 "/>
 <path fill="none" stroke="rgb(129,212,26)" stroke-linejoin="round" d="M 12129,4269 L 12329,4269 "/>
 <path fill="none" stroke="rgb(129,212,26)" stroke-linejoin="round" d="M 12692,4921 L 12692,4920 12692,4919 "/>
 <path fill="none" stroke="rgb(129,212,26)" stroke-linejoin="round" d="M 12792,4921 L 12592,4921 "/>
 <path fill="none" stroke="rgb(129,212,26)" stroke-linejoin="round" d="M 12592,4919 L 12792,4919 "/>
 <path fill="none" stroke="rgb(129,212,26)" stroke-linejoin="round" d="M 13155,5089 L 13155,5086 13155,5084 "/>
 <path fill="none" stroke="rgb(129,212,26)" stroke-linejoin="round" d="M 13255,5089 L 13055,5089 "/>
 <path fill="none" stroke="rgb(129,212,26)" stroke-linejoin="round" d="M 13055,5084 L 13255,5084 "/>
 <path fill="none" stroke="rgb(129,212,26)" stroke-linejoin="round" d="M 13618,5482 L 13618,5479 13618,5475 "/>
 <path fill="none" stroke="rgb(129,212,26)" stroke-linejoin="round" d="M 13718,5482 L 13518,5482 "/>
 <path fill="none" stroke="rgb(129,212,26)" stroke-linejoin="round" d="M 13518,5475 L 13718,5475 "/>
 <path fill="none" stroke="rgb(129,212,26)" stroke-linejoin="round" d="M 14081,5903 L 14081,5898 14081,5892 "/>
 <path fill="none" stroke="rgb(129,212,26)" stroke-linejoin="round" d="M 14181,5903 L 13981,5903 "/>
 <path fill="none" stroke="rgb(129,212,26)" stroke-linejoin="round" d="M 13981,5892 L 14181,5892 "/>
 <path fill="none" stroke="rgb(129,212,26)" stroke-linejoin="round" d="M 14544,6014 L 14544,6006 14544,5998 "/>
 <path fill="none" stroke="rgb(129,212,26)" stroke-linejoin="round" d="M 14644,6014 L 14444,6014 "/>
 <path fill="none" stroke="rgb(129,212,26)" stroke-linejoin="round" d="M 14444,5998 L 14644,5998 "/>
 <path fill="none" stroke="rgb(129,212,26)" stroke-linejoin="round" d="M 15007,6510 L 15007,6501 15007,6492 "/>
 <path fill="none" stroke="rgb(129,212,26)" stroke-linejoin="round" d="M 15107,6510 L 14907,6510 "/>
 <path fill="none" stroke="rgb(129,212,26)" stroke-linejoin="round" d="M 14907,6492 L 15107,6492 "/>
 <path fill="none" stroke="rgb(129,212,26)" stroke-linejoin="round" d="M 15470,5948 L 15470,5929 15470,5909 "/>
 <path fill="none" stroke="rgb(129,212,26)" stroke-linejoin="round" d="M 15570,5948 L 15370,5948 "/>
 <path fill="none" stroke="rgb(129,212,26)" stroke-linejoin="round" d="M 15370,5909 L 15570,5909 "/>
 <text class="SVGTextShape" transform="rotate(-90 2168 7844)"><tspan class="TextParagraph"><tspan class="TextPosition" x="2168" y="7844"><tspan font-family="Arial, sans-serif" font-size="353px" font-weight="400" lengthAdjust="spacingAndGlyphs" textLength="882" fill="rgb(0,0,0)" stroke="none" style="white-space: pre">0.005</tspan></tspan></tspan></text>
 <text class="SVGTextShape" transform="rotate(-90 2630 7648)"><tspan class="TextParagraph"><tspan class="TextPosition" x="2630" y="7648"><tspan font-family="Arial, sans-serif" font-size="353px" font-weight="400" lengthAdjust="spacingAndGlyphs" textLength="686" fill="rgb(0,0,0)" stroke="none" style="white-space: pre">0.05</tspan></tspan></tspan></text>
 <text class="SVGTextShape" transform="rotate(-90 3093 7451)"><tspan class="TextParagraph"><tspan class="TextPosition" x="3093" y="7451"><tspan font-family="Arial, sans-serif" font-size="353px" font-weight="400" lengthAdjust="spacingAndGlyphs" textLength="490" fill="rgb(0,0,0)" stroke="none" style="white-space: pre">0.1</tspan></tspan></tspan></text>
 <text class="SVGTextShape" transform="rotate(-90 3556 7648)"><tspan class="TextParagraph"><tspan class="TextPosition" x="3556" y="7648"><tspan font-family="Arial, sans-serif" font-size="353px" font-weight="400" lengthAdjust="spacingAndGlyphs" textLength="686" fill="rgb(0,0,0)" stroke="none" style="white-space: pre">0.25</tspan></tspan></tspan></text>
 <text class="SVGTextShape" transform="rotate(-90 4019 7451)"><tspan class="TextParagraph"><tspan class="TextPosition" x="4019" y="7451"><tspan font-family="Arial, sans-serif" font-size="353px" font-weight="400" lengthAdjust="spacingAndGlyphs" textLength="490" fill="rgb(0,0,0)" stroke="none" style="white-space: pre">0.5</tspan></tspan></tspan></text>
 <text class="SVGTextShape" transform="rotate(-90 4482 7157)"><tspan class="TextParagraph"><tspan class="TextPosition" x="4482" y="7157"><tspan font-family="Arial, sans-serif" font-size="353px" font-weight="400" lengthAdjust="spacingAndGlyphs" textLength="196" fill="rgb(0,0,0)" stroke="none" style="white-space: pre">1</tspan></tspan></tspan></text>
 <text class="SVGTextShape" transform="rotate(-90 4945 7157)"><tspan class="TextParagraph"><tspan class="TextPosition" x="4945" y="7157"><tspan font-family="Arial, sans-serif" font-size="353px" font-weight="400" lengthAdjust="spacingAndGlyphs" textLength="196" fill="rgb(0,0,0)" stroke="none" style="white-space: pre">2</tspan></tspan></tspan></text>
 <text class="SVGTextShape" transform="rotate(-90 5408 7157)"><tspan class="TextParagraph"><tspan class="TextPosition" x="5408" y="7157"><tspan font-family="Arial, sans-serif" font-size="353px" font-weight="400" lengthAdjust="spacingAndGlyphs" textLength="196" fill="rgb(0,0,0)" stroke="none" style="white-space: pre">3</tspan></tspan></tspan></text>
 <text class="SVGTextShape" transform="rotate(-90 5871 7157)"><tspan class="TextParagraph"><tspan class="TextPosition" x="5871" y="7157"><tspan font-family="Arial, sans-serif" font-size="353px" font-weight="400" lengthAdjust="spacingAndGlyphs" textLength="196" fill="rgb(0,0,0)" stroke="none" style="white-space: pre">4</tspan></tspan></tspan></text>
 <text class="SVGTextShape" transform="rotate(-90 6334 7157)"><tspan class="TextParagraph"><tspan class="TextPosition" x="6334" y="7157"><tspan font-family="Arial, sans-serif" font-size="353px" font-weight="400" lengthAdjust="spacingAndGlyphs" textLength="196" fill="rgb(0,0,0)" stroke="none" style="white-space: pre">5</tspan></tspan></tspan></text>
 <text class="SVGTextShape" transform="rotate(-90 6797 7157)"><tspan class="TextParagraph"><tspan class="TextPosition" x="6797" y="7157"><tspan font-family="Arial, sans-serif" font-size="353px" font-weight="400" lengthAdjust="spacingAndGlyphs" textLength="196" fill="rgb(0,0,0)" stroke="none" style="white-space: pre">6</tspan></tspan></tspan></text>
 <text class="SVGTextShape" transform="rotate(-90 7260 7157)"><tspan class="TextParagraph"><tspan class="TextPosition" x="7260" y="7157"><tspan font-family="Arial, sans-serif" font-size="353px" font-weight="400" lengthAdjust="spacingAndGlyphs" textLength="196" fill="rgb(0,0,0)" stroke="none" style="white-space: pre">7</tspan></tspan></tspan></text>
 <text class="SVGTextShape" transform="rotate(-90 7723 7157)"><tspan class="TextParagraph"><tspan class="TextPosition" x="7723" y="7157"><tspan font-family="Arial, sans-serif" font-size="353px" font-weight="400" lengthAdjust="spacingAndGlyphs" textLength="196" fill="rgb(0,0,0)" stroke="none" style="white-space: pre">8</tspan></tspan></tspan></text>
 <text class="SVGTextShape" transform="rotate(-90 8185 7157)"><tspan class="TextParagraph"><tspan class="TextPosition" x="8185" y="7157"><tspan font-family="Arial, sans-serif" font-size="353px" font-weight="400" lengthAdjust="spacingAndGlyphs" textLength="196" fill="rgb(0,0,0)" stroke="none" style="white-space: pre">9</tspan></tspan></tspan></text>
 <text class="SVGTextShape" transform="rotate(-90 8648 7353)"><tspan class="TextParagraph"><tspan class="TextPosition" x="8648" y="7353"><tspan font-family="Arial, sans-serif" font-size="353px" font-weight="400" lengthAdjust="spacingAndGlyphs" textLength="392" fill="rgb(0,0,0)" stroke="none" style="white-space: pre">10</tspan></tspan></tspan></text>
 <text class="SVGTextShape" transform="rotate(-90 9111 7353)"><tspan class="TextParagraph"><tspan class="TextPosition" x="9111" y="7353"><tspan font-family="Arial, sans-serif" font-size="353px" font-weight="400" lengthAdjust="spacingAndGlyphs" textLength="392" fill="rgb(0,0,0)" stroke="none" style="white-space: pre">11</tspan></tspan></tspan></text>
 <text class="SVGTextShape" transform="rotate(-90 9574 7353)"><tspan class="TextParagraph"><tspan class="TextPosition" x="9574" y="7353"><tspan font-family="Arial, sans-serif" font-size="353px" font-weight="400" lengthAdjust="spacingAndGlyphs" textLength="392" fill="rgb(0,0,0)" stroke="none" style="white-space: pre">12</tspan></tspan></tspan></text>
 <text class="SVGTextShape" transform="rotate(-90 10037 7353)"><tspan class="TextParagraph"><tspan class="TextPosition" x="10037" y="7353"><tspan font-family="Arial, sans-serif" font-size="353px" font-weight="400" lengthAdjust="spacingAndGlyphs" textLength="392" fill="rgb(0,0,0)" stroke="none" style="white-space: pre">13</tspan></tspan></tspan></text>
 <text class="SVGTextShape" transform="rotate(-90 10500 7353)"><tspan class="TextParagraph"><tspan class="TextPosition" x="10500" y="7353"><tspan font-family="Arial, sans-serif" font-size="353px" font-weight="400" lengthAdjust="spacingAndGlyphs" textLength="392" fill="rgb(0,0,0)" stroke="none" style="white-space: pre">14</tspan></tspan></tspan></text>
 <text class="SVGTextShape" transform="rotate(-90 10963 7353)"><tspan class="TextParagraph"><tspan class="TextPosition" x="10963" y="7353"><tspan font-family="Arial, sans-serif" font-size="353px" font-weight="400" lengthAdjust="spacingAndGlyphs" textLength="392" fill="rgb(0,0,0)" stroke="none" style="white-space: pre">15</tspan></tspan></tspan></text>
 <text class="SVGTextShape" transform="rotate(-90 11426 7353)"><tspan class="TextParagraph"><tspan class="TextPosition" x="11426" y="7353"><tspan font-family="Arial, sans-serif" font-size="353px" font-weight="400" lengthAdjust="spacingAndGlyphs" textLength="392" fill="rgb(0,0,0)" stroke="none" style="white-space: pre">16</tspan></tspan></tspan></text>
 <text class="SVGTextShape" transform="rotate(-90 11889 7353)"><tspan class="TextParagraph"><tspan class="TextPosition" x="11889" y="7353"><tspan font-family="Arial, sans-serif" font-size="353px" font-weight="400" lengthAdjust="spacingAndGlyphs" textLength="392" fill="rgb(0,0,0)" stroke="none" style="white-space: pre">17</tspan></tspan></tspan></text>
 <text class="SVGTextShape" transform="rotate(-90 12352 7353)"><tspan class="TextParagraph"><tspan class="TextPosition" x="12352" y="7353"><tspan font-family="Arial, sans-serif" font-size="353px" font-weight="400" lengthAdjust="spacingAndGlyphs" textLength="392" fill="rgb(0,0,0)" stroke="none" style="white-space: pre">18</tspan></tspan></tspan></text>
 <text class="SVGTextShape" transform="rotate(-90 12815 7353)"><tspan class="TextParagraph"><tspan class="TextPosition" x="12815" y="7353"><tspan font-family="Arial, sans-serif" font-size="353px" font-weight="400" lengthAdjust="spacingAndGlyphs" textLength="392" fill="rgb(0,0,0)" stroke="none" style="white-space: pre">19</tspan></tspan></tspan></text>
 <text class="SVGTextShape" transform="rotate(-90 13278 7353)"><tspan class="TextParagraph"><tspan class="TextPosition" x="13278" y="7353"><tspan font-family="Arial, sans-serif" font-size="353px" font-weight="400" lengthAdjust="spacingAndGlyphs" textLength="392" fill="rgb(0,0,0)" stroke="none" style="white-space: pre">20</tspan></tspan></tspan></text>
 <text class="SVGTextShape" transform="rotate(-90 13741 7353)"><tspan class="TextParagraph"><tspan class="TextPosition" x="13741" y="7353"><tspan font-family="Arial, sans-serif" font-size="353px" font-weight="400" lengthAdjust="spacingAndGlyphs" textLength="392" fill="rgb(0,0,0)" stroke="none" style="white-space: pre">21</tspan></tspan></tspan></text>
 <text class="SVGTextShape" transform="rotate(-90 14204 7353)"><tspan class="TextParagraph"><tspan class="TextPosition" x="14204" y="7353"><tspan font-family="Arial, sans-serif" font-size="353px" font-weight="400" lengthAdjust="spacingAndGlyphs" textLength="392" fill="rgb(0,0,0)" stroke="none" style="white-space: pre">22</tspan></tspan></tspan></text>
 <text class="SVGTextShape" transform="rotate(-90 14667 7353)"><tspan class="TextParagraph"><tspan class="TextPosition" x="14667" y="7353"><tspan font-family="Arial, sans-serif" font-size="353px" font-weight="400" lengthAdjust="spacingAndGlyphs" textLength="392" fill="rgb(0,0,0)" stroke="none" style="white-space: pre">23</tspan></tspan></tspan></text>
 <text class="SVGTextShape" transform="rotate(-90 15130 7353)"><tspan class="TextParagraph"><tspan class="TextPosition" x="15130" y="7353"><tspan font-family="Arial, sans-serif" font-size="353px" font-weight="400" lengthAdjust="spacingAndGlyphs" textLength="392" fill="rgb(0,0,0)" stroke="none" style="white-space: pre">24</tspan></tspan></tspan></text>
 <text class="SVGTextShape" transform="rotate(-90 15593 7353)"><tspan class="TextParagraph"><tspan class="TextPosition" x="15593" y="7353"><tspan font-family="Arial, sans-serif" font-size="353px" font-weight="400" lengthAdjust="spacingAndGlyphs" textLength="392" fill="rgb(0,0,0)" stroke="none" style="white-space: pre">25</tspan></tspan></tspan></text>
 <text class="SVGTextShape"><tspan class="TextParagraph"><tspan class="TextPosition" x="1599" y="6835"><tspan font-family="Arial, sans-serif" font-size="353px" font-weight="400" lengthAdjust="spacingAndGlyphs" textLength="196" fill="rgb(0,0,0)" stroke="none" style="white-space: pre">0</tspan></tspan></tspan></text>
 <text class="SVGTextShape"><tspan class="TextParagraph"><tspan class="TextPosition" x="1305" y="6093"><tspan font-family="Arial, sans-serif" font-size="353px" font-weight="400" lengthAdjust="spacingAndGlyphs" textLength="490" fill="rgb(0,0,0)" stroke="none" style="white-space: pre">0.2</tspan></tspan></tspan></text>
 <text class="SVGTextShape"><tspan class="TextParagraph"><tspan class="TextPosition" x="1305" y="5351"><tspan font-family="Arial, sans-serif" font-size="353px" font-weight="400" lengthAdjust="spacingAndGlyphs" textLength="490" fill="rgb(0,0,0)" stroke="none" style="white-space: pre">0.4</tspan></tspan></tspan></text>
 <text class="SVGTextShape"><tspan class="TextParagraph"><tspan class="TextPosition" x="1305" y="4609"><tspan font-family="Arial, sans-serif" font-size="353px" font-weight="400" lengthAdjust="spacingAndGlyphs" textLength="490" fill="rgb(0,0,0)" stroke="none" style="white-space: pre">0.6</tspan></tspan></tspan></text>
 <text class="SVGTextShape"><tspan class="TextParagraph"><tspan class="TextPosition" x="1305" y="3867"><tspan font-family="Arial, sans-serif" font-size="353px" font-weight="400" lengthAdjust="spacingAndGlyphs" textLength="490" fill="rgb(0,0,0)" stroke="none" style="white-space: pre">0.8</tspan></tspan></tspan></text>
 <text class="SVGTextShape"><tspan class="TextParagraph"><tspan class="TextPosition" x="1599" y="3126"><tspan font-family="Arial, sans-serif" font-size="353px" font-weight="400" lengthAdjust="spacingAndGlyphs" textLength="196" fill="rgb(0,0,0)" stroke="none" style="white-space: pre">1</tspan></tspan></tspan></text>
 <text class="SVGTextShape"><tspan class="TextParagraph"><tspan class="TextPosition" x="1305" y="2383"><tspan font-family="Arial, sans-serif" font-size="353px" font-weight="400" lengthAdjust="spacingAndGlyphs" textLength="490" fill="rgb(0,0,0)" stroke="none" style="white-space: pre">1.2</tspan></tspan></tspan></text>
 <text class="SVGTextShape"><tspan class="TextParagraph"><tspan class="TextPosition" x="5120" y="867"><tspan font-family="Arial, sans-serif" font-size="459px" font-weight="400" lengthAdjust="spacingAndGlyphs" textLength="5735" fill="rgb(0,0,0)" stroke="none" style="white-space: pre">Percentage with Uncertainty</tspan></tspan></tspan></text>
 <path fill="none" stroke="rgb(0,69,134)" stroke-linejoin="round" d="M 4138,1590 L 4938,1590 "/>
 <path fill="none" stroke="rgb(255,66,14)" stroke-linejoin="round" d="M 6703,1590 L 7503,1590 "/>
 <path fill="none" stroke="rgb(129,212,26)" stroke-linejoin="round" d="M 9150,1590 L 9950,1590 "/>
 <text class="SVGTextShape"><tspan class="TextParagraph"><tspan class="TextPosition" x="5038" y="1714"><tspan font-family="Arial, sans-serif" font-size="353px" font-weight="400" lengthAdjust="spacingAndGlyphs" textLength="1430" fill="rgb(0,0,0)" stroke="none" style="white-space: pre">Curve Fit</tspan></tspan></tspan></text>
 <text class="SVGTextShape"><tspan class="TextParagraph"><tspan class="TextPosition" x="7603" y="1714"><tspan font-family="Arial, sans-serif" font-size="353px" font-weight="400" lengthAdjust="spacingAndGlyphs" textLength="1313" fill="rgb(0,0,0)" stroke="none" style="white-space: pre">Intensity</tspan></tspan></tspan></text>
 <text class="SVGTextShape"><tspan class="TextParagraph"><tspan class="TextPosition" x="10050" y="1714"><tspan font-family="Arial, sans-serif" font-size="353px" font-weight="400" lengthAdjust="spacingAndGlyphs" textLength="1784" fill="rgb(0,0,0)" stroke="none" style="white-space: pre">Summation</tspan></tspan></tspan></text>
 <text class="SVGTextShape"><tspan class="TextParagraph"><tspan class="TextPosition" x="7751" y="8402"><tspan font-family="Arial, sans-serif" font-size="318px" font-weight="400" lengthAdjust="spacingAndGlyphs" textLength="1467" fill="rgb(0,0,0)" stroke="none" style="white-space: pre">Omega (°)</tspan></tspan></tspan></text>
 <text class="SVGTextShape" transform="rotate(-90 819 6383)"><tspan class="TextParagraph"><tspan class="TextPosition" x="819" y="6383"><tspan font-family="Arial, sans-serif" font-size="318px" font-weight="400" lengthAdjust="spacingAndGlyphs" textLength="2859" fill="rgb(0,0,0)" stroke="none" style="white-space: pre">Relative Percentage</tspan></tspan></tspan></text>
</svg>