<?xml version="1.0" encoding="UTF-8"?>
<!DOCTYPE svg PUBLIC "-//W3C//DTD SVG 1.1//EN" "http://www.w3.org/Graphics/SVG/1.1/DTD/svg11.dtd">
<svg width="160mm" height="90mm" viewBox="0 0 16000 9000" version="1.1" xmlns="http://www.w3.org/2000/svg" xmlns:xlink="http://www.w3.org/1999/xlink" stroke-width="28.222" stroke-linejoin="round" xml:space="preserve">
 <path fill="rgb(255,255,255)" stroke="none" d="M 7991,8990 L -9,8990 -9,-9 15990,-9 15990,8990 7991,8990 Z "/>
 <path fill="none" stroke="rgb(179,179,179)" stroke-linejoin="round" d="M 8808,7207 L 2046,7207 2046,2263 15570,2263 15570,7207 8808,7207 Z "/>
 <path fill="none" stroke="rgb(179,179,179)" stroke-linejoin="round" d="M 2046,2261 L 2046,7206 "/>
 <path fill="none" stroke="rgb(179,179,179)" stroke-linejoin="round" d="M 3978,2261 L 3978,7206 "/>
 <path fill="none" stroke="rgb(179,179,179)" stroke-linejoin="round" d="M 5910,2261 L 5910,7206 "/>
 <path fill="none" stroke="rgb(179,179,179)" stroke-linejoin="round" d="M 7842,2261 L 7842,7206 "/>
 <path fill="none" stroke="rgb(179,179,179)" stroke-linejoin="round" d="M 9773,2261 L 9773,7206 "/>
 <path fill="none" stroke="rgb(179,179,179)" stroke-linejoin="round" d="M 11705,2261 L 11705,7206 "/>
 <path fill="none" stroke="rgb(179,179,179)" stroke-linejoin="round" d="M 13637,2261 L 13637,7206 "/>
 <path fill="none" stroke="rgb(179,179,179)" stroke-linejoin="round" d="M 15570,2261 L 15570,7206 "/>
 <path fill="none" stroke="rgb(221,221,221)" stroke-linejoin="round" d="M 3012,2261 L 3012,7206 "/>
 <path fill="none" stroke="rgb(221,221,221)" stroke-linejoin="round" d="M 4944,2261 L 4944,7206 "/>
 <path fill="none" stroke="rgb(221,221,221)" stroke-linejoin="round" d="M 6876,2261 L 6876,7206 "/>
 <path fill="none" stroke="rgb(221,221,221)" stroke-linejoin="round" d="M 8807,2261 L 8807,7206 "/>
 <path fill="none" stroke="rgb(221,221,221)" stroke-linejoin="round" d="M 10739,2261 L 10739,7206 "/>
 <path fill="none" stroke="rgb(221,221,221)" stroke-linejoin="round" d="M 12671,2261 L 12671,7206 "/>
 <path fill="none" stroke="rgb(221,221,221)" stroke-linejoin="round" d="M 14603,2261 L 14603,7206 "/>
 <path fill="none" stroke="rgb(179,179,179)" stroke-linejoin="round" d="M 15570,7206 L 2046,7206 "/>
 <path fill="none" stroke="rgb(179,179,179)" stroke-linejoin="round" d="M 15570,6381 L 2046,6381 "/>
 <path fill="none" stroke="rgb(179,179,179)" stroke-linejoin="round" d="M 15570,5557 L 2046,5557 "/>
 <path fill="none" stroke="rgb(179,179,179)" stroke-linejoin="round" d="M 15570,4733 L 2046,4733 "/>
 <path fill="none" stroke="rgb(179,179,179)" stroke-linejoin="round" d="M 15570,3910 L 2046,3910 "/>
 <path fill="none" stroke="rgb(179,179,179)" stroke-linejoin="round" d="M 15570,3086 L 2046,3086 "/>
 <path fill="none" stroke="rgb(179,179,179)" stroke-linejoin="round" d="M 15570,2261 L 2046,2261 "/>
 <path fill="none" stroke="rgb(221,221,221)" stroke-linejoin="round" d="M 15570,6793 L 2046,6793 "/>
 <path fill="none" stroke="rgb(221,221,221)" stroke-linejoin="round" d="M 15570,5969 L 2046,5969 "/>
 <path fill="none" stroke="rgb(221,221,221)" stroke-linejoin="round" d="M 15570,5145 L 2046,5145 "/>
 <path fill="none" stroke="rgb(221,221,221)" stroke-linejoin="round" d="M 15570,4322 L 2046,4322 "/>
 <path fill="none" stroke="rgb(221,221,221)" stroke-linejoin="round" d="M 15570,3498 L 2046,3498 "/>
 <path fill="none" stroke="rgb(221,221,221)" stroke-linejoin="round" d="M 15570,2674 L 2046,2674 "/>
 <path fill="none" stroke="rgb(179,179,179)" stroke-linejoin="round" d="M 2046,7356 L 2046,7206 "/>
 <path fill="none" stroke="rgb(179,179,179)" stroke-linejoin="round" d="M 2046,7356 L 2046,7206 "/>
 <path fill="none" stroke="rgb(179,179,179)" stroke-linejoin="round" d="M 3978,7356 L 3978,7206 "/>
 <path fill="none" stroke="rgb(179,179,179)" stroke-linejoin="round" d="M 3978,7356 L 3978,7206 "/>
 <path fill="none" stroke="rgb(179,179,179)" stroke-linejoin="round" d="M 5910,7356 L 5910,7206 "/>
 <path fill="none" stroke="rgb(179,179,179)" stroke-linejoin="round" d="M 5910,7356 L 5910,7206 "/>
 <path fill="none" stroke="rgb(179,179,179)" stroke-linejoin="round" d="M 7842,7356 L 7842,7206 "/>
 <path fill="none" stroke="rgb(179,179,179)" stroke-linejoin="round" d="M 7842,7356 L 7842,7206 "/>
 <path fill="none" stroke="rgb(179,179,179)" stroke-linejoin="round" d="M 9773,7356 L 9773,7206 "/>
 <path fill="none" stroke="rgb(179,179,179)" stroke-linejoin="round" d="M 9773,7356 L 9773,7206 "/>
 <path fill="none" stroke="rgb(179,179,179)" stroke-linejoin="round" d="M 11705,7356 L 11705,7206 "/>
 <path fill="none" stroke="rgb(179,179,179)" stroke-linejoin="round" d="M 11705,7356 L 11705,7206 "/>
 <path fill="none" stroke="rgb(179,179,179)" stroke-linejoin="round" d="M 13637,7356 L 13637,7206 "/>
 <path fill="none" stroke="rgb(179,179,179)" stroke-linejoin="round" d="M 13637,7356 L 13637,7206 "/>
 <path fill="none" stroke="rgb(179,179,179)" stroke-linejoin="round" d="M 15570,7356 L 15570,7206 "/>
 <path fill="none" stroke="rgb(179,179,179)" stroke-linejoin="round" d="M 15570,7356 L 15570,7206 "/>
 <path fill="none" stroke="rgb(179,179,179)" stroke-linejoin="round" d="M 2046,7206 L 15570,7206 "/>
 <path fill="none" stroke="rgb(179,179,179)" stroke-linejoin="round" d="M 1896,7206 L 2046,7206 "/>
 <path fill="none" stroke="rgb(179,179,179)" stroke-linejoin="round" d="M 1896,7206 L 2046,7206 "/>
 <path fill="none" stroke="rgb(179,179,179)" stroke-linejoin="round" d="M 1896,6381 L 2046,6381 "/>
 <path fill="none" stroke="rgb(179,179,179)" stroke-linejoin="round" d="M 1896,6381 L 2046,6381 "/>
 <path fill="none" stroke="rgb(179,179,179)" stroke-linejoin="round" d="M 1896,5557 L 2046,5557 "/>
 <path fill="none" stroke="rgb(179,179,179)" stroke-linejoin="round" d="M 1896,5557 L 2046,5557 "/>
 <path fill="none" stroke="rgb(179,179,179)" stroke-linejoin="round" d="M 1896,4733 L 2046,4733 "/>
 <path fill="none" stroke="rgb(179,179,179)" stroke-linejoin="round" d="M 1896,4733 L 2046,4733 "/>
 <path fill="none" stroke="rgb(179,179,179)" stroke-linejoin="round" d="M 1896,3910 L 2046,3910 "/>
 <path fill="none" stroke="rgb(179,179,179)" stroke-linejoin="round" d="M 1896,3910 L 2046,3910 "/>
 <path fill="none" stroke="rgb(179,179,179)" stroke-linejoin="round" d="M 1896,3086 L 2046,3086 "/>
 <path fill="none" stroke="rgb(179,179,179)" stroke-linejoin="round" d="M 1896,3086 L 2046,3086 "/>
 <path fill="none" stroke="rgb(179,179,179)" stroke-linejoin="round" d="M 1896,2261 L 2046,2261 "/>
 <path fill="none" stroke="rgb(179,179,179)" stroke-linejoin="round" d="M 1896,2261 L 2046,2261 "/>
 <path fill="none" stroke="rgb(179,179,179)" stroke-linejoin="round" d="M 2046,7206 L 2046,2261 "/>
 <path fill="none" stroke="rgb(255,211,32)" stroke-width="80" stroke-linejoin="round" d="M 2097,2728 L 2566,3108 3093,3294 4680,3469 7324,3524 12749,3960 "/>
 <path fill="rgb(255,211,32)" stroke="none" d="M 1972,2603 L 2097,2853 2222,2603 1972,2603 Z "/>
 <path fill="none" stroke="rgb(255,211,32)" stroke-linejoin="round" d="M 1972,2603 L 2097,2853 2222,2603 1972,2603 Z "/>
 <path fill="rgb(255,211,32)" stroke="none" d="M 2441,2983 L 2566,3233 2691,2983 2441,2983 Z "/>
 <path fill="none" stroke="rgb(255,211,32)" stroke-linejoin="round" d="M 2441,2983 L 2566,3233 2691,2983 2441,2983 Z "/>
 <path fill="rgb(255,211,32)" stroke="none" d="M 2968,3169 L 3093,3419 3218,3169 2968,3169 Z "/>
 <path fill="none" stroke="rgb(255,211,32)" stroke-linejoin="round" d="M 2968,3169 L 3093,3419 3218,3169 2968,3169 Z "/>
 <path fill="rgb(255,211,32)" stroke="none" d="M 4555,3344 L 4680,3594 4805,3344 4555,3344 Z "/>
 <path fill="none" stroke="rgb(255,211,32)" stroke-linejoin="round" d="M 4555,3344 L 4680,3594 4805,3344 4555,3344 Z "/>
 <path fill="rgb(255,211,32)" stroke="none" d="M 7199,3399 L 7324,3649 7449,3399 7199,3399 Z "/>
 <path fill="none" stroke="rgb(255,211,32)" stroke-linejoin="round" d="M 7199,3399 L 7324,3649 7449,3399 7199,3399 Z "/>
 <path fill="rgb(255,211,32)" stroke="none" d="M 12624,3835 L 12749,4085 12874,3835 12624,3835 Z "/>
 <path fill="none" stroke="rgb(255,211,32)" stroke-linejoin="round" d="M 12624,3835 L 12749,4085 12874,3835 12624,3835 Z "/>
 <path fill="none" stroke="rgb(255,66,14)" stroke-width="80" stroke-linejoin="round" d="M 2097,2966 L 2573,3505 3156,5076 4901,5898 7805,6137 13774,6652 "/>
 <path fill="rgb(255,66,14)" stroke="none" d="M 1972,2966 L 2097,3091 2222,2966 2097,2841 1972,2966 Z "/>
 <path fill="none" stroke="rgb(255,66,14)" stroke-linejoin="round" d="M 1972,2966 L 2097,3091 2222,2966 2097,2841 1972,2966 Z "/>
 <path fill="rgb(255,66,14)" stroke="none" d="M 2448,3505 L 2573,3630 2698,3505 2573,3380 2448,3505 Z "/>
 <path fill="none" stroke="rgb(255,66,14)" stroke-linejoin="round" d="M 2448,3505 L 2573,3630 2698,3505 2573,3380 2448,3505 Z "/>
 <path fill="rgb(255,66,14)" stroke="none" d="M 3031,5076 L 3156,5201 3281,5076 3156,4951 3031,5076 Z "/>
 <path fill="none" stroke="rgb(255,66,14)" stroke-linejoin="round" d="M 3031,5076 L 3156,5201 3281,5076 3156,4951 3031,5076 Z "/>
 <path fill="rgb(255,66,14)" stroke="none" d="M 4776,5898 L 4901,6023 5026,5898 4901,5773 4776,5898 Z "/>
 <path fill="none" stroke="rgb(255,66,14)" stroke-linejoin="round" d="M 4776,5898 L 4901,6023 5026,5898 4901,5773 4776,5898 Z "/>
 <path fill="rgb(255,66,14)" stroke="none" d="M 7680,6137 L 7805,6262 7930,6137 7805,6012 7680,6137 Z "/>
 <path fill="none" stroke="rgb(255,66,14)" stroke-linejoin="round" d="M 7680,6137 L 7805,6262 7930,6137 7805,6012 7680,6137 Z "/>
 <path fill="rgb(255,66,14)" stroke="none" d="M 13649,6652 L 13774,6777 13899,6652 13774,6527 13649,6652 Z "/>
 <path fill="none" stroke="rgb(255,66,14)" stroke-linejoin="round" d="M 13649,6652 L 13774,6777 13899,6652 13774,6527 13649,6652 Z "/>
 <path fill="none" stroke="rgb(0,69,134)" stroke-width="80" stroke-linejoin="round" d="M 2097,2728 L 2566,3108 3093,3294 4680,3467 7323,3522 12736,3923 "/>
 <path fill="rgb(0,69,134)" stroke="none" d="M 1972,2603 L 1972,2853 2222,2853 2222,2603 1972,2603 Z "/>
 <path fill="none" stroke="rgb(0,69,134)" stroke-linejoin="round" d="M 1972,2603 L 1972,2853 2222,2853 2222,2603 1972,2603 Z "/>
 <path fill="rgb(0,69,134)" stroke="none" d="M 2441,2983 L 2441,3233 2691,3233 2691,2983 2441,2983 Z "/>
 <path fill="none" stroke="rgb(0,69,134)" stroke-linejoin="round" d="M 2441,2983 L 2441,3233 2691,3233 2691,2983 2441,2983 Z "/>
 <path fill="rgb(0,69,134)" stroke="none" d="M 2968,3169 L 2968,3419 3218,3419 3218,3169 2968,3169 Z "/>
 <path fill="none" stroke="rgb(0,69,134)" stroke-linejoin="round" d="M 2968,3169 L 2968,3419 3218,3419 3218,3169 2968,3169 Z "/>
 <path fill="rgb(0,69,134)" stroke="none" d="M 4555,3342 L 4555,3592 4805,3592 4805,3342 4555,3342 Z "/>
 <path fill="none" stroke="rgb(0,69,134)" stroke-linejoin="round" d="M 4555,3342 L 4555,3592 4805,3592 4805,3342 4555,3342 Z "/>
 <path fill="rgb(0,69,134)" stroke="none" d="M 7198,3397 L 7198,3647 7448,3647 7448,3397 7198,3397 Z "/>
 <path fill="none" stroke="rgb(0,69,134)" stroke-linejoin="round" d="M 7198,3397 L 7198,3647 7448,3647 7448,3397 7198,3397 Z "/>
 <path fill="rgb(0,69,134)" stroke="none" d="M 12611,3798 L 12611,4048 12861,4048 12861,3798 12611,3798 Z "/>
 <path fill="none" stroke="rgb(0,69,134)" stroke-linejoin="round" d="M 12611,3798 L 12611,4048 12861,4048 12861,3798 12611,3798 Z "/>
 <text class="SVGTextShape"><tspan class="TextParagraph"><tspan class="TextPosition" x="1948" y="7774"><tspan font-family="Liberation Sans, sans-serif" font-size="353px" font-weight="400" lengthAdjust="spacingAndGlyphs" textLength="196" fill="rgb(0,0,0)" stroke="none" style="white-space: pre">0</tspan></tspan></tspan></text>
 <text class="SVGTextShape"><tspan class="TextParagraph"><tspan class="TextPosition" x="3880" y="7774"><tspan font-family="Liberation Sans, sans-serif" font-size="353px" font-weight="400" lengthAdjust="spacingAndGlyphs" textLength="196" fill="rgb(0,0,0)" stroke="none" style="white-space: pre">1</tspan></tspan></tspan></text>
 <text class="SVGTextShape"><tspan class="TextParagraph"><tspan class="TextPosition" x="5812" y="7774"><tspan font-family="Liberation Sans, sans-serif" font-size="353px" font-weight="400" lengthAdjust="spacingAndGlyphs" textLength="196" fill="rgb(0,0,0)" stroke="none" style="white-space: pre">2</tspan></tspan></tspan></text>
 <text class="SVGTextShape"><tspan class="TextParagraph"><tspan class="TextPosition" x="7744" y="7774"><tspan font-family="Liberation Sans, sans-serif" font-size="353px" font-weight="400" lengthAdjust="spacingAndGlyphs" textLength="196" fill="rgb(0,0,0)" stroke="none" style="white-space: pre">3</tspan></tspan></tspan></text>
 <text class="SVGTextShape"><tspan class="TextParagraph"><tspan class="TextPosition" x="9675" y="7774"><tspan font-family="Liberation Sans, sans-serif" font-size="353px" font-weight="400" lengthAdjust="spacingAndGlyphs" textLength="196" fill="rgb(0,0,0)" stroke="none" style="white-space: pre">4</tspan></tspan></tspan></text>
 <text class="SVGTextShape"><tspan class="TextParagraph"><tspan class="TextPosition" x="11607" y="7774"><tspan font-family="Liberation Sans, sans-serif" font-size="353px" font-weight="400" lengthAdjust="spacingAndGlyphs" textLength="196" fill="rgb(0,0,0)" stroke="none" style="white-space: pre">5</tspan></tspan></tspan></text>
 <text class="SVGTextShape"><tspan class="TextParagraph"><tspan class="TextPosition" x="13539" y="7774"><tspan font-family="Liberation Sans, sans-serif" font-size="353px" font-weight="400" lengthAdjust="spacingAndGlyphs" textLength="196" fill="rgb(0,0,0)" stroke="none" style="white-space: pre">6</tspan></tspan></tspan></text>
 <text class="SVGTextShape"><tspan class="TextParagraph"><tspan class="TextPosition" x="15472" y="7774"><tspan font-family="Liberation Sans, sans-serif" font-size="353px" font-weight="400" lengthAdjust="spacingAndGlyphs" textLength="196" fill="rgb(0,0,0)" stroke="none" style="white-space: pre">7</tspan></tspan></tspan></text>
 <text class="SVGTextShape"><tspan class="TextParagraph"><tspan class="TextPosition" x="1600" y="7330"><tspan font-family="Liberation Sans, sans-serif" font-size="353px" font-weight="400" lengthAdjust="spacingAndGlyphs" textLength="196" fill="rgb(0,0,0)" stroke="none" style="white-space: pre">0</tspan></tspan></tspan></text>
 <text class="SVGTextShape"><tspan class="TextParagraph"><tspan class="TextPosition" x="1306" y="6505"><tspan font-family="Liberation Sans, sans-serif" font-size="353px" font-weight="400" lengthAdjust="spacingAndGlyphs" textLength="490" fill="rgb(0,0,0)" stroke="none" style="white-space: pre">0.2</tspan></tspan></tspan></text>
 <text class="SVGTextShape"><tspan class="TextParagraph"><tspan class="TextPosition" x="1306" y="5681"><tspan font-family="Liberation Sans, sans-serif" font-size="353px" font-weight="400" lengthAdjust="spacingAndGlyphs" textLength="490" fill="rgb(0,0,0)" stroke="none" style="white-space: pre">0.4</tspan></tspan></tspan></text>
 <text class="SVGTextShape"><tspan class="TextParagraph"><tspan class="TextPosition" x="1306" y="4857"><tspan font-family="Liberation Sans, sans-serif" font-size="353px" font-weight="400" lengthAdjust="spacingAndGlyphs" textLength="490" fill="rgb(0,0,0)" stroke="none" style="white-space: pre">0.6</tspan></tspan></tspan></text>
 <text class="SVGTextShape"><tspan class="TextParagraph"><tspan class="TextPosition" x="1306" y="4034"><tspan font-family="Liberation Sans, sans-serif" font-size="353px" font-weight="400" lengthAdjust="spacingAndGlyphs" textLength="490" fill="rgb(0,0,0)" stroke="none" style="white-space: pre">0.8</tspan></tspan></tspan></text>
 <text class="SVGTextShape"><tspan class="TextParagraph"><tspan class="TextPosition" x="1600" y="3210"><tspan font-family="Liberation Sans, sans-serif" font-size="353px" font-weight="400" lengthAdjust="spacingAndGlyphs" textLength="196" fill="rgb(0,0,0)" stroke="none" style="white-space: pre">1</tspan></tspan></tspan></text>
 <text class="SVGTextShape"><tspan class="TextParagraph"><tspan class="TextPosition" x="1306" y="2385"><tspan font-family="Liberation Sans, sans-serif" font-size="353px" font-weight="400" lengthAdjust="spacingAndGlyphs" textLength="490" fill="rgb(0,0,0)" stroke="none" style="white-space: pre">1.2</tspan></tspan></tspan></text>
 <text class="SVGTextShape"><tspan class="TextParagraph"><tspan class="TextPosition" x="4791" y="868"><tspan font-family="Liberation Sans, sans-serif" font-size="459px" font-weight="400" lengthAdjust="spacingAndGlyphs" textLength="6399" fill="rgb(0,0,0)" stroke="none" style="white-space: pre">Percentage of Dopant vs Depth</tspan></tspan></tspan></text>
 <path fill="none" stroke="rgb(0,69,134)" stroke-width="80" stroke-linejoin="round" d="M 4141,1591 L 4941,1591 "/>
 <path fill="rgb(0,69,134)" stroke="none" d="M 4435,1486 L 4435,1697 4646,1697 4646,1486 4435,1486 Z "/>
 <path fill="none" stroke="rgb(0,69,134)" stroke-linejoin="round" d="M 4435,1486 L 4435,1697 4646,1697 4646,1486 4435,1486 Z "/>
 <path fill="none" stroke="rgb(255,66,14)" stroke-width="80" stroke-linejoin="round" d="M 6706,1591 L 7506,1591 "/>
 <path fill="rgb(255,66,14)" stroke="none" d="M 7000,1591 L 7106,1697 7211,1591 7106,1486 7000,1591 Z "/>
 <path fill="none" stroke="rgb(255,66,14)" stroke-linejoin="round" d="M 7000,1591 L 7106,1697 7211,1591 7106,1486 7000,1591 Z "/>
 <path fill="none" stroke="rgb(255,211,32)" stroke-width="80" stroke-linejoin="round" d="M 9153,1591 L 9953,1591 "/>
 <path fill="rgb(255,211,32)" stroke="none" d="M 9447,1486 L 9553,1697 9658,1486 9447,1486 Z "/>
 <path fill="none" stroke="rgb(255,211,32)" stroke-linejoin="round" d="M 9447,1486 L 9553,1697 9658,1486 9447,1486 Z "/>
 <text class="SVGTextShape"><tspan class="TextParagraph"><tspan class="TextPosition" x="5041" y="1715"><tspan font-family="Liberation Sans, sans-serif" font-size="353px" font-weight="400" lengthAdjust="spacingAndGlyphs" textLength="1430" fill="rgb(0,0,0)" stroke="none" style="white-space: pre">Curve Fit</tspan></tspan></tspan></text>
 <text class="SVGTextShape"><tspan class="TextParagraph"><tspan class="TextPosition" x="7606" y="1715"><tspan font-family="Liberation Sans, sans-serif" font-size="353px" font-weight="400" lengthAdjust="spacingAndGlyphs" textLength="1313" fill="rgb(0,0,0)" stroke="none" style="white-space: pre">Intensity</tspan></tspan></tspan></text>
 <text class="SVGTextShape"><tspan class="TextParagraph"><tspan class="TextPosition" x="10053" y="1715"><tspan font-family="Liberation Sans, sans-serif" font-size="353px" font-weight="400" lengthAdjust="spacingAndGlyphs" textLength="1784" fill="rgb(0,0,0)" stroke="none" style="white-space: pre">Summation</tspan></tspan></tspan></text>
 <text class="SVGTextShape"><tspan class="TextParagraph"><tspan class="TextPosition" x="7735" y="8404"><tspan font-family="Liberation Sans, sans-serif" font-size="318px" font-weight="400" lengthAdjust="spacingAndGlyphs" textLength="1506" fill="rgb(0,0,0)" stroke="none" style="white-space: pre">Depth(μm)</tspan></tspan></tspan></text>
 <text class="SVGTextShape" transform="rotate(-90 819 6058)"><tspan class="TextParagraph"><tspan class="TextPosition" x="819" y="6058"><tspan font-family="Liberation Sans, sans-serif" font-size="318px" font-weight="400" lengthAdjust="spacingAndGlyphs" textLength="2206" fill="rgb(0,0,0)" stroke="none" style="white-space: pre">Percent Dopant</tspan></tspan></tspan></text>
</svg>