<?xml version="1.0" encoding="utf-8" standalone="no"?>
<!DOCTYPE svg PUBLIC "-//W3C//DTD SVG 1.1//EN"
  "http://www.w3.org/Graphics/SVG/1.1/DTD/svg11.dtd">
<svg xmlns:xlink="http://www.w3.org/1999/xlink" width="360pt" height="216pt" viewBox="0 0 360 216" xmlns="http://www.w3.org/2000/svg" version="1.1">
 <metadata>
  <rdf:RDF xmlns:dc="http://purl.org/dc/elements/1.1/" xmlns:cc="http://creativecommons.org/ns#" xmlns:rdf="http://www.w3.org/1999/02/22-rdf-syntax-ns#">
   <cc:Work>
    <dc:type rdf:resource="http://purl.org/dc/dcmitype/StillImage"/>
    <dc:date>2026-03-25T20:26:37.843940</dc:date>
    <dc:format>image/svg+xml</dc:format>
    <dc:creator>
     <cc:Agent>
      <dc:title>Matplotlib v3.5.2, https://matplotlib.org/</dc:title>
     </cc:Agent>
    </dc:creator>
   </cc:Work>
  </rdf:RDF>
 </metadata>
 <defs>
  <style type="text/css">*{stroke-linejoin: round; stroke-linecap: butt}</style>
 </defs>
 <g id="figure_1">
  <g id="patch_1">
   <path d="M 0 216 
L 360 216 
L 360 0 
L 0 0 
z
" style="fill: #ffffff"/>
  </g>
  <g id="axes_1">
   <g id="patch_2">
    <path d="M 50.015209 174.04 
L 349.2 174.04 
L 349.2 25.44 
L 50.015209 25.44 
z
" style="fill: #ffffff"/>
   </g>
   <g id="matplotlib.axis_1">
    <g id="xtick_1">
     <g id="line2d_1">
      <defs>
       <path id="m6787697a59" d="M 0 0 
L 0 3.5 
" style="stroke: #000000; stroke-width: 0.8"/>
      </defs>
      <g>
       <use xlink:href="#m6787697a59" x="63.530103" y="174.04" style="stroke: #000000; stroke-width: 0.8"/>
      </g>
     </g>
     <g id="text_1">
      <!-- 0 -->
      <g transform="translate(60.348853 188.638438)scale(0.1 -0.1)">
       <defs>
        <path id="DejaVuSans-30" d="M 2034 4250 
Q 1547 4250 1301 3770 
Q 1056 3291 1056 2328 
Q 1056 1369 1301 889 
Q 1547 409 2034 409 
Q 2525 409 2770 889 
Q 3016 1369 3016 2328 
Q 3016 3291 2770 3770 
Q 2525 4250 2034 4250 
z
M 2034 4750 
Q 2819 4750 3233 4129 
Q 3647 3509 3647 2328 
Q 3647 1150 3233 529 
Q 2819 -91 2034 -91 
Q 1250 -91 836 529 
Q 422 1150 422 2328 
Q 422 3509 836 4129 
Q 1250 4750 2034 4750 
z
" transform="scale(0.015625)"/>
       </defs>
       <use xlink:href="#DejaVuSans-30"/>
      </g>
     </g>
    </g>
    <g id="xtick_2">
     <g id="line2d_2">
      <g>
       <use xlink:href="#m6787697a59" x="105.737764" y="174.04" style="stroke: #000000; stroke-width: 0.8"/>
      </g>
     </g>
     <g id="text_2">
      <!-- 20 -->
      <g transform="translate(99.375264 188.638438)scale(0.1 -0.1)">
       <defs>
        <path id="DejaVuSans-32" d="M 1228 531 
L 3431 531 
L 3431 0 
L 469 0 
L 469 531 
Q 828 903 1448 1529 
Q 2069 2156 2228 2338 
Q 2531 2678 2651 2914 
Q 2772 3150 2772 3378 
Q 2772 3750 2511 3984 
Q 2250 4219 1831 4219 
Q 1534 4219 1204 4116 
Q 875 4013 500 3803 
L 500 4441 
Q 881 4594 1212 4672 
Q 1544 4750 1819 4750 
Q 2544 4750 2975 4387 
Q 3406 4025 3406 3419 
Q 3406 3131 3298 2873 
Q 3191 2616 2906 2266 
Q 2828 2175 2409 1742 
Q 1991 1309 1228 531 
z
" transform="scale(0.015625)"/>
       </defs>
       <use xlink:href="#DejaVuSans-32"/>
       <use xlink:href="#DejaVuSans-30" x="63.623047"/>
      </g>
     </g>
    </g>
    <g id="xtick_3">
     <g id="line2d_3">
      <g>
       <use xlink:href="#m6787697a59" x="147.945426" y="174.04" style="stroke: #000000; stroke-width: 0.8"/>
      </g>
     </g>
     <g id="text_3">
      <!-- 40 -->
      <g transform="translate(141.582926 188.638438)scale(0.1 -0.1)">
       <defs>
        <path id="DejaVuSans-34" d="M 2419 4116 
L 825 1625 
L 2419 1625 
L 2419 4116 
z
M 2253 4666 
L 3047 4666 
L 3047 1625 
L 3713 1625 
L 3713 1100 
L 3047 1100 
L 3047 0 
L 2419 0 
L 2419 1100 
L 313 1100 
L 313 1709 
L 2253 4666 
z
" transform="scale(0.015625)"/>
       </defs>
       <use xlink:href="#DejaVuSans-34"/>
       <use xlink:href="#DejaVuSans-30" x="63.623047"/>
      </g>
     </g>
    </g>
    <g id="xtick_4">
     <g id="line2d_4">
      <g>
       <use xlink:href="#m6787697a59" x="190.153088" y="174.04" style="stroke: #000000; stroke-width: 0.8"/>
      </g>
     </g>
     <g id="text_4">
      <!-- 60 -->
      <g transform="translate(183.790588 188.638438)scale(0.1 -0.1)">
       <defs>
        <path id="DejaVuSans-36" d="M 2113 2584 
Q 1688 2584 1439 2293 
Q 1191 2003 1191 1497 
Q 1191 994 1439 701 
Q 1688 409 2113 409 
Q 2538 409 2786 701 
Q 3034 994 3034 1497 
Q 3034 2003 2786 2293 
Q 2538 2584 2113 2584 
z
M 3366 4563 
L 3366 3988 
Q 3128 4100 2886 4159 
Q 2644 4219 2406 4219 
Q 1781 4219 1451 3797 
Q 1122 3375 1075 2522 
Q 1259 2794 1537 2939 
Q 1816 3084 2150 3084 
Q 2853 3084 3261 2657 
Q 3669 2231 3669 1497 
Q 3669 778 3244 343 
Q 2819 -91 2113 -91 
Q 1303 -91 875 529 
Q 447 1150 447 2328 
Q 447 3434 972 4092 
Q 1497 4750 2381 4750 
Q 2619 4750 2861 4703 
Q 3103 4656 3366 4563 
z
" transform="scale(0.015625)"/>
       </defs>
       <use xlink:href="#DejaVuSans-36"/>
       <use xlink:href="#DejaVuSans-30" x="63.623047"/>
      </g>
     </g>
    </g>
    <g id="xtick_5">
     <g id="line2d_5">
      <g>
       <use xlink:href="#m6787697a59" x="232.36075" y="174.04" style="stroke: #000000; stroke-width: 0.8"/>
      </g>
     </g>
     <g id="text_5">
      <!-- 80 -->
      <g transform="translate(225.99825 188.638438)scale(0.1 -0.1)">
       <defs>
        <path id="DejaVuSans-38" d="M 2034 2216 
Q 1584 2216 1326 1975 
Q 1069 1734 1069 1313 
Q 1069 891 1326 650 
Q 1584 409 2034 409 
Q 2484 409 2743 651 
Q 3003 894 3003 1313 
Q 3003 1734 2745 1975 
Q 2488 2216 2034 2216 
z
M 1403 2484 
Q 997 2584 770 2862 
Q 544 3141 544 3541 
Q 544 4100 942 4425 
Q 1341 4750 2034 4750 
Q 2731 4750 3128 4425 
Q 3525 4100 3525 3541 
Q 3525 3141 3298 2862 
Q 3072 2584 2669 2484 
Q 3125 2378 3379 2068 
Q 3634 1759 3634 1313 
Q 3634 634 3220 271 
Q 2806 -91 2034 -91 
Q 1263 -91 848 271 
Q 434 634 434 1313 
Q 434 1759 690 2068 
Q 947 2378 1403 2484 
z
M 1172 3481 
Q 1172 3119 1398 2916 
Q 1625 2713 2034 2713 
Q 2441 2713 2670 2916 
Q 2900 3119 2900 3481 
Q 2900 3844 2670 4047 
Q 2441 4250 2034 4250 
Q 1625 4250 1398 4047 
Q 1172 3844 1172 3481 
z
" transform="scale(0.015625)"/>
       </defs>
       <use xlink:href="#DejaVuSans-38"/>
       <use xlink:href="#DejaVuSans-30" x="63.623047"/>
      </g>
     </g>
    </g>
    <g id="xtick_6">
     <g id="line2d_6">
      <g>
       <use xlink:href="#m6787697a59" x="274.568412" y="174.04" style="stroke: #000000; stroke-width: 0.8"/>
      </g>
     </g>
     <g id="text_6">
      <!-- 100 -->
      <g transform="translate(265.024662 188.638438)scale(0.1 -0.1)">
       <defs>
        <path id="DejaVuSans-31" d="M 794 531 
L 1825 531 
L 1825 4091 
L 703 3866 
L 703 4441 
L 1819 4666 
L 2450 4666 
L 2450 531 
L 3481 531 
L 3481 0 
L 794 0 
L 794 531 
z
" transform="scale(0.015625)"/>
       </defs>
       <use xlink:href="#DejaVuSans-31"/>
       <use xlink:href="#DejaVuSans-30" x="63.623047"/>
       <use xlink:href="#DejaVuSans-30" x="127.246094"/>
      </g>
     </g>
    </g>
    <g id="xtick_7">
     <g id="line2d_7">
      <g>
       <use xlink:href="#m6787697a59" x="316.776074" y="174.04" style="stroke: #000000; stroke-width: 0.8"/>
      </g>
     </g>
     <g id="text_7">
      <!-- 120 -->
      <g transform="translate(307.232324 188.638438)scale(0.1 -0.1)">
       <use xlink:href="#DejaVuSans-31"/>
       <use xlink:href="#DejaVuSans-32" x="63.623047"/>
       <use xlink:href="#DejaVuSans-30" x="127.246094"/>
      </g>
     </g>
    </g>
    <g id="text_8">
     <!-- Angle (°) -->
     <g transform="translate(177.388073 202.316563)scale(0.1 -0.1)">
      <defs>
       <path id="DejaVuSans-41" d="M 2188 4044 
L 1331 1722 
L 3047 1722 
L 2188 4044 
z
M 1831 4666 
L 2547 4666 
L 4325 0 
L 3669 0 
L 3244 1197 
L 1141 1197 
L 716 0 
L 50 0 
L 1831 4666 
z
" transform="scale(0.015625)"/>
       <path id="DejaVuSans-6e" d="M 3513 2113 
L 3513 0 
L 2938 0 
L 2938 2094 
Q 2938 2591 2744 2837 
Q 2550 3084 2163 3084 
Q 1697 3084 1428 2787 
Q 1159 2491 1159 1978 
L 1159 0 
L 581 0 
L 581 3500 
L 1159 3500 
L 1159 2956 
Q 1366 3272 1645 3428 
Q 1925 3584 2291 3584 
Q 2894 3584 3203 3211 
Q 3513 2838 3513 2113 
z
" transform="scale(0.015625)"/>
       <path id="DejaVuSans-67" d="M 2906 1791 
Q 2906 2416 2648 2759 
Q 2391 3103 1925 3103 
Q 1463 3103 1205 2759 
Q 947 2416 947 1791 
Q 947 1169 1205 825 
Q 1463 481 1925 481 
Q 2391 481 2648 825 
Q 2906 1169 2906 1791 
z
M 3481 434 
Q 3481 -459 3084 -895 
Q 2688 -1331 1869 -1331 
Q 1566 -1331 1297 -1286 
Q 1028 -1241 775 -1147 
L 775 -588 
Q 1028 -725 1275 -790 
Q 1522 -856 1778 -856 
Q 2344 -856 2625 -561 
Q 2906 -266 2906 331 
L 2906 616 
Q 2728 306 2450 153 
Q 2172 0 1784 0 
Q 1141 0 747 490 
Q 353 981 353 1791 
Q 353 2603 747 3093 
Q 1141 3584 1784 3584 
Q 2172 3584 2450 3431 
Q 2728 3278 2906 2969 
L 2906 3500 
L 3481 3500 
L 3481 434 
z
" transform="scale(0.015625)"/>
       <path id="DejaVuSans-6c" d="M 603 4863 
L 1178 4863 
L 1178 0 
L 603 0 
L 603 4863 
z
" transform="scale(0.015625)"/>
       <path id="DejaVuSans-65" d="M 3597 1894 
L 3597 1613 
L 953 1613 
Q 991 1019 1311 708 
Q 1631 397 2203 397 
Q 2534 397 2845 478 
Q 3156 559 3463 722 
L 3463 178 
Q 3153 47 2828 -22 
Q 2503 -91 2169 -91 
Q 1331 -91 842 396 
Q 353 884 353 1716 
Q 353 2575 817 3079 
Q 1281 3584 2069 3584 
Q 2775 3584 3186 3129 
Q 3597 2675 3597 1894 
z
M 3022 2063 
Q 3016 2534 2758 2815 
Q 2500 3097 2075 3097 
Q 1594 3097 1305 2825 
Q 1016 2553 972 2059 
L 3022 2063 
z
" transform="scale(0.015625)"/>
       <path id="DejaVuSans-20" transform="scale(0.015625)"/>
       <path id="DejaVuSans-28" d="M 1984 4856 
Q 1566 4138 1362 3434 
Q 1159 2731 1159 2009 
Q 1159 1288 1364 580 
Q 1569 -128 1984 -844 
L 1484 -844 
Q 1016 -109 783 600 
Q 550 1309 550 2009 
Q 550 2706 781 3412 
Q 1013 4119 1484 4856 
L 1984 4856 
z
" transform="scale(0.015625)"/>
       <path id="DejaVuSans-b0" d="M 1600 4347 
Q 1350 4347 1178 4173 
Q 1006 4000 1006 3750 
Q 1006 3503 1178 3333 
Q 1350 3163 1600 3163 
Q 1850 3163 2022 3333 
Q 2194 3503 2194 3750 
Q 2194 3997 2020 4172 
Q 1847 4347 1600 4347 
z
M 1600 4750 
Q 1800 4750 1984 4673 
Q 2169 4597 2303 4453 
Q 2447 4313 2519 4134 
Q 2591 3956 2591 3750 
Q 2591 3338 2302 3052 
Q 2013 2766 1594 2766 
Q 1172 2766 890 3047 
Q 609 3328 609 3750 
Q 609 4169 896 4459 
Q 1184 4750 1600 4750 
z
" transform="scale(0.015625)"/>
       <path id="DejaVuSans-29" d="M 513 4856 
L 1013 4856 
Q 1481 4119 1714 3412 
Q 1947 2706 1947 2009 
Q 1947 1309 1714 600 
Q 1481 -109 1013 -844 
L 513 -844 
Q 928 -128 1133 580 
Q 1338 1288 1338 2009 
Q 1338 2731 1133 3434 
Q 928 4138 513 4856 
z
" transform="scale(0.015625)"/>
      </defs>
      <use xlink:href="#DejaVuSans-41"/>
      <use xlink:href="#DejaVuSans-6e" x="68.408203"/>
      <use xlink:href="#DejaVuSans-67" x="131.787109"/>
      <use xlink:href="#DejaVuSans-6c" x="195.263672"/>
      <use xlink:href="#DejaVuSans-65" x="223.046875"/>
      <use xlink:href="#DejaVuSans-20" x="284.570312"/>
      <use xlink:href="#DejaVuSans-28" x="316.357422"/>
      <use xlink:href="#DejaVuSans-b0" x="355.371094"/>
      <use xlink:href="#DejaVuSans-29" x="405.371094"/>
     </g>
    </g>
   </g>
   <g id="matplotlib.axis_2">
    <g id="ytick_1">
     <g id="line2d_8">
      <defs>
       <path id="m04c61448d6" d="M 0 0 
L -3.5 0 
" style="stroke: #000000; stroke-width: 0.8"/>
      </defs>
      <g>
       <use xlink:href="#m04c61448d6" x="50.015209" y="164.376248" style="stroke: #000000; stroke-width: 0.8"/>
      </g>
     </g>
     <g id="text_9">
      <!-- $\mathdefault{10^{2}}$ -->
      <g transform="translate(25.415209 168.175467)scale(0.1 -0.1)">
       <use xlink:href="#DejaVuSans-31" transform="translate(0 0.765625)"/>
       <use xlink:href="#DejaVuSans-30" transform="translate(63.623047 0.765625)"/>
       <use xlink:href="#DejaVuSans-32" transform="translate(128.203125 39.046875)scale(0.7)"/>
      </g>
     </g>
    </g>
    <g id="ytick_2">
     <g id="line2d_9">
      <g>
       <use xlink:href="#m04c61448d6" x="50.015209" y="84.038453" style="stroke: #000000; stroke-width: 0.8"/>
      </g>
     </g>
     <g id="text_10">
      <!-- $\mathdefault{10^{3}}$ -->
      <g transform="translate(25.415209 87.837672)scale(0.1 -0.1)">
       <defs>
        <path id="DejaVuSans-33" d="M 2597 2516 
Q 3050 2419 3304 2112 
Q 3559 1806 3559 1356 
Q 3559 666 3084 287 
Q 2609 -91 1734 -91 
Q 1441 -91 1130 -33 
Q 819 25 488 141 
L 488 750 
Q 750 597 1062 519 
Q 1375 441 1716 441 
Q 2309 441 2620 675 
Q 2931 909 2931 1356 
Q 2931 1769 2642 2001 
Q 2353 2234 1838 2234 
L 1294 2234 
L 1294 2753 
L 1863 2753 
Q 2328 2753 2575 2939 
Q 2822 3125 2822 3475 
Q 2822 3834 2567 4026 
Q 2313 4219 1838 4219 
Q 1578 4219 1281 4162 
Q 984 4106 628 3988 
L 628 4550 
Q 988 4650 1302 4700 
Q 1616 4750 1894 4750 
Q 2613 4750 3031 4423 
Q 3450 4097 3450 3541 
Q 3450 3153 3228 2886 
Q 3006 2619 2597 2516 
z
" transform="scale(0.015625)"/>
       </defs>
       <use xlink:href="#DejaVuSans-31" transform="translate(0 0.765625)"/>
       <use xlink:href="#DejaVuSans-30" transform="translate(63.623047 0.765625)"/>
       <use xlink:href="#DejaVuSans-33" transform="translate(128.203125 39.046875)scale(0.7)"/>
      </g>
     </g>
    </g>
    <g id="ytick_3">
     <g id="line2d_10">
      <defs>
       <path id="mf664c2a936" d="M 0 0 
L -2 0 
" style="stroke: #000000; stroke-width: 0.6"/>
      </defs>
      <g>
       <use xlink:href="#mf664c2a936" x="50.015209" y="172.161785" style="stroke: #000000; stroke-width: 0.6"/>
      </g>
     </g>
    </g>
    <g id="ytick_4">
     <g id="line2d_11">
      <g>
       <use xlink:href="#mf664c2a936" x="50.015209" y="168.052304" style="stroke: #000000; stroke-width: 0.6"/>
      </g>
     </g>
    </g>
    <g id="ytick_5">
     <g id="line2d_12">
      <g>
       <use xlink:href="#mf664c2a936" x="50.015209" y="140.192162" style="stroke: #000000; stroke-width: 0.6"/>
      </g>
     </g>
    </g>
    <g id="ytick_6">
     <g id="line2d_13">
      <g>
       <use xlink:href="#mf664c2a936" x="50.015209" y="126.045379" style="stroke: #000000; stroke-width: 0.6"/>
      </g>
     </g>
    </g>
    <g id="ytick_7">
     <g id="line2d_14">
      <g>
       <use xlink:href="#mf664c2a936" x="50.015209" y="116.008076" style="stroke: #000000; stroke-width: 0.6"/>
      </g>
     </g>
    </g>
    <g id="ytick_8">
     <g id="line2d_15">
      <g>
       <use xlink:href="#mf664c2a936" x="50.015209" y="108.222539" style="stroke: #000000; stroke-width: 0.6"/>
      </g>
     </g>
    </g>
    <g id="ytick_9">
     <g id="line2d_16">
      <g>
       <use xlink:href="#mf664c2a936" x="50.015209" y="101.861292" style="stroke: #000000; stroke-width: 0.6"/>
      </g>
     </g>
    </g>
    <g id="ytick_10">
     <g id="line2d_17">
      <g>
       <use xlink:href="#mf664c2a936" x="50.015209" y="96.482935" style="stroke: #000000; stroke-width: 0.6"/>
      </g>
     </g>
    </g>
    <g id="ytick_11">
     <g id="line2d_18">
      <g>
       <use xlink:href="#mf664c2a936" x="50.015209" y="91.82399" style="stroke: #000000; stroke-width: 0.6"/>
      </g>
     </g>
    </g>
    <g id="ytick_12">
     <g id="line2d_19">
      <g>
       <use xlink:href="#mf664c2a936" x="50.015209" y="87.714509" style="stroke: #000000; stroke-width: 0.6"/>
      </g>
     </g>
    </g>
    <g id="ytick_13">
     <g id="line2d_20">
      <g>
       <use xlink:href="#mf664c2a936" x="50.015209" y="59.854367" style="stroke: #000000; stroke-width: 0.6"/>
      </g>
     </g>
    </g>
    <g id="ytick_14">
     <g id="line2d_21">
      <g>
       <use xlink:href="#mf664c2a936" x="50.015209" y="45.707583" style="stroke: #000000; stroke-width: 0.6"/>
      </g>
     </g>
    </g>
    <g id="ytick_15">
     <g id="line2d_22">
      <g>
       <use xlink:href="#mf664c2a936" x="50.015209" y="35.670281" style="stroke: #000000; stroke-width: 0.6"/>
      </g>
     </g>
    </g>
    <g id="ytick_16">
     <g id="line2d_23">
      <g>
       <use xlink:href="#mf664c2a936" x="50.015209" y="27.884744" style="stroke: #000000; stroke-width: 0.6"/>
      </g>
     </g>
    </g>
    <g id="text_11">
     <!-- Intensity (counts) -->
     <g transform="translate(19.335522 143.704063)rotate(-90)scale(0.1 -0.1)">
      <defs>
       <path id="DejaVuSans-49" d="M 628 4666 
L 1259 4666 
L 1259 0 
L 628 0 
L 628 4666 
z
" transform="scale(0.015625)"/>
       <path id="DejaVuSans-74" d="M 1172 4494 
L 1172 3500 
L 2356 3500 
L 2356 3053 
L 1172 3053 
L 1172 1153 
Q 1172 725 1289 603 
Q 1406 481 1766 481 
L 2356 481 
L 2356 0 
L 1766 0 
Q 1100 0 847 248 
Q 594 497 594 1153 
L 594 3053 
L 172 3053 
L 172 3500 
L 594 3500 
L 594 4494 
L 1172 4494 
z
" transform="scale(0.015625)"/>
       <path id="DejaVuSans-73" d="M 2834 3397 
L 2834 2853 
Q 2591 2978 2328 3040 
Q 2066 3103 1784 3103 
Q 1356 3103 1142 2972 
Q 928 2841 928 2578 
Q 928 2378 1081 2264 
Q 1234 2150 1697 2047 
L 1894 2003 
Q 2506 1872 2764 1633 
Q 3022 1394 3022 966 
Q 3022 478 2636 193 
Q 2250 -91 1575 -91 
Q 1294 -91 989 -36 
Q 684 19 347 128 
L 347 722 
Q 666 556 975 473 
Q 1284 391 1588 391 
Q 1994 391 2212 530 
Q 2431 669 2431 922 
Q 2431 1156 2273 1281 
Q 2116 1406 1581 1522 
L 1381 1569 
Q 847 1681 609 1914 
Q 372 2147 372 2553 
Q 372 3047 722 3315 
Q 1072 3584 1716 3584 
Q 2034 3584 2315 3537 
Q 2597 3491 2834 3397 
z
" transform="scale(0.015625)"/>
       <path id="DejaVuSans-69" d="M 603 3500 
L 1178 3500 
L 1178 0 
L 603 0 
L 603 3500 
z
M 603 4863 
L 1178 4863 
L 1178 4134 
L 603 4134 
L 603 4863 
z
" transform="scale(0.015625)"/>
       <path id="DejaVuSans-79" d="M 2059 -325 
Q 1816 -950 1584 -1140 
Q 1353 -1331 966 -1331 
L 506 -1331 
L 506 -850 
L 844 -850 
Q 1081 -850 1212 -737 
Q 1344 -625 1503 -206 
L 1606 56 
L 191 3500 
L 800 3500 
L 1894 763 
L 2988 3500 
L 3597 3500 
L 2059 -325 
z
" transform="scale(0.015625)"/>
       <path id="DejaVuSans-63" d="M 3122 3366 
L 3122 2828 
Q 2878 2963 2633 3030 
Q 2388 3097 2138 3097 
Q 1578 3097 1268 2742 
Q 959 2388 959 1747 
Q 959 1106 1268 751 
Q 1578 397 2138 397 
Q 2388 397 2633 464 
Q 2878 531 3122 666 
L 3122 134 
Q 2881 22 2623 -34 
Q 2366 -91 2075 -91 
Q 1284 -91 818 406 
Q 353 903 353 1747 
Q 353 2603 823 3093 
Q 1294 3584 2113 3584 
Q 2378 3584 2631 3529 
Q 2884 3475 3122 3366 
z
" transform="scale(0.015625)"/>
       <path id="DejaVuSans-6f" d="M 1959 3097 
Q 1497 3097 1228 2736 
Q 959 2375 959 1747 
Q 959 1119 1226 758 
Q 1494 397 1959 397 
Q 2419 397 2687 759 
Q 2956 1122 2956 1747 
Q 2956 2369 2687 2733 
Q 2419 3097 1959 3097 
z
M 1959 3584 
Q 2709 3584 3137 3096 
Q 3566 2609 3566 1747 
Q 3566 888 3137 398 
Q 2709 -91 1959 -91 
Q 1206 -91 779 398 
Q 353 888 353 1747 
Q 353 2609 779 3096 
Q 1206 3584 1959 3584 
z
" transform="scale(0.015625)"/>
       <path id="DejaVuSans-75" d="M 544 1381 
L 544 3500 
L 1119 3500 
L 1119 1403 
Q 1119 906 1312 657 
Q 1506 409 1894 409 
Q 2359 409 2629 706 
Q 2900 1003 2900 1516 
L 2900 3500 
L 3475 3500 
L 3475 0 
L 2900 0 
L 2900 538 
Q 2691 219 2414 64 
Q 2138 -91 1772 -91 
Q 1169 -91 856 284 
Q 544 659 544 1381 
z
M 1991 3584 
L 1991 3584 
z
" transform="scale(0.015625)"/>
      </defs>
      <use xlink:href="#DejaVuSans-49"/>
      <use xlink:href="#DejaVuSans-6e" x="29.492188"/>
      <use xlink:href="#DejaVuSans-74" x="92.871094"/>
      <use xlink:href="#DejaVuSans-65" x="132.080078"/>
      <use xlink:href="#DejaVuSans-6e" x="193.603516"/>
      <use xlink:href="#DejaVuSans-73" x="256.982422"/>
      <use xlink:href="#DejaVuSans-69" x="309.082031"/>
      <use xlink:href="#DejaVuSans-74" x="336.865234"/>
      <use xlink:href="#DejaVuSans-79" x="376.074219"/>
      <use xlink:href="#DejaVuSans-20" x="435.253906"/>
      <use xlink:href="#DejaVuSans-28" x="467.041016"/>
      <use xlink:href="#DejaVuSans-63" x="506.054688"/>
      <use xlink:href="#DejaVuSans-6f" x="561.035156"/>
      <use xlink:href="#DejaVuSans-75" x="622.216797"/>
      <use xlink:href="#DejaVuSans-6e" x="685.595703"/>
      <use xlink:href="#DejaVuSans-74" x="748.974609"/>
      <use xlink:href="#DejaVuSans-73" x="788.183594"/>
      <use xlink:href="#DejaVuSans-29" x="840.283203"/>
     </g>
    </g>
   </g>
   <g id="line2d_24">
    <path d="M 63.614518 113.484789 
L 63.794641 117.251118 
L 63.974764 118.259842 
L 64.154888 116.095411 
L 64.515134 118.634004 
L 64.695258 117.070806 
L 64.875381 118.353007 
L 65.055504 116.270739 
L 65.415751 121.068063 
L 65.595874 120.96737 
L 65.775997 118.353007 
L 65.956121 120.270537 
L 66.136244 119.684132 
L 66.316367 123.576227 
L 66.496491 118.728175 
L 66.676614 121.678404 
L 66.856737 120.468216 
L 67.03686 127.228213 
L 67.216984 120.270537 
L 67.397107 122.932081 
L 67.57723 122.509164 
L 67.757354 123.793613 
L 67.937477 122.719982 
L 68.1176 125.468667 
L 68.297723 123.902816 
L 68.477847 126.750256 
L 68.838093 125.240625 
L 69.018217 129.081228 
L 69.19834 126.161874 
L 69.378463 126.750256 
L 69.558587 128.452558 
L 69.918833 125.468667 
L 70.098956 126.631783 
L 70.27908 129.463941 
L 70.459203 125.240625 
L 70.639326 128.452558 
L 70.999573 125.813549 
L 71.179696 126.750256 
L 71.359819 126.161874 
L 71.539943 126.988416 
L 71.720066 129.335903 
L 72.080313 126.396038 
L 72.440559 128.702668 
L 72.620683 132.267343 
L 72.800806 130.505518 
L 72.980929 130.373608 
L 73.161052 128.954585 
L 73.341176 133.541368 
L 73.521299 128.702668 
L 73.701422 129.850898 
L 74.061669 129.081228 
L 74.241792 129.721435 
L 74.421915 128.828399 
L 74.602039 134.269792 
L 74.782162 129.721435 
L 74.962285 131.307629 
L 75.142409 134.41732 
L 75.322532 131.038205 
L 75.682779 128.954585 
L 75.862902 132.128614 
L 76.043025 130.373608 
L 76.223148 135.013749 
L 76.403272 132.267343 
L 76.583395 132.406625 
L 76.763518 131.8528 
L 76.943642 134.565474 
L 77.123765 133.254204 
L 77.303888 129.980843 
L 78.024381 136.238095 
L 78.204505 132.546466 
L 78.384628 135.315832 
L 78.564751 129.850898 
L 78.744875 131.57915 
L 78.924998 134.565474 
L 79.105121 130.242194 
L 79.465368 134.71426 
L 79.645491 133.976595 
L 79.825614 139.160848 
L 80.185861 131.172657 
L 80.726231 137.506971 
L 80.906354 133.111503 
L 81.086477 136.866765 
L 81.266601 135.013749 
L 81.446724 135.013749 
L 81.626847 130.904269 
L 81.806971 135.927957 
L 81.987094 135.773916 
L 82.167217 139.672695 
L 82.34734 133.254204 
L 82.527464 132.406625 
L 82.707587 137.506971 
L 82.88771 138.324111 
L 83.067834 131.8528 
L 83.42808 143.482686 
L 83.608203 136.708532 
L 83.788327 139.501243 
L 83.96845 135.620552 
L 84.148573 140.542821 
L 84.328697 138.489861 
L 84.50882 138.324111 
L 84.688943 134.269792 
L 84.869067 136.394204 
L 85.04919 140.719481 
L 85.229313 135.013749 
L 85.409436 135.773916 
L 85.58956 141.981799 
L 85.769683 133.830915 
L 85.949806 133.976595 
L 86.12993 141.254892 
L 86.490176 137.994955 
L 86.670299 136.866765 
L 86.850423 138.656402 
L 87.030546 132.128614 
L 87.210669 143.101368 
L 87.390793 135.164464 
L 87.751039 139.330631 
L 87.931163 137.831534 
L 88.111286 142.724173 
L 88.291409 136.238095 
L 88.471532 138.159145 
L 88.651656 135.620552 
L 89.011902 139.330631 
L 89.192026 138.159145 
L 89.372149 141.435204 
L 89.552272 140.192162 
L 89.732395 142.351011 
L 90.092642 138.823741 
L 90.272765 141.981799 
L 90.452889 140.719481 
L 90.633012 137.506971 
L 90.993258 140.192162 
L 91.173382 139.844993 
L 91.353505 137.506971 
L 91.533628 138.656402 
L 91.713752 141.075507 
L 91.893875 139.672695 
L 92.073998 143.482686 
L 92.254122 140.192162 
L 92.434245 145.252149 
L 92.614368 142.537093 
L 92.794491 141.981799 
L 92.974615 142.165917 
L 93.154738 136.238095 
L 93.334861 141.075507 
L 93.514985 140.367051 
L 93.695108 141.798647 
L 93.875231 137.1854 
L 94.055354 143.67492 
L 94.235478 144.851107 
L 94.415601 138.656402 
L 94.775848 141.435204 
L 94.955971 141.435204 
L 95.136094 138.324111 
L 95.316218 143.868218 
L 95.496341 141.254892 
L 95.676464 140.367051 
L 95.856587 138.823741 
L 96.036711 139.330631 
L 96.216834 146.275397 
L 96.396957 141.435204 
L 96.577081 141.981799 
L 96.757204 143.291506 
L 96.937327 143.67492 
L 97.11745 140.367051 
L 97.297574 143.868218 
L 97.477697 144.258058 
L 97.65782 138.324111 
L 97.837944 146.69325 
L 98.018067 141.254892 
L 98.19819 142.165917 
L 98.378314 138.489861 
L 98.558437 140.542821 
L 98.73856 145.051052 
L 99.098807 143.101368 
L 99.459053 145.252149 
L 99.639177 141.798647 
L 99.8193 126.396038 
L 99.999423 121.169048 
L 100.35967 104.518582 
L 101.080163 145.051052 
L 101.44041 140.018146 
L 101.620533 142.724173 
L 101.800656 141.254892 
L 101.980779 146.068333 
L 102.160903 142.724173 
L 102.341026 148.861044 
L 102.521149 142.351011 
L 102.701273 142.912261 
L 102.881396 146.904068 
L 103.241642 141.798647 
L 103.421766 140.367051 
L 103.601889 148.196447 
L 103.782012 146.904068 
L 103.962136 149.311247 
L 104.142259 147.116167 
L 104.322382 147.116167 
L 104.502506 144.258058 
L 104.682629 146.483698 
L 105.042875 139.844993 
L 105.403122 137.831534 
L 105.763369 145.657855 
L 105.943492 141.981799 
L 106.123615 140.89704 
L 106.303738 141.254892 
L 106.663985 138.489861 
L 106.844108 130.904269 
L 107.024232 129.980843 
L 107.204355 131.443125 
L 107.384478 127.591026 
L 107.564602 131.715707 
L 107.744725 131.8528 
L 108.104971 137.831534 
L 108.285095 135.773916 
L 108.465218 140.192162 
L 108.645341 141.254892 
L 108.825465 144.652302 
L 109.185711 140.367051 
L 109.545958 146.068333 
L 109.726081 145.657855 
L 109.906204 150.229465 
L 110.086328 144.454623 
L 110.266451 143.291506 
L 110.446574 143.291506 
L 110.626698 141.616452 
L 110.806821 144.652302 
L 110.986944 144.062593 
L 111.167067 144.258058 
L 111.347191 147.329564 
L 111.527314 142.537093 
L 111.707437 147.544274 
L 111.887561 144.062593 
L 112.067684 145.454412 
L 112.247807 148.861044 
L 112.42793 141.798647 
L 112.608054 149.538546 
L 112.9683 141.616452 
L 113.148424 142.351011 
L 113.50867 149.311247 
L 113.688793 145.051052 
L 113.868917 148.861044 
L 114.04904 145.454412 
L 114.229163 148.861044 
L 114.409287 148.196447 
L 114.58941 146.904068 
L 114.769533 149.538546 
L 114.949657 142.351011 
L 115.12978 147.977699 
L 115.309903 144.454623 
L 115.67015 147.544274 
L 115.850273 141.981799 
L 116.030396 141.254892 
L 116.390643 149.767335 
L 116.570766 147.760314 
L 116.750889 140.89704 
L 116.931013 141.435204 
L 117.291259 146.068333 
L 117.471383 142.537093 
L 117.651506 145.051052 
L 117.831629 145.657855 
L 118.191876 143.482686 
L 118.371999 144.652302 
L 118.552122 142.724173 
L 118.732246 136.238095 
L 118.912369 143.101368 
L 119.092492 139.330631 
L 119.272616 126.988416 
L 119.632862 53.016647 
L 119.993109 32.194545 
L 120.173232 40.449055 
L 120.353355 54.495952 
L 120.893725 143.67492 
L 121.073849 138.991887 
L 121.434095 145.252149 
L 121.614218 144.258058 
L 121.794342 145.657855 
L 121.974465 150.697798 
L 122.154588 144.851107 
L 122.334712 147.116167 
L 122.514835 145.051052 
L 122.694958 146.904068 
L 122.875081 144.851107 
L 123.055205 147.116167 
L 123.235328 142.724173 
L 123.415451 147.977699 
L 123.595575 146.904068 
L 123.775698 140.89704 
L 123.955821 150.934343 
L 124.135945 145.252149 
L 124.316068 146.69325 
L 124.496191 146.69325 
L 124.676314 141.075507 
L 124.856438 145.657855 
L 125.216684 149.085419 
L 125.396808 144.454623 
L 125.757054 146.483698 
L 125.937177 141.981799 
L 126.117301 144.258058 
L 126.297424 148.861044 
L 126.657671 142.165917 
L 127.017917 146.275397 
L 127.198041 143.291506 
L 127.378164 143.67492 
L 127.558287 141.798647 
L 127.918534 151.172502 
L 128.098657 151.172502 
L 128.27878 150.462845 
L 128.458904 147.116167 
L 128.639027 149.085419 
L 128.81915 148.861044 
L 129.179397 144.062593 
L 129.35952 144.062593 
L 129.539643 150.462845 
L 129.719767 149.311247 
L 129.89989 147.116167 
L 130.080013 141.981799 
L 130.260137 148.416576 
L 130.44026 144.652302 
L 130.620383 147.544274 
L 130.800506 148.196447 
L 130.98063 142.351011 
L 131.160753 150.229465 
L 131.521 150.229465 
L 131.701123 141.981799 
L 131.881246 147.544274 
L 132.061369 147.544274 
L 132.241493 147.116167 
L 132.421616 146.068333 
L 132.601739 149.085419 
L 132.781863 149.538546 
L 132.961986 145.454412 
L 133.142109 145.657855 
L 133.322233 147.116167 
L 133.502356 146.068333 
L 133.682479 150.462845 
L 133.862602 147.329564 
L 134.042726 151.653755 
L 134.222849 151.653755 
L 134.402972 145.657855 
L 134.763219 147.544274 
L 134.943342 152.886755 
L 135.123465 154.426281 
L 135.303589 143.67492 
L 135.483712 140.719481 
L 135.663835 143.482686 
L 135.843959 139.160848 
L 136.384329 80.649677 
L 136.564452 76.844052 
L 136.744575 83.176921 
L 136.924698 95.743184 
L 137.284945 140.542821 
L 137.465068 146.483698 
L 137.645192 147.329564 
L 137.825315 146.483698 
L 138.005438 151.412299 
L 138.185561 143.67492 
L 138.365685 146.904068 
L 138.545808 147.329564 
L 138.725931 152.141739 
L 138.906055 151.653755 
L 139.086178 151.896894 
L 139.446424 144.454623 
L 139.626548 149.997635 
L 139.806671 146.068333 
L 139.986794 146.068333 
L 140.166918 144.652302 
L 140.347041 145.454412 
L 140.527164 151.172502 
L 140.887411 146.068333 
L 141.067534 152.886755 
L 141.247657 146.69325 
L 141.427781 148.861044 
L 141.607904 142.912261 
L 141.788027 152.141739 
L 141.968151 146.068333 
L 142.148274 149.538546 
L 142.328397 147.116167 
L 142.50852 149.085419 
L 142.688644 148.196447 
L 142.868767 142.165917 
L 143.04889 146.483698 
L 143.229014 145.454412 
L 143.409137 146.904068 
L 143.58926 146.068333 
L 143.769384 140.719481 
L 143.949507 143.482686 
L 144.12963 141.435204 
L 144.489877 147.329564 
L 144.67 149.538546 
L 144.850123 142.724173 
L 145.030247 146.275397 
L 145.21037 145.454412 
L 145.570616 151.653755 
L 145.75074 149.311247 
L 145.930863 149.538546 
L 146.110986 147.329564 
L 146.29111 149.085419 
L 146.471233 146.483698 
L 146.651356 145.657855 
L 146.83148 155.491715 
L 147.191726 145.252149 
L 147.371849 146.904068 
L 147.551973 145.657855 
L 147.732096 146.483698 
L 147.912219 152.141739 
L 148.092343 151.172502 
L 148.272466 148.638102 
L 148.452589 151.172502 
L 148.632712 150.697798 
L 148.812836 154.426281 
L 148.992959 150.462845 
L 149.173082 150.697798 
L 149.353206 151.172502 
L 149.533329 144.062593 
L 149.713452 151.412299 
L 149.893576 149.538546 
L 150.073699 144.454623 
L 150.253822 149.311247 
L 150.433945 142.537093 
L 150.614069 149.311247 
L 150.794192 146.69325 
L 150.974315 151.896894 
L 151.154439 147.116167 
L 151.334562 146.483698 
L 151.514685 142.165917 
L 151.694808 147.329564 
L 151.874932 147.977699 
L 152.235178 145.252149 
L 152.595425 147.116167 
L 152.775548 145.86249 
L 152.955672 149.767335 
L 153.135795 149.997635 
L 153.315918 151.172502 
L 153.676165 146.275397 
L 153.856288 149.311247 
L 154.576781 143.101368 
L 154.756904 147.544274 
L 154.937028 140.719481 
L 155.117151 149.538546 
L 155.477398 147.116167 
L 155.657521 147.977699 
L 155.837644 144.652302 
L 156.017768 153.392419 
L 156.197891 151.172502 
L 156.558137 144.454623 
L 156.738261 143.291506 
L 156.918384 145.454412 
L 157.098507 151.653755 
L 157.278631 148.416576 
L 157.458754 143.101368 
L 157.638877 147.544274 
L 157.819 144.851107 
L 158.179247 149.085419 
L 158.35937 149.311247 
L 158.539494 149.085419 
L 158.719617 146.275397 
L 158.89974 146.068333 
L 159.079864 141.981799 
L 159.259987 146.69325 
L 159.44011 144.258058 
L 159.620233 139.844993 
L 159.800357 146.275397 
L 159.98048 147.544274 
L 160.160603 141.798647 
L 160.52085 138.991887 
L 160.881096 144.851107 
L 161.06122 143.868218 
L 161.60159 138.823741 
L 161.781713 141.435204 
L 162.322083 103.467778 
L 162.502206 97.803539 
L 162.682329 103.225062 
L 163.222699 135.164464 
L 163.402823 133.397491 
L 163.582946 137.994955 
L 163.763069 137.668875 
L 163.943192 135.164464 
L 164.123316 134.565474 
L 164.303439 137.345815 
L 164.843809 131.8528 
L 165.023932 127.712807 
L 165.204055 129.980843 
L 165.564302 128.452558 
L 166.104672 114.555885 
L 166.284795 108.083257 
L 166.464919 108.856285 
L 166.825165 112.682679 
L 167.005288 118.728175 
L 167.185412 116.535395 
L 167.365535 118.446421 
L 167.545658 115.231746 
L 167.725782 115.402778 
L 167.905905 111.436466 
L 168.266151 113.566024 
L 168.446275 111.055979 
L 168.626398 112.524446 
L 168.806521 106.98857 
L 168.986645 110.829663 
L 169.166768 107.806348 
L 169.346891 111.207676 
L 169.527015 109.9388 
L 169.707138 113.161729 
L 169.887261 114.222801 
L 170.067384 111.898595 
L 170.247508 114.555885 
L 170.427631 110.307233 
L 170.607754 116.008076 
L 170.787878 116.891421 
L 170.968001 116.891421 
L 171.508371 124.676958 
L 171.688494 119.684132 
L 171.868617 124.23249 
L 172.048741 125.929271 
L 172.408987 126.161874 
L 172.589111 131.443125 
L 172.769234 127.348732 
L 172.949357 130.111274 
L 173.12948 126.988416 
L 173.309604 135.164464 
L 173.489727 137.668875 
L 173.66985 137.345815 
L 173.849974 133.976595 
L 174.030097 133.254204 
L 174.21022 140.367051 
L 174.390343 138.656402 
L 174.570467 139.844993 
L 174.75059 138.656402 
L 174.930713 136.238095 
L 175.110837 137.668875 
L 175.29096 142.724173 
L 175.471083 137.831534 
L 175.651207 143.482686 
L 175.83133 142.537093 
L 176.191576 137.668875 
L 176.551823 146.068333 
L 176.731946 147.116167 
L 176.91207 144.062593 
L 177.452439 147.544274 
L 177.632563 145.86249 
L 177.992809 146.69325 
L 178.172933 146.69325 
L 178.353056 151.412299 
L 178.713303 142.724173 
L 178.893426 147.544274 
L 179.073549 148.638102 
L 179.253672 143.482686 
L 179.433796 146.904068 
L 179.613919 153.392419 
L 179.794042 147.329564 
L 179.974166 154.954931 
L 180.154289 149.085419 
L 180.334412 147.760314 
L 180.694659 152.141739 
L 180.874782 152.886755 
L 181.235029 150.462845 
L 181.415152 152.636644 
L 181.775399 148.416576 
L 181.955522 156.590712 
L 182.135645 149.767335 
L 182.315768 150.229465 
L 182.495892 151.172502 
L 182.676015 149.997635 
L 183.036262 155.491715 
L 183.216385 151.412299 
L 183.396508 156.036886 
L 183.576631 147.116167 
L 183.756755 152.388314 
L 184.117001 154.954931 
L 184.297125 152.141739 
L 184.477248 153.648027 
L 184.837495 149.538546 
L 185.017618 154.954931 
L 185.197741 153.392419 
L 185.377864 150.229465 
L 185.557988 155.491715 
L 185.738111 151.896894 
L 185.918234 153.392419 
L 186.098358 153.648027 
L 186.278481 148.416576 
L 186.458604 152.886755 
L 186.638727 153.138671 
L 186.998974 161.691058 
L 187.179097 152.886755 
L 187.359221 149.767335 
L 187.539344 163.68533 
L 187.719467 149.311247 
L 187.89959 149.997635 
L 188.079714 152.388314 
L 188.259837 152.141739 
L 188.620084 157.15347 
L 188.800207 153.905521 
L 189.160454 110.455702 
L 189.340577 100.604879 
L 189.5207 100.158991 
L 189.700823 109.285269 
L 190.241193 157.15347 
L 190.421317 153.905521 
L 190.60144 158.015002 
L 190.781563 153.905521 
L 190.961686 160.112043 
L 191.14181 161.369486 
L 191.321933 156.590712 
L 191.502056 156.3127 
L 191.68218 154.426281 
L 191.862303 151.172502 
L 192.042426 153.138671 
L 192.22255 149.767335 
L 192.402673 158.015002 
L 192.582796 158.015002 
L 192.943043 153.138671 
L 193.123166 153.138671 
L 193.303289 156.870956 
L 193.483413 151.412299 
L 193.663536 157.15347 
L 193.843659 158.898347 
L 194.023782 155.491715 
L 194.203906 159.197836 
L 194.384029 147.977699 
L 194.564152 161.050851 
L 194.744276 161.369486 
L 195.104522 151.412299 
L 195.284646 156.3127 
L 195.464769 164.376248 
L 195.644892 163.007828 
L 196.005139 149.085419 
L 196.545509 155.763236 
L 196.725632 155.763236 
L 196.905755 159.499918 
L 197.085878 154.164929 
L 197.266002 156.590712 
L 197.446125 149.767335 
L 197.806372 162.343231 
L 197.986495 154.164929 
L 198.166618 156.3127 
L 198.346742 163.007828 
L 198.526865 154.689605 
L 198.706988 163.344934 
L 198.887111 151.172502 
L 199.067235 157.15347 
L 199.247358 152.141739 
L 199.427481 158.898347 
L 199.607605 159.197836 
L 199.787728 159.197836 
L 199.967851 154.954931 
L 200.147974 155.222291 
L 200.328098 155.763236 
L 200.508221 164.376248 
L 200.868468 154.689605 
L 201.048591 157.15347 
L 201.228714 151.896894 
L 201.408838 153.648027 
L 201.588961 161.369486 
L 201.769084 159.804638 
L 201.949207 161.050851 
L 202.309454 156.036886 
L 202.489577 161.369486 
L 202.669701 155.763236 
L 202.849824 162.343231 
L 203.21007 160.112043 
L 203.390194 162.015621 
L 203.570317 155.222291 
L 203.75044 163.68533 
L 203.930564 164.726907 
L 204.110687 162.343231 
L 204.29081 157.15347 
L 204.470934 161.691058 
L 204.651057 156.3127 
L 205.011303 167.285455 
L 205.191427 159.197836 
L 205.37155 156.590712 
L 205.551673 156.3127 
L 205.731797 154.954931 
L 205.91192 159.804638 
L 206.092043 153.905521 
L 206.45229 158.306972 
L 206.632413 153.648027 
L 206.812536 160.422181 
L 207.172783 134.122886 
L 207.53303 102.036181 
L 207.713153 102.685047 
L 207.893276 107.259039 
L 208.613769 160.7351 
L 209.154139 154.689605 
L 209.694509 160.422181 
L 210.054756 150.229465 
L 210.234879 162.015621 
L 210.415002 154.689605 
L 210.595126 158.306972 
L 210.775249 154.426281 
L 210.955372 153.905521 
L 211.135495 165.081126 
L 211.315619 156.3127 
L 211.495742 158.601406 
L 211.675865 158.601406 
L 211.855989 161.369486 
L 212.216235 154.689605 
L 212.396358 156.3127 
L 212.576482 155.222291 
L 212.936728 158.601406 
L 213.116852 160.422181 
L 213.296975 151.172502 
L 213.477098 153.648027 
L 213.657221 158.015002 
L 213.837345 153.648027 
L 214.017468 155.491715 
L 214.197591 158.898347 
L 214.377715 155.763236 
L 214.557838 163.344934 
L 214.737961 154.164929 
L 215.098208 162.343231 
L 215.278331 159.499918 
L 215.458454 162.015621 
L 215.638578 154.164929 
L 215.818701 153.905521 
L 215.998824 152.388314 
L 216.178948 157.725454 
L 216.359071 158.898347 
L 216.719317 154.426281 
L 216.899441 158.601406 
L 217.079564 147.760314 
L 217.259687 156.590712 
L 217.439811 156.036886 
L 217.619934 156.870956 
L 217.800057 155.222291 
L 217.980181 152.388314 
L 218.160304 155.491715 
L 218.340427 154.426281 
L 218.700674 158.601406 
L 218.880797 152.388314 
L 219.06092 152.636644 
L 219.241044 158.015002 
L 219.421167 153.905521 
L 219.60129 154.426281 
L 219.961537 150.697798 
L 220.14166 146.904068 
L 220.321783 146.69325 
L 220.501907 134.863684 
L 220.68203 135.013749 
L 220.862153 140.719481 
L 221.042277 150.229465 
L 221.2224 152.388314 
L 221.402523 149.538546 
L 221.582646 151.896894 
L 221.76277 148.196447 
L 221.942893 154.426281 
L 222.123016 151.896894 
L 222.30314 157.725454 
L 222.483263 158.015002 
L 222.663386 158.601406 
L 222.843509 155.763236 
L 223.023633 158.601406 
L 223.203756 148.861044 
L 223.383879 156.036886 
L 223.564003 155.491715 
L 223.744126 146.068333 
L 224.104373 151.653755 
L 224.464619 157.43829 
L 224.644742 145.051052 
L 225.004989 152.636644 
L 225.185112 148.638102 
L 225.365236 148.196447 
L 225.545359 149.085419 
L 225.725482 149.311247 
L 225.905605 149.085419 
L 226.085729 141.798647 
L 226.445975 152.886755 
L 226.626099 152.886755 
L 226.806222 148.861044 
L 226.986345 156.036886 
L 227.166469 150.934343 
L 227.346592 151.172502 
L 227.526715 152.886755 
L 227.706838 151.896894 
L 227.886962 147.329564 
L 228.067085 152.886755 
L 228.247208 147.977699 
L 228.427332 150.934343 
L 228.607455 148.638102 
L 228.787578 150.229465 
L 228.967701 150.229465 
L 229.147825 150.697798 
L 229.327948 153.138671 
L 229.688195 145.051052 
L 229.868318 140.89704 
L 230.228565 123.902816 
L 230.408688 124.012361 
L 230.768934 132.546466 
L 230.949058 147.760314 
L 231.129181 149.997635 
L 231.309304 148.638102 
L 231.489428 152.141739 
L 231.669551 147.760314 
L 231.849674 146.69325 
L 232.029797 146.69325 
L 232.209921 153.905521 
L 232.390044 152.886755 
L 232.570167 150.934343 
L 232.750291 146.068333 
L 232.930414 153.138671 
L 233.110537 145.051052 
L 233.290661 152.141739 
L 233.470784 150.934343 
L 233.650907 144.851107 
L 233.83103 147.329564 
L 234.011154 155.222291 
L 234.191277 149.538546 
L 234.3714 154.164929 
L 234.551524 149.997635 
L 234.91177 148.196447 
L 235.091893 151.896894 
L 235.45214 141.616452 
L 235.632263 147.116167 
L 235.812387 146.69325 
L 235.99251 148.196447 
L 236.352757 143.101368 
L 236.53288 146.068333 
L 236.713003 140.719481 
L 236.893126 148.196447 
L 237.07325 146.483698 
L 237.253373 146.69325 
L 237.433496 142.724173 
L 237.61362 147.977699 
L 237.793743 142.537093 
L 237.973866 140.89704 
L 238.153989 144.851107 
L 238.334113 141.616452 
L 238.514236 150.697798 
L 238.694359 141.435204 
L 238.874483 148.196447 
L 239.054606 148.638102 
L 239.414852 146.275397 
L 239.594976 146.068333 
L 239.775099 148.638102 
L 239.955222 148.638102 
L 240.135346 145.051052 
L 240.495592 149.538546 
L 240.675716 148.861044 
L 240.855839 143.101368 
L 241.035962 146.068333 
L 241.216085 143.101368 
L 241.396209 147.116167 
L 241.576332 144.062593 
L 241.756455 143.67492 
L 241.936579 149.997635 
L 242.296825 144.258058 
L 242.476948 145.454412 
L 242.657072 143.67492 
L 242.837195 147.977699 
L 243.017318 144.652302 
L 243.197442 138.656402 
L 243.377565 145.252149 
L 243.557688 139.672695 
L 243.737812 145.252149 
L 243.917935 137.1854 
L 244.098058 144.258058 
L 244.278181 141.254892 
L 244.458305 136.082681 
L 244.638428 147.760314 
L 244.818551 146.275397 
L 244.998675 147.329564 
L 245.358921 143.67492 
L 245.539044 147.116167 
L 245.719168 145.252149 
L 245.899291 147.329564 
L 246.079414 145.454412 
L 246.259538 150.697798 
L 246.439661 144.652302 
L 246.619784 145.86249 
L 246.799908 148.196447 
L 246.980031 146.275397 
L 247.160154 142.724173 
L 247.700524 151.653755 
L 248.060771 145.252149 
L 248.240894 151.172502 
L 248.60114 143.482686 
L 248.781264 148.861044 
L 248.961387 141.435204 
L 249.321634 147.760314 
L 249.501757 143.482686 
L 249.68188 142.351011 
L 249.862004 143.101368 
L 250.042127 146.275397 
L 250.22225 146.275397 
L 250.402373 152.388314 
L 250.582497 144.652302 
L 250.76262 146.69325 
L 250.942743 147.116167 
L 251.122867 147.977699 
L 251.30299 146.275397 
L 251.483113 152.388314 
L 251.663236 149.538546 
L 251.84336 149.767335 
L 252.203606 146.068333 
L 252.563853 132.267343 
L 252.743976 125.35446 
L 252.9241 133.976595 
L 253.104223 136.394204 
L 253.464469 148.416576 
L 253.644593 148.861044 
L 253.824716 151.653755 
L 254.004839 148.638102 
L 254.184963 151.172502 
L 254.365086 151.172502 
L 254.545209 145.86249 
L 254.725332 152.886755 
L 254.905456 152.636644 
L 255.085579 150.697798 
L 255.265702 152.636644 
L 255.445826 149.767335 
L 255.625949 154.954931 
L 255.986196 149.311247 
L 256.166319 152.141739 
L 256.346442 151.412299 
L 256.526565 151.172502 
L 256.706689 150.462845 
L 256.886812 143.868218 
L 257.066935 162.015621 
L 257.247059 150.229465 
L 257.427182 151.172502 
L 257.607305 147.977699 
L 257.787428 151.896894 
L 258.147675 149.538546 
L 258.327798 150.934343 
L 258.507922 147.760314 
L 258.868168 132.546466 
L 259.048292 132.406625 
L 259.408538 137.506971 
L 259.768785 149.311247 
L 259.948908 149.767335 
L 260.129031 153.138671 
L 260.309155 159.804638 
L 260.669401 150.697798 
L 261.029648 156.036886 
L 261.209771 152.388314 
L 261.389894 152.141739 
L 261.570018 156.870956 
L 261.750141 153.648027 
L 261.930264 155.763236 
L 262.290511 154.426281 
L 262.470634 152.636644 
L 262.650757 152.388314 
L 262.830881 149.767335 
L 263.011004 151.896894 
L 263.551374 146.068333 
L 263.91162 148.196447 
L 264.091744 151.653755 
L 264.271867 152.886755 
L 264.45199 150.462845 
L 264.812237 153.905521 
L 265.172483 151.412299 
L 265.352607 160.7351 
L 265.53273 153.648027 
L 265.712853 153.648027 
L 265.892977 149.085419 
L 266.0731 150.229465 
L 266.253223 152.388314 
L 266.433347 157.15347 
L 266.61347 150.462845 
L 266.973716 157.15347 
L 267.15384 154.689605 
L 267.333963 154.689605 
L 267.514086 158.601406 
L 268.054456 150.934343 
L 268.234579 154.164929 
L 268.414703 153.138671 
L 268.594826 156.036886 
L 268.774949 155.763236 
L 268.955073 153.905521 
L 269.135196 160.422181 
L 269.315319 154.164929 
L 269.675566 159.804638 
L 270.035812 150.462845 
L 270.215936 152.141739 
L 270.396059 148.416576 
L 270.576182 155.491715 
L 270.756306 148.416576 
L 270.936429 149.538546 
L 271.116552 153.648027 
L 271.296675 152.141739 
L 271.476799 149.085419 
L 271.656922 155.763236 
L 271.837045 156.3127 
L 272.017169 152.388314 
L 272.197292 155.763236 
L 272.377415 153.648027 
L 272.737662 155.222291 
L 272.917785 149.311247 
L 273.097908 154.689605 
L 273.278032 155.763236 
L 273.458155 149.085419 
L 273.638278 154.164929 
L 273.818402 154.689605 
L 273.998525 160.112043 
L 274.178648 154.426281 
L 274.358771 157.725454 
L 274.538895 156.590712 
L 274.719018 158.601406 
L 275.259388 146.068333 
L 275.439511 157.43829 
L 275.619635 152.636644 
L 275.979881 155.763236 
L 276.160004 151.172502 
L 276.340128 154.689605 
L 276.520251 160.422181 
L 276.700374 150.697798 
L 277.060621 160.7351 
L 277.240744 157.725454 
L 277.420867 152.636644 
L 277.600991 153.392419 
L 277.781114 151.172502 
L 277.961237 150.934343 
L 278.141361 154.954931 
L 278.321484 154.689605 
L 278.501607 154.164929 
L 278.681731 152.886755 
L 278.861854 153.138671 
L 279.041977 150.934343 
L 279.2221 156.590712 
L 279.402224 151.412299 
L 279.76247 153.905521 
L 279.942594 153.648027 
L 280.122717 150.229465 
L 280.30284 158.601406 
L 280.482963 152.886755 
L 280.663087 155.222291 
L 280.84321 150.462845 
L 281.023333 157.15347 
L 281.743827 149.997635 
L 281.92395 153.905521 
L 282.104073 148.861044 
L 282.46432 156.3127 
L 282.644443 146.068333 
L 283.00469 154.164929 
L 283.184813 148.638102 
L 283.545059 154.954931 
L 283.725183 156.3127 
L 283.905306 153.392419 
L 284.085429 163.007828 
L 284.265553 151.172502 
L 284.445676 149.311247 
L 284.625799 153.138671 
L 284.805923 153.138671 
L 285.166169 148.196447 
L 285.346292 156.3127 
L 285.526416 149.311247 
L 285.706539 152.636644 
L 285.886662 152.636644 
L 286.066786 154.426281 
L 286.246909 150.697798 
L 286.607155 149.997635 
L 286.787279 149.997635 
L 286.967402 153.648027 
L 287.147525 152.636644 
L 287.327649 153.905521 
L 287.507772 156.870956 
L 287.687895 147.977699 
L 287.868018 145.051052 
L 288.048142 153.648027 
L 288.408388 147.544274 
L 288.588512 154.689605 
L 288.768635 152.886755 
L 288.948758 149.538546 
L 289.128882 150.697798 
L 289.309005 150.934343 
L 289.669251 147.116167 
L 289.849375 154.954931 
L 290.029498 149.997635 
L 290.209621 152.141739 
L 290.389745 151.172502 
L 290.569868 147.977699 
L 290.930114 151.896894 
L 291.110238 150.697798 
L 291.290361 151.653755 
L 291.470484 147.544274 
L 291.650608 151.172502 
L 291.830731 145.86249 
L 292.010854 146.904068 
L 292.190978 149.997635 
L 292.371101 149.085419 
L 292.551224 143.291506 
L 292.731347 142.912261 
L 292.911471 148.638102 
L 293.091594 147.544274 
L 293.271717 150.229465 
L 293.631964 143.868218 
L 293.812087 148.638102 
L 293.99221 149.538546 
L 294.172334 151.896894 
L 294.352457 144.062593 
L 294.53258 141.798647 
L 294.892827 68.233701 
L 295.253074 44.316804 
L 295.433197 49.578014 
L 295.61332 63.998755 
L 295.793443 91.563289 
L 295.973567 139.501243 
L 296.333813 148.416576 
L 296.513937 150.697798 
L 296.69406 144.851107 
L 296.874183 145.454412 
L 297.054306 145.051052 
L 297.23443 147.116167 
L 297.414553 147.544274 
L 297.7748 151.412299 
L 297.954923 146.275397 
L 298.135046 149.997635 
L 298.31517 145.657855 
L 298.495293 147.760314 
L 298.675416 146.904068 
L 298.855539 142.165917 
L 299.215786 147.116167 
L 299.395909 144.851107 
L 299.936279 151.172502 
L 300.116402 147.977699 
L 300.296526 149.085419 
L 300.476649 150.934343 
L 300.656772 148.196447 
L 300.836896 148.638102 
L 301.017019 143.67492 
L 301.377266 148.416576 
L 301.557389 144.652302 
L 301.737512 146.69325 
L 301.917635 152.388314 
L 302.097759 147.116167 
L 302.277882 150.229465 
L 302.638129 139.501243 
L 302.998375 150.697798 
L 303.358622 144.062593 
L 303.538745 147.329564 
L 303.718868 146.068333 
L 303.898992 148.638102 
L 304.079115 140.89704 
L 304.259238 147.544274 
L 304.439362 144.258058 
L 304.619485 149.767335 
L 304.799608 142.724173 
L 304.979731 144.851107 
L 305.159855 145.454412 
L 305.339978 143.291506 
L 305.520101 143.67492 
L 305.700225 147.977699 
L 306.060471 141.616452 
L 306.240594 147.116167 
L 306.420718 142.351011 
L 306.600841 143.101368 
L 306.780964 144.652302 
L 306.961088 141.798647 
L 307.141211 140.719481 
L 307.321334 141.254892 
L 307.501458 146.068333 
L 307.681581 145.657855 
L 307.861704 142.165917 
L 308.041827 142.165917 
L 308.221951 141.075507 
L 308.582197 144.454623 
L 308.942444 141.616452 
L 309.122567 144.062593 
L 309.30269 144.062593 
L 309.482814 147.329564 
L 309.662937 141.254892 
L 309.84306 141.616452 
L 310.023184 145.252149 
L 310.203307 142.537093 
L 310.38343 142.912261 
L 310.563554 142.724173 
L 310.743677 140.367051 
L 310.9238 140.018146 
L 311.103923 140.192162 
L 311.284047 138.991887 
L 311.46417 144.062593 
L 311.644293 137.345815 
L 311.824417 139.330631 
L 312.00454 138.823741 
L 312.184663 144.258058 
L 312.54491 140.367051 
L 312.725033 144.258058 
L 312.905156 138.823741 
L 313.08528 137.506971 
L 313.265403 138.823741 
L 313.445526 145.252149 
L 313.805773 138.159145 
L 313.985896 138.656402 
L 314.166019 145.454412 
L 314.346143 141.435204 
L 314.526266 141.616452 
L 314.706389 139.330631 
L 315.066636 142.537093 
L 315.246759 141.435204 
L 315.426882 136.394204 
L 315.607006 137.345815 
L 315.787129 139.672695 
L 316.147376 136.708532 
L 316.327499 139.160848 
L 316.507622 139.501243 
L 316.687745 143.868218 
L 316.867869 137.345815 
L 317.047992 137.345815 
L 317.228115 141.616452 
L 317.408239 140.018146 
L 317.588362 136.394204 
L 317.948609 143.868218 
L 318.128732 136.394204 
L 318.308855 139.330631 
L 318.488978 139.501243 
L 318.669102 141.075507 
L 318.849225 136.708532 
L 319.029348 138.656402 
L 319.209472 139.160848 
L 319.389595 138.489861 
L 319.569718 143.291506 
L 319.749841 137.345815 
L 319.929965 137.345815 
L 320.110088 140.018146 
L 320.290211 140.018146 
L 320.650458 131.715707 
L 320.830581 134.41732 
L 321.010705 135.315832 
L 321.190828 135.467859 
L 321.551074 133.397491 
L 321.731198 135.620552 
L 322.091444 136.866765 
L 322.271568 135.315832 
L 322.451691 140.542821 
L 322.631814 135.620552 
L 322.811937 141.798647 
L 322.992061 135.467859 
L 323.172184 140.018146 
L 323.352307 136.394204 
L 323.532431 135.927957 
L 323.712554 137.345815 
L 323.892677 134.565474 
L 324.252924 136.238095 
L 324.433047 135.773916 
L 324.61317 133.397491 
L 324.793294 133.685841 
L 324.973417 137.994955 
L 325.333664 133.254204 
L 325.513787 136.708532 
L 326.054157 131.715707 
L 326.23428 136.394204 
L 326.414403 131.990434 
L 326.594527 136.866765 
L 326.77465 133.541368 
L 326.954773 138.991887 
L 327.134897 134.41732 
L 327.31502 136.551014 
L 327.495143 136.551014 
L 327.675266 133.111503 
L 327.85539 137.668875 
L 328.215636 132.406625 
L 328.39576 135.773916 
L 328.575883 131.990434 
L 328.936129 134.71426 
L 329.116253 134.122886 
L 329.296376 137.025719 
L 329.656623 133.976595 
L 329.836746 130.111274 
L 330.016869 135.773916 
L 330.196993 134.863684 
L 330.377116 136.394204 
L 330.557239 128.452558 
L 330.917486 132.827841 
L 331.277732 132.128614 
L 331.457856 133.254204 
L 331.637979 132.406625 
L 331.818102 128.452558 
L 331.998225 138.823741 
L 332.178349 132.68687 
L 332.358472 138.489861 
L 332.538595 130.904269 
L 332.718719 128.954585 
L 332.898842 130.637929 
L 333.078965 128.577389 
L 333.259089 128.328172 
L 333.439212 122.932081 
L 333.619335 126.750256 
L 333.799458 127.712807 
L 333.979582 130.242194 
L 334.159705 137.025719 
L 334.339828 132.827841 
L 334.519952 136.708532 
L 334.700075 134.41732 
L 334.880198 129.850898 
L 335.060321 131.038205 
L 335.240445 135.927957 
L 335.600691 130.373608 
L 335.600691 130.373608 
" clip-path="url(#p0218d38986)" style="fill: none; stroke: #1f77b4; stroke-width: 1.5; stroke-linecap: square"/>
   </g>
   <g id="patch_3">
    <path d="M 50.015209 174.04 
L 50.015209 25.44 
" style="fill: none; stroke: #000000; stroke-width: 0.8; stroke-linejoin: miter; stroke-linecap: square"/>
   </g>
   <g id="patch_4">
    <path d="M 349.2 174.04 
L 349.2 25.44 
" style="fill: none; stroke: #000000; stroke-width: 0.8; stroke-linejoin: miter; stroke-linecap: square"/>
   </g>
   <g id="patch_5">
    <path d="M 50.015209 174.04 
L 349.2 174.04 
" style="fill: none; stroke: #000000; stroke-width: 0.8; stroke-linejoin: miter; stroke-linecap: square"/>
   </g>
   <g id="patch_6">
    <path d="M 50.015209 25.44 
L 349.2 25.44 
" style="fill: none; stroke: #000000; stroke-width: 0.8; stroke-linejoin: miter; stroke-linecap: square"/>
   </g>
   <g id="text_12">
    <!-- XRD Diffractogram -->
    <g transform="translate(143.027605 19.44)scale(0.12 -0.12)">
     <defs>
      <path id="DejaVuSans-58" d="M 403 4666 
L 1081 4666 
L 2241 2931 
L 3406 4666 
L 4084 4666 
L 2584 2425 
L 4184 0 
L 3506 0 
L 2194 1984 
L 872 0 
L 191 0 
L 1856 2491 
L 403 4666 
z
" transform="scale(0.015625)"/>
      <path id="DejaVuSans-52" d="M 2841 2188 
Q 3044 2119 3236 1894 
Q 3428 1669 3622 1275 
L 4263 0 
L 3584 0 
L 2988 1197 
Q 2756 1666 2539 1819 
Q 2322 1972 1947 1972 
L 1259 1972 
L 1259 0 
L 628 0 
L 628 4666 
L 2053 4666 
Q 2853 4666 3247 4331 
Q 3641 3997 3641 3322 
Q 3641 2881 3436 2590 
Q 3231 2300 2841 2188 
z
M 1259 4147 
L 1259 2491 
L 2053 2491 
Q 2509 2491 2742 2702 
Q 2975 2913 2975 3322 
Q 2975 3731 2742 3939 
Q 2509 4147 2053 4147 
L 1259 4147 
z
" transform="scale(0.015625)"/>
      <path id="DejaVuSans-44" d="M 1259 4147 
L 1259 519 
L 2022 519 
Q 2988 519 3436 956 
Q 3884 1394 3884 2338 
Q 3884 3275 3436 3711 
Q 2988 4147 2022 4147 
L 1259 4147 
z
M 628 4666 
L 1925 4666 
Q 3281 4666 3915 4102 
Q 4550 3538 4550 2338 
Q 4550 1131 3912 565 
Q 3275 0 1925 0 
L 628 0 
L 628 4666 
z
" transform="scale(0.015625)"/>
      <path id="DejaVuSans-66" d="M 2375 4863 
L 2375 4384 
L 1825 4384 
Q 1516 4384 1395 4259 
Q 1275 4134 1275 3809 
L 1275 3500 
L 2222 3500 
L 2222 3053 
L 1275 3053 
L 1275 0 
L 697 0 
L 697 3053 
L 147 3053 
L 147 3500 
L 697 3500 
L 697 3744 
Q 697 4328 969 4595 
Q 1241 4863 1831 4863 
L 2375 4863 
z
" transform="scale(0.015625)"/>
      <path id="DejaVuSans-72" d="M 2631 2963 
Q 2534 3019 2420 3045 
Q 2306 3072 2169 3072 
Q 1681 3072 1420 2755 
Q 1159 2438 1159 1844 
L 1159 0 
L 581 0 
L 581 3500 
L 1159 3500 
L 1159 2956 
Q 1341 3275 1631 3429 
Q 1922 3584 2338 3584 
Q 2397 3584 2469 3576 
Q 2541 3569 2628 3553 
L 2631 2963 
z
" transform="scale(0.015625)"/>
      <path id="DejaVuSans-61" d="M 2194 1759 
Q 1497 1759 1228 1600 
Q 959 1441 959 1056 
Q 959 750 1161 570 
Q 1363 391 1709 391 
Q 2188 391 2477 730 
Q 2766 1069 2766 1631 
L 2766 1759 
L 2194 1759 
z
M 3341 1997 
L 3341 0 
L 2766 0 
L 2766 531 
Q 2569 213 2275 61 
Q 1981 -91 1556 -91 
Q 1019 -91 701 211 
Q 384 513 384 1019 
Q 384 1609 779 1909 
Q 1175 2209 1959 2209 
L 2766 2209 
L 2766 2266 
Q 2766 2663 2505 2880 
Q 2244 3097 1772 3097 
Q 1472 3097 1187 3025 
Q 903 2953 641 2809 
L 641 3341 
Q 956 3463 1253 3523 
Q 1550 3584 1831 3584 
Q 2591 3584 2966 3190 
Q 3341 2797 3341 1997 
z
" transform="scale(0.015625)"/>
      <path id="DejaVuSans-6d" d="M 3328 2828 
Q 3544 3216 3844 3400 
Q 4144 3584 4550 3584 
Q 5097 3584 5394 3201 
Q 5691 2819 5691 2113 
L 5691 0 
L 5113 0 
L 5113 2094 
Q 5113 2597 4934 2840 
Q 4756 3084 4391 3084 
Q 3944 3084 3684 2787 
Q 3425 2491 3425 1978 
L 3425 0 
L 2847 0 
L 2847 2094 
Q 2847 2600 2669 2842 
Q 2491 3084 2119 3084 
Q 1678 3084 1418 2786 
Q 1159 2488 1159 1978 
L 1159 0 
L 581 0 
L 581 3500 
L 1159 3500 
L 1159 2956 
Q 1356 3278 1631 3431 
Q 1906 3584 2284 3584 
Q 2666 3584 2933 3390 
Q 3200 3197 3328 2828 
z
" transform="scale(0.015625)"/>
     </defs>
     <use xlink:href="#DejaVuSans-58"/>
     <use xlink:href="#DejaVuSans-52" x="68.505859"/>
     <use xlink:href="#DejaVuSans-44" x="137.988281"/>
     <use xlink:href="#DejaVuSans-20" x="214.990234"/>
     <use xlink:href="#DejaVuSans-44" x="246.777344"/>
     <use xlink:href="#DejaVuSans-69" x="323.779297"/>
     <use xlink:href="#DejaVuSans-66" x="351.5625"/>
     <use xlink:href="#DejaVuSans-66" x="386.767578"/>
     <use xlink:href="#DejaVuSans-72" x="421.972656"/>
     <use xlink:href="#DejaVuSans-61" x="463.085938"/>
     <use xlink:href="#DejaVuSans-63" x="524.365234"/>
     <use xlink:href="#DejaVuSans-74" x="579.345703"/>
     <use xlink:href="#DejaVuSans-6f" x="618.554688"/>
     <use xlink:href="#DejaVuSans-67" x="679.736328"/>
     <use xlink:href="#DejaVuSans-72" x="743.212891"/>
     <use xlink:href="#DejaVuSans-61" x="784.326172"/>
     <use xlink:href="#DejaVuSans-6d" x="845.605469"/>
    </g>
   </g>
  </g>
 </g>
 <defs>
  <clipPath id="p0218d38986">
   <rect x="50.015209" y="25.44" width="299.184791" height="148.6"/>
  </clipPath>
 </defs>
</svg>
