<?xml version="1.0" encoding="utf-8" standalone="no"?>
<!DOCTYPE svg PUBLIC "-//W3C//DTD SVG 1.1//EN"
  "http://www.w3.org/Graphics/SVG/1.1/DTD/svg11.dtd">
<svg xmlns:xlink="http://www.w3.org/1999/xlink" width="504pt" height="288pt" viewBox="0 0 504 288" xmlns="http://www.w3.org/2000/svg" version="1.1">
 <metadata>
  <rdf:RDF xmlns:dc="http://purl.org/dc/elements/1.1/" xmlns:cc="http://creativecommons.org/ns#" xmlns:rdf="http://www.w3.org/1999/02/22-rdf-syntax-ns#">
   <cc:Work>
    <dc:type rdf:resource="http://purl.org/dc/dcmitype/StillImage"/>
    <dc:date>2026-03-17T09:35:38.093314</dc:date>
    <dc:format>image/svg+xml</dc:format>
    <dc:creator>
     <cc:Agent>
      <dc:title>Matplotlib v3.5.2, https://matplotlib.org/</dc:title>
     </cc:Agent>
    </dc:creator>
   </cc:Work>
  </rdf:RDF>
 </metadata>
 <defs>
  <style type="text/css">*{stroke-linejoin: round; stroke-linecap: butt}</style>
 </defs>
 <g id="figure_1">
  <g id="patch_1">
   <path d="M 0 288 
L 504 288 
L 504 0 
L 0 0 
z
" style="fill: #ffffff"/>
  </g>
  <g id="axes_1">
   <g id="patch_2">
    <path d="M 63 256.32 
L 453.6 256.32 
L 453.6 34.56 
L 63 34.56 
z
" style="fill: #ffffff"/>
   </g>
   <g id="matplotlib.axis_1">
    <g id="xtick_1">
     <g id="line2d_1">
      <defs>
       <path id="m885772b4dd" d="M 0 0 
L 0 3.5 
" style="stroke: #000000; stroke-width: 0.8"/>
      </defs>
      <g>
       <use xlink:href="#m885772b4dd" x="80.644337" y="256.32" style="stroke: #000000; stroke-width: 0.8"/>
      </g>
     </g>
     <g id="text_1">
      <!-- 0 -->
      <g transform="translate(77.463087 270.918437)scale(0.1 -0.1)">
       <defs>
        <path id="DejaVuSans-30" d="M 2034 4250 
Q 1547 4250 1301 3770 
Q 1056 3291 1056 2328 
Q 1056 1369 1301 889 
Q 1547 409 2034 409 
Q 2525 409 2770 889 
Q 3016 1369 3016 2328 
Q 3016 3291 2770 3770 
Q 2525 4250 2034 4250 
z
M 2034 4750 
Q 2819 4750 3233 4129 
Q 3647 3509 3647 2328 
Q 3647 1150 3233 529 
Q 2819 -91 2034 -91 
Q 1250 -91 836 529 
Q 422 1150 422 2328 
Q 422 3509 836 4129 
Q 1250 4750 2034 4750 
z
" transform="scale(0.015625)"/>
       </defs>
       <use xlink:href="#DejaVuSans-30"/>
      </g>
     </g>
    </g>
    <g id="xtick_2">
     <g id="line2d_2">
      <g>
       <use xlink:href="#m885772b4dd" x="135.748451" y="256.32" style="stroke: #000000; stroke-width: 0.8"/>
      </g>
     </g>
     <g id="text_2">
      <!-- 20 -->
      <g transform="translate(129.385951 270.918437)scale(0.1 -0.1)">
       <defs>
        <path id="DejaVuSans-32" d="M 1228 531 
L 3431 531 
L 3431 0 
L 469 0 
L 469 531 
Q 828 903 1448 1529 
Q 2069 2156 2228 2338 
Q 2531 2678 2651 2914 
Q 2772 3150 2772 3378 
Q 2772 3750 2511 3984 
Q 2250 4219 1831 4219 
Q 1534 4219 1204 4116 
Q 875 4013 500 3803 
L 500 4441 
Q 881 4594 1212 4672 
Q 1544 4750 1819 4750 
Q 2544 4750 2975 4387 
Q 3406 4025 3406 3419 
Q 3406 3131 3298 2873 
Q 3191 2616 2906 2266 
Q 2828 2175 2409 1742 
Q 1991 1309 1228 531 
z
" transform="scale(0.015625)"/>
       </defs>
       <use xlink:href="#DejaVuSans-32"/>
       <use xlink:href="#DejaVuSans-30" x="63.623047"/>
      </g>
     </g>
    </g>
    <g id="xtick_3">
     <g id="line2d_3">
      <g>
       <use xlink:href="#m885772b4dd" x="190.852565" y="256.32" style="stroke: #000000; stroke-width: 0.8"/>
      </g>
     </g>
     <g id="text_3">
      <!-- 40 -->
      <g transform="translate(184.490065 270.918437)scale(0.1 -0.1)">
       <defs>
        <path id="DejaVuSans-34" d="M 2419 4116 
L 825 1625 
L 2419 1625 
L 2419 4116 
z
M 2253 4666 
L 3047 4666 
L 3047 1625 
L 3713 1625 
L 3713 1100 
L 3047 1100 
L 3047 0 
L 2419 0 
L 2419 1100 
L 313 1100 
L 313 1709 
L 2253 4666 
z
" transform="scale(0.015625)"/>
       </defs>
       <use xlink:href="#DejaVuSans-34"/>
       <use xlink:href="#DejaVuSans-30" x="63.623047"/>
      </g>
     </g>
    </g>
    <g id="xtick_4">
     <g id="line2d_4">
      <g>
       <use xlink:href="#m885772b4dd" x="245.956679" y="256.32" style="stroke: #000000; stroke-width: 0.8"/>
      </g>
     </g>
     <g id="text_4">
      <!-- 60 -->
      <g transform="translate(239.594179 270.918437)scale(0.1 -0.1)">
       <defs>
        <path id="DejaVuSans-36" d="M 2113 2584 
Q 1688 2584 1439 2293 
Q 1191 2003 1191 1497 
Q 1191 994 1439 701 
Q 1688 409 2113 409 
Q 2538 409 2786 701 
Q 3034 994 3034 1497 
Q 3034 2003 2786 2293 
Q 2538 2584 2113 2584 
z
M 3366 4563 
L 3366 3988 
Q 3128 4100 2886 4159 
Q 2644 4219 2406 4219 
Q 1781 4219 1451 3797 
Q 1122 3375 1075 2522 
Q 1259 2794 1537 2939 
Q 1816 3084 2150 3084 
Q 2853 3084 3261 2657 
Q 3669 2231 3669 1497 
Q 3669 778 3244 343 
Q 2819 -91 2113 -91 
Q 1303 -91 875 529 
Q 447 1150 447 2328 
Q 447 3434 972 4092 
Q 1497 4750 2381 4750 
Q 2619 4750 2861 4703 
Q 3103 4656 3366 4563 
z
" transform="scale(0.015625)"/>
       </defs>
       <use xlink:href="#DejaVuSans-36"/>
       <use xlink:href="#DejaVuSans-30" x="63.623047"/>
      </g>
     </g>
    </g>
    <g id="xtick_5">
     <g id="line2d_5">
      <g>
       <use xlink:href="#m885772b4dd" x="301.060792" y="256.32" style="stroke: #000000; stroke-width: 0.8"/>
      </g>
     </g>
     <g id="text_5">
      <!-- 80 -->
      <g transform="translate(294.698292 270.918437)scale(0.1 -0.1)">
       <defs>
        <path id="DejaVuSans-38" d="M 2034 2216 
Q 1584 2216 1326 1975 
Q 1069 1734 1069 1313 
Q 1069 891 1326 650 
Q 1584 409 2034 409 
Q 2484 409 2743 651 
Q 3003 894 3003 1313 
Q 3003 1734 2745 1975 
Q 2488 2216 2034 2216 
z
M 1403 2484 
Q 997 2584 770 2862 
Q 544 3141 544 3541 
Q 544 4100 942 4425 
Q 1341 4750 2034 4750 
Q 2731 4750 3128 4425 
Q 3525 4100 3525 3541 
Q 3525 3141 3298 2862 
Q 3072 2584 2669 2484 
Q 3125 2378 3379 2068 
Q 3634 1759 3634 1313 
Q 3634 634 3220 271 
Q 2806 -91 2034 -91 
Q 1263 -91 848 271 
Q 434 634 434 1313 
Q 434 1759 690 2068 
Q 947 2378 1403 2484 
z
M 1172 3481 
Q 1172 3119 1398 2916 
Q 1625 2713 2034 2713 
Q 2441 2713 2670 2916 
Q 2900 3119 2900 3481 
Q 2900 3844 2670 4047 
Q 2441 4250 2034 4250 
Q 1625 4250 1398 4047 
Q 1172 3844 1172 3481 
z
" transform="scale(0.015625)"/>
       </defs>
       <use xlink:href="#DejaVuSans-38"/>
       <use xlink:href="#DejaVuSans-30" x="63.623047"/>
      </g>
     </g>
    </g>
    <g id="xtick_6">
     <g id="line2d_6">
      <g>
       <use xlink:href="#m885772b4dd" x="356.164906" y="256.32" style="stroke: #000000; stroke-width: 0.8"/>
      </g>
     </g>
     <g id="text_6">
      <!-- 100 -->
      <g transform="translate(346.621156 270.918437)scale(0.1 -0.1)">
       <defs>
        <path id="DejaVuSans-31" d="M 794 531 
L 1825 531 
L 1825 4091 
L 703 3866 
L 703 4441 
L 1819 4666 
L 2450 4666 
L 2450 531 
L 3481 531 
L 3481 0 
L 794 0 
L 794 531 
z
" transform="scale(0.015625)"/>
       </defs>
       <use xlink:href="#DejaVuSans-31"/>
       <use xlink:href="#DejaVuSans-30" x="63.623047"/>
       <use xlink:href="#DejaVuSans-30" x="127.246094"/>
      </g>
     </g>
    </g>
    <g id="xtick_7">
     <g id="line2d_7">
      <g>
       <use xlink:href="#m885772b4dd" x="411.26902" y="256.32" style="stroke: #000000; stroke-width: 0.8"/>
      </g>
     </g>
     <g id="text_7">
      <!-- 120 -->
      <g transform="translate(401.72527 270.918437)scale(0.1 -0.1)">
       <use xlink:href="#DejaVuSans-31"/>
       <use xlink:href="#DejaVuSans-32" x="63.623047"/>
       <use xlink:href="#DejaVuSans-30" x="127.246094"/>
      </g>
     </g>
    </g>
    <g id="text_8">
     <!-- Angle (°) -->
     <g transform="translate(236.080469 284.596563)scale(0.1 -0.1)">
      <defs>
       <path id="DejaVuSans-41" d="M 2188 4044 
L 1331 1722 
L 3047 1722 
L 2188 4044 
z
M 1831 4666 
L 2547 4666 
L 4325 0 
L 3669 0 
L 3244 1197 
L 1141 1197 
L 716 0 
L 50 0 
L 1831 4666 
z
" transform="scale(0.015625)"/>
       <path id="DejaVuSans-6e" d="M 3513 2113 
L 3513 0 
L 2938 0 
L 2938 2094 
Q 2938 2591 2744 2837 
Q 2550 3084 2163 3084 
Q 1697 3084 1428 2787 
Q 1159 2491 1159 1978 
L 1159 0 
L 581 0 
L 581 3500 
L 1159 3500 
L 1159 2956 
Q 1366 3272 1645 3428 
Q 1925 3584 2291 3584 
Q 2894 3584 3203 3211 
Q 3513 2838 3513 2113 
z
" transform="scale(0.015625)"/>
       <path id="DejaVuSans-67" d="M 2906 1791 
Q 2906 2416 2648 2759 
Q 2391 3103 1925 3103 
Q 1463 3103 1205 2759 
Q 947 2416 947 1791 
Q 947 1169 1205 825 
Q 1463 481 1925 481 
Q 2391 481 2648 825 
Q 2906 1169 2906 1791 
z
M 3481 434 
Q 3481 -459 3084 -895 
Q 2688 -1331 1869 -1331 
Q 1566 -1331 1297 -1286 
Q 1028 -1241 775 -1147 
L 775 -588 
Q 1028 -725 1275 -790 
Q 1522 -856 1778 -856 
Q 2344 -856 2625 -561 
Q 2906 -266 2906 331 
L 2906 616 
Q 2728 306 2450 153 
Q 2172 0 1784 0 
Q 1141 0 747 490 
Q 353 981 353 1791 
Q 353 2603 747 3093 
Q 1141 3584 1784 3584 
Q 2172 3584 2450 3431 
Q 2728 3278 2906 2969 
L 2906 3500 
L 3481 3500 
L 3481 434 
z
" transform="scale(0.015625)"/>
       <path id="DejaVuSans-6c" d="M 603 4863 
L 1178 4863 
L 1178 0 
L 603 0 
L 603 4863 
z
" transform="scale(0.015625)"/>
       <path id="DejaVuSans-65" d="M 3597 1894 
L 3597 1613 
L 953 1613 
Q 991 1019 1311 708 
Q 1631 397 2203 397 
Q 2534 397 2845 478 
Q 3156 559 3463 722 
L 3463 178 
Q 3153 47 2828 -22 
Q 2503 -91 2169 -91 
Q 1331 -91 842 396 
Q 353 884 353 1716 
Q 353 2575 817 3079 
Q 1281 3584 2069 3584 
Q 2775 3584 3186 3129 
Q 3597 2675 3597 1894 
z
M 3022 2063 
Q 3016 2534 2758 2815 
Q 2500 3097 2075 3097 
Q 1594 3097 1305 2825 
Q 1016 2553 972 2059 
L 3022 2063 
z
" transform="scale(0.015625)"/>
       <path id="DejaVuSans-20" transform="scale(0.015625)"/>
       <path id="DejaVuSans-28" d="M 1984 4856 
Q 1566 4138 1362 3434 
Q 1159 2731 1159 2009 
Q 1159 1288 1364 580 
Q 1569 -128 1984 -844 
L 1484 -844 
Q 1016 -109 783 600 
Q 550 1309 550 2009 
Q 550 2706 781 3412 
Q 1013 4119 1484 4856 
L 1984 4856 
z
" transform="scale(0.015625)"/>
       <path id="DejaVuSans-b0" d="M 1600 4347 
Q 1350 4347 1178 4173 
Q 1006 4000 1006 3750 
Q 1006 3503 1178 3333 
Q 1350 3163 1600 3163 
Q 1850 3163 2022 3333 
Q 2194 3503 2194 3750 
Q 2194 3997 2020 4172 
Q 1847 4347 1600 4347 
z
M 1600 4750 
Q 1800 4750 1984 4673 
Q 2169 4597 2303 4453 
Q 2447 4313 2519 4134 
Q 2591 3956 2591 3750 
Q 2591 3338 2302 3052 
Q 2013 2766 1594 2766 
Q 1172 2766 890 3047 
Q 609 3328 609 3750 
Q 609 4169 896 4459 
Q 1184 4750 1600 4750 
z
" transform="scale(0.015625)"/>
       <path id="DejaVuSans-29" d="M 513 4856 
L 1013 4856 
Q 1481 4119 1714 3412 
Q 1947 2706 1947 2009 
Q 1947 1309 1714 600 
Q 1481 -109 1013 -844 
L 513 -844 
Q 928 -128 1133 580 
Q 1338 1288 1338 2009 
Q 1338 2731 1133 3434 
Q 928 4138 513 4856 
z
" transform="scale(0.015625)"/>
      </defs>
      <use xlink:href="#DejaVuSans-41"/>
      <use xlink:href="#DejaVuSans-6e" x="68.408203"/>
      <use xlink:href="#DejaVuSans-67" x="131.787109"/>
      <use xlink:href="#DejaVuSans-6c" x="195.263672"/>
      <use xlink:href="#DejaVuSans-65" x="223.046875"/>
      <use xlink:href="#DejaVuSans-20" x="284.570312"/>
      <use xlink:href="#DejaVuSans-28" x="316.357422"/>
      <use xlink:href="#DejaVuSans-b0" x="355.371094"/>
      <use xlink:href="#DejaVuSans-29" x="405.371094"/>
     </g>
    </g>
   </g>
   <g id="matplotlib.axis_2">
    <g id="ytick_1">
     <g id="line2d_8">
      <defs>
       <path id="m6805978aa6" d="M 0 0 
L -3.5 0 
" style="stroke: #000000; stroke-width: 0.8"/>
      </defs>
      <g>
       <use xlink:href="#m6805978aa6" x="63" y="233.126653" style="stroke: #000000; stroke-width: 0.8"/>
      </g>
     </g>
     <g id="text_9">
      <!-- $\mathdefault{10^{3}}$ -->
      <g transform="translate(38.4 236.925872)scale(0.1 -0.1)">
       <defs>
        <path id="DejaVuSans-33" d="M 2597 2516 
Q 3050 2419 3304 2112 
Q 3559 1806 3559 1356 
Q 3559 666 3084 287 
Q 2609 -91 1734 -91 
Q 1441 -91 1130 -33 
Q 819 25 488 141 
L 488 750 
Q 750 597 1062 519 
Q 1375 441 1716 441 
Q 2309 441 2620 675 
Q 2931 909 2931 1356 
Q 2931 1769 2642 2001 
Q 2353 2234 1838 2234 
L 1294 2234 
L 1294 2753 
L 1863 2753 
Q 2328 2753 2575 2939 
Q 2822 3125 2822 3475 
Q 2822 3834 2567 4026 
Q 2313 4219 1838 4219 
Q 1578 4219 1281 4162 
Q 984 4106 628 3988 
L 628 4550 
Q 988 4650 1302 4700 
Q 1616 4750 1894 4750 
Q 2613 4750 3031 4423 
Q 3450 4097 3450 3541 
Q 3450 3153 3228 2886 
Q 3006 2619 2597 2516 
z
" transform="scale(0.015625)"/>
       </defs>
       <use xlink:href="#DejaVuSans-31" transform="translate(0 0.765625)"/>
       <use xlink:href="#DejaVuSans-30" transform="translate(63.623047 0.765625)"/>
       <use xlink:href="#DejaVuSans-33" transform="translate(128.203125 39.046875)scale(0.7)"/>
      </g>
     </g>
    </g>
    <g id="ytick_2">
     <g id="line2d_9">
      <g>
       <use xlink:href="#m6805978aa6" x="63" y="180.728533" style="stroke: #000000; stroke-width: 0.8"/>
      </g>
     </g>
     <g id="text_10">
      <!-- $\mathdefault{10^{4}}$ -->
      <g transform="translate(38.4 184.527752)scale(0.1 -0.1)">
       <use xlink:href="#DejaVuSans-31" transform="translate(0 0.684375)"/>
       <use xlink:href="#DejaVuSans-30" transform="translate(63.623047 0.684375)"/>
       <use xlink:href="#DejaVuSans-34" transform="translate(128.203125 38.965625)scale(0.7)"/>
      </g>
     </g>
    </g>
    <g id="ytick_3">
     <g id="line2d_10">
      <g>
       <use xlink:href="#m6805978aa6" x="63" y="128.330413" style="stroke: #000000; stroke-width: 0.8"/>
      </g>
     </g>
     <g id="text_11">
      <!-- $\mathdefault{10^{5}}$ -->
      <g transform="translate(38.4 132.129632)scale(0.1 -0.1)">
       <defs>
        <path id="DejaVuSans-35" d="M 691 4666 
L 3169 4666 
L 3169 4134 
L 1269 4134 
L 1269 2991 
Q 1406 3038 1543 3061 
Q 1681 3084 1819 3084 
Q 2600 3084 3056 2656 
Q 3513 2228 3513 1497 
Q 3513 744 3044 326 
Q 2575 -91 1722 -91 
Q 1428 -91 1123 -41 
Q 819 9 494 109 
L 494 744 
Q 775 591 1075 516 
Q 1375 441 1709 441 
Q 2250 441 2565 725 
Q 2881 1009 2881 1497 
Q 2881 1984 2565 2268 
Q 2250 2553 1709 2553 
Q 1456 2553 1204 2497 
Q 953 2441 691 2322 
L 691 4666 
z
" transform="scale(0.015625)"/>
       </defs>
       <use xlink:href="#DejaVuSans-31" transform="translate(0 0.684375)"/>
       <use xlink:href="#DejaVuSans-30" transform="translate(63.623047 0.684375)"/>
       <use xlink:href="#DejaVuSans-35" transform="translate(128.203125 38.965625)scale(0.7)"/>
      </g>
     </g>
    </g>
    <g id="ytick_4">
     <g id="line2d_11">
      <g>
       <use xlink:href="#m6805978aa6" x="63" y="75.932293" style="stroke: #000000; stroke-width: 0.8"/>
      </g>
     </g>
     <g id="text_12">
      <!-- $\mathdefault{10^{6}}$ -->
      <g transform="translate(38.4 79.731512)scale(0.1 -0.1)">
       <use xlink:href="#DejaVuSans-31" transform="translate(0 0.765625)"/>
       <use xlink:href="#DejaVuSans-30" transform="translate(63.623047 0.765625)"/>
       <use xlink:href="#DejaVuSans-36" transform="translate(128.203125 39.046875)scale(0.7)"/>
      </g>
     </g>
    </g>
    <g id="ytick_5">
     <g id="line2d_12">
      <defs>
       <path id="mc497ad0056" d="M 0 0 
L -2 0 
" style="stroke: #000000; stroke-width: 0.6"/>
      </defs>
      <g>
       <use xlink:href="#mc497ad0056" x="63" y="253.977962" style="stroke: #000000; stroke-width: 0.6"/>
      </g>
     </g>
    </g>
    <g id="ytick_6">
     <g id="line2d_13">
      <g>
       <use xlink:href="#mc497ad0056" x="63" y="248.900059" style="stroke: #000000; stroke-width: 0.6"/>
      </g>
     </g>
    </g>
    <g id="ytick_7">
     <g id="line2d_14">
      <g>
       <use xlink:href="#mc497ad0056" x="63" y="244.751111" style="stroke: #000000; stroke-width: 0.6"/>
      </g>
     </g>
    </g>
    <g id="ytick_8">
     <g id="line2d_15">
      <g>
       <use xlink:href="#mc497ad0056" x="63" y="241.243225" style="stroke: #000000; stroke-width: 0.6"/>
      </g>
     </g>
    </g>
    <g id="ytick_9">
     <g id="line2d_16">
      <g>
       <use xlink:href="#mc497ad0056" x="63" y="238.204556" style="stroke: #000000; stroke-width: 0.6"/>
      </g>
     </g>
    </g>
    <g id="ytick_10">
     <g id="line2d_17">
      <g>
       <use xlink:href="#mc497ad0056" x="63" y="235.52426" style="stroke: #000000; stroke-width: 0.6"/>
      </g>
     </g>
    </g>
    <g id="ytick_11">
     <g id="line2d_18">
      <g>
       <use xlink:href="#mc497ad0056" x="63" y="217.353248" style="stroke: #000000; stroke-width: 0.6"/>
      </g>
     </g>
    </g>
    <g id="ytick_12">
     <g id="line2d_19">
      <g>
       <use xlink:href="#mc497ad0056" x="63" y="208.126397" style="stroke: #000000; stroke-width: 0.6"/>
      </g>
     </g>
    </g>
    <g id="ytick_13">
     <g id="line2d_20">
      <g>
       <use xlink:href="#mc497ad0056" x="63" y="201.579842" style="stroke: #000000; stroke-width: 0.6"/>
      </g>
     </g>
    </g>
    <g id="ytick_14">
     <g id="line2d_21">
      <g>
       <use xlink:href="#mc497ad0056" x="63" y="196.501939" style="stroke: #000000; stroke-width: 0.6"/>
      </g>
     </g>
    </g>
    <g id="ytick_15">
     <g id="line2d_22">
      <g>
       <use xlink:href="#mc497ad0056" x="63" y="192.352991" style="stroke: #000000; stroke-width: 0.6"/>
      </g>
     </g>
    </g>
    <g id="ytick_16">
     <g id="line2d_23">
      <g>
       <use xlink:href="#mc497ad0056" x="63" y="188.845105" style="stroke: #000000; stroke-width: 0.6"/>
      </g>
     </g>
    </g>
    <g id="ytick_17">
     <g id="line2d_24">
      <g>
       <use xlink:href="#mc497ad0056" x="63" y="185.806436" style="stroke: #000000; stroke-width: 0.6"/>
      </g>
     </g>
    </g>
    <g id="ytick_18">
     <g id="line2d_25">
      <g>
       <use xlink:href="#mc497ad0056" x="63" y="183.12614" style="stroke: #000000; stroke-width: 0.6"/>
      </g>
     </g>
    </g>
    <g id="ytick_19">
     <g id="line2d_26">
      <g>
       <use xlink:href="#mc497ad0056" x="63" y="164.955128" style="stroke: #000000; stroke-width: 0.6"/>
      </g>
     </g>
    </g>
    <g id="ytick_20">
     <g id="line2d_27">
      <g>
       <use xlink:href="#mc497ad0056" x="63" y="155.728277" style="stroke: #000000; stroke-width: 0.6"/>
      </g>
     </g>
    </g>
    <g id="ytick_21">
     <g id="line2d_28">
      <g>
       <use xlink:href="#mc497ad0056" x="63" y="149.181722" style="stroke: #000000; stroke-width: 0.6"/>
      </g>
     </g>
    </g>
    <g id="ytick_22">
     <g id="line2d_29">
      <g>
       <use xlink:href="#mc497ad0056" x="63" y="144.103819" style="stroke: #000000; stroke-width: 0.6"/>
      </g>
     </g>
    </g>
    <g id="ytick_23">
     <g id="line2d_30">
      <g>
       <use xlink:href="#mc497ad0056" x="63" y="139.954871" style="stroke: #000000; stroke-width: 0.6"/>
      </g>
     </g>
    </g>
    <g id="ytick_24">
     <g id="line2d_31">
      <g>
       <use xlink:href="#mc497ad0056" x="63" y="136.446985" style="stroke: #000000; stroke-width: 0.6"/>
      </g>
     </g>
    </g>
    <g id="ytick_25">
     <g id="line2d_32">
      <g>
       <use xlink:href="#mc497ad0056" x="63" y="133.408316" style="stroke: #000000; stroke-width: 0.6"/>
      </g>
     </g>
    </g>
    <g id="ytick_26">
     <g id="line2d_33">
      <g>
       <use xlink:href="#mc497ad0056" x="63" y="130.72802" style="stroke: #000000; stroke-width: 0.6"/>
      </g>
     </g>
    </g>
    <g id="ytick_27">
     <g id="line2d_34">
      <g>
       <use xlink:href="#mc497ad0056" x="63" y="112.557008" style="stroke: #000000; stroke-width: 0.6"/>
      </g>
     </g>
    </g>
    <g id="ytick_28">
     <g id="line2d_35">
      <g>
       <use xlink:href="#mc497ad0056" x="63" y="103.330157" style="stroke: #000000; stroke-width: 0.6"/>
      </g>
     </g>
    </g>
    <g id="ytick_29">
     <g id="line2d_36">
      <g>
       <use xlink:href="#mc497ad0056" x="63" y="96.783602" style="stroke: #000000; stroke-width: 0.6"/>
      </g>
     </g>
    </g>
    <g id="ytick_30">
     <g id="line2d_37">
      <g>
       <use xlink:href="#mc497ad0056" x="63" y="91.705699" style="stroke: #000000; stroke-width: 0.6"/>
      </g>
     </g>
    </g>
    <g id="ytick_31">
     <g id="line2d_38">
      <g>
       <use xlink:href="#mc497ad0056" x="63" y="87.556751" style="stroke: #000000; stroke-width: 0.6"/>
      </g>
     </g>
    </g>
    <g id="ytick_32">
     <g id="line2d_39">
      <g>
       <use xlink:href="#mc497ad0056" x="63" y="84.048865" style="stroke: #000000; stroke-width: 0.6"/>
      </g>
     </g>
    </g>
    <g id="ytick_33">
     <g id="line2d_40">
      <g>
       <use xlink:href="#mc497ad0056" x="63" y="81.010196" style="stroke: #000000; stroke-width: 0.6"/>
      </g>
     </g>
    </g>
    <g id="ytick_34">
     <g id="line2d_41">
      <g>
       <use xlink:href="#mc497ad0056" x="63" y="78.3299" style="stroke: #000000; stroke-width: 0.6"/>
      </g>
     </g>
    </g>
    <g id="ytick_35">
     <g id="line2d_42">
      <g>
       <use xlink:href="#mc497ad0056" x="63" y="60.158887" style="stroke: #000000; stroke-width: 0.6"/>
      </g>
     </g>
    </g>
    <g id="ytick_36">
     <g id="line2d_43">
      <g>
       <use xlink:href="#mc497ad0056" x="63" y="50.932037" style="stroke: #000000; stroke-width: 0.6"/>
      </g>
     </g>
    </g>
    <g id="ytick_37">
     <g id="line2d_44">
      <g>
       <use xlink:href="#mc497ad0056" x="63" y="44.385482" style="stroke: #000000; stroke-width: 0.6"/>
      </g>
     </g>
    </g>
    <g id="ytick_38">
     <g id="line2d_45">
      <g>
       <use xlink:href="#mc497ad0056" x="63" y="39.307579" style="stroke: #000000; stroke-width: 0.6"/>
      </g>
     </g>
    </g>
    <g id="ytick_39">
     <g id="line2d_46">
      <g>
       <use xlink:href="#mc497ad0056" x="63" y="35.158631" style="stroke: #000000; stroke-width: 0.6"/>
      </g>
     </g>
    </g>
    <g id="text_13">
     <!-- Intensity (Counts) -->
     <g transform="translate(32.320312 190.14625)rotate(-90)scale(0.1 -0.1)">
      <defs>
       <path id="DejaVuSans-49" d="M 628 4666 
L 1259 4666 
L 1259 0 
L 628 0 
L 628 4666 
z
" transform="scale(0.015625)"/>
       <path id="DejaVuSans-74" d="M 1172 4494 
L 1172 3500 
L 2356 3500 
L 2356 3053 
L 1172 3053 
L 1172 1153 
Q 1172 725 1289 603 
Q 1406 481 1766 481 
L 2356 481 
L 2356 0 
L 1766 0 
Q 1100 0 847 248 
Q 594 497 594 1153 
L 594 3053 
L 172 3053 
L 172 3500 
L 594 3500 
L 594 4494 
L 1172 4494 
z
" transform="scale(0.015625)"/>
       <path id="DejaVuSans-73" d="M 2834 3397 
L 2834 2853 
Q 2591 2978 2328 3040 
Q 2066 3103 1784 3103 
Q 1356 3103 1142 2972 
Q 928 2841 928 2578 
Q 928 2378 1081 2264 
Q 1234 2150 1697 2047 
L 1894 2003 
Q 2506 1872 2764 1633 
Q 3022 1394 3022 966 
Q 3022 478 2636 193 
Q 2250 -91 1575 -91 
Q 1294 -91 989 -36 
Q 684 19 347 128 
L 347 722 
Q 666 556 975 473 
Q 1284 391 1588 391 
Q 1994 391 2212 530 
Q 2431 669 2431 922 
Q 2431 1156 2273 1281 
Q 2116 1406 1581 1522 
L 1381 1569 
Q 847 1681 609 1914 
Q 372 2147 372 2553 
Q 372 3047 722 3315 
Q 1072 3584 1716 3584 
Q 2034 3584 2315 3537 
Q 2597 3491 2834 3397 
z
" transform="scale(0.015625)"/>
       <path id="DejaVuSans-69" d="M 603 3500 
L 1178 3500 
L 1178 0 
L 603 0 
L 603 3500 
z
M 603 4863 
L 1178 4863 
L 1178 4134 
L 603 4134 
L 603 4863 
z
" transform="scale(0.015625)"/>
       <path id="DejaVuSans-79" d="M 2059 -325 
Q 1816 -950 1584 -1140 
Q 1353 -1331 966 -1331 
L 506 -1331 
L 506 -850 
L 844 -850 
Q 1081 -850 1212 -737 
Q 1344 -625 1503 -206 
L 1606 56 
L 191 3500 
L 800 3500 
L 1894 763 
L 2988 3500 
L 3597 3500 
L 2059 -325 
z
" transform="scale(0.015625)"/>
       <path id="DejaVuSans-43" d="M 4122 4306 
L 4122 3641 
Q 3803 3938 3442 4084 
Q 3081 4231 2675 4231 
Q 1875 4231 1450 3742 
Q 1025 3253 1025 2328 
Q 1025 1406 1450 917 
Q 1875 428 2675 428 
Q 3081 428 3442 575 
Q 3803 722 4122 1019 
L 4122 359 
Q 3791 134 3420 21 
Q 3050 -91 2638 -91 
Q 1578 -91 968 557 
Q 359 1206 359 2328 
Q 359 3453 968 4101 
Q 1578 4750 2638 4750 
Q 3056 4750 3426 4639 
Q 3797 4528 4122 4306 
z
" transform="scale(0.015625)"/>
       <path id="DejaVuSans-6f" d="M 1959 3097 
Q 1497 3097 1228 2736 
Q 959 2375 959 1747 
Q 959 1119 1226 758 
Q 1494 397 1959 397 
Q 2419 397 2687 759 
Q 2956 1122 2956 1747 
Q 2956 2369 2687 2733 
Q 2419 3097 1959 3097 
z
M 1959 3584 
Q 2709 3584 3137 3096 
Q 3566 2609 3566 1747 
Q 3566 888 3137 398 
Q 2709 -91 1959 -91 
Q 1206 -91 779 398 
Q 353 888 353 1747 
Q 353 2609 779 3096 
Q 1206 3584 1959 3584 
z
" transform="scale(0.015625)"/>
       <path id="DejaVuSans-75" d="M 544 1381 
L 544 3500 
L 1119 3500 
L 1119 1403 
Q 1119 906 1312 657 
Q 1506 409 1894 409 
Q 2359 409 2629 706 
Q 2900 1003 2900 1516 
L 2900 3500 
L 3475 3500 
L 3475 0 
L 2900 0 
L 2900 538 
Q 2691 219 2414 64 
Q 2138 -91 1772 -91 
Q 1169 -91 856 284 
Q 544 659 544 1381 
z
M 1991 3584 
L 1991 3584 
z
" transform="scale(0.015625)"/>
      </defs>
      <use xlink:href="#DejaVuSans-49"/>
      <use xlink:href="#DejaVuSans-6e" x="29.492188"/>
      <use xlink:href="#DejaVuSans-74" x="92.871094"/>
      <use xlink:href="#DejaVuSans-65" x="132.080078"/>
      <use xlink:href="#DejaVuSans-6e" x="193.603516"/>
      <use xlink:href="#DejaVuSans-73" x="256.982422"/>
      <use xlink:href="#DejaVuSans-69" x="309.082031"/>
      <use xlink:href="#DejaVuSans-74" x="336.865234"/>
      <use xlink:href="#DejaVuSans-79" x="376.074219"/>
      <use xlink:href="#DejaVuSans-20" x="435.253906"/>
      <use xlink:href="#DejaVuSans-28" x="467.041016"/>
      <use xlink:href="#DejaVuSans-43" x="506.054688"/>
      <use xlink:href="#DejaVuSans-6f" x="575.878906"/>
      <use xlink:href="#DejaVuSans-75" x="637.060547"/>
      <use xlink:href="#DejaVuSans-6e" x="700.439453"/>
      <use xlink:href="#DejaVuSans-74" x="763.818359"/>
      <use xlink:href="#DejaVuSans-73" x="803.027344"/>
      <use xlink:href="#DejaVuSans-29" x="855.126953"/>
     </g>
    </g>
   </g>
   <g id="line2d_47">
    <path d="M 80.754545 211.602699 
L 80.989549 212.030896 
L 81.224553 211.842567 
L 81.694561 212.865491 
L 81.929565 212.725796 
L 82.164569 212.92161 
L 82.399573 213.509756 
L 82.634577 213.770714 
L 82.869581 213.081369 
L 83.104585 213.606059 
L 83.339588 212.762964 
L 83.574592 213.242258 
L 83.809596 214.321691 
L 84.0446 213.006048 
L 84.279604 213.606059 
L 84.514608 213.471349 
L 84.984616 214.351588 
L 85.21962 214.411499 
L 85.454624 215.665205 
L 85.924631 214.381523 
L 86.394639 214.005215 
L 86.629643 214.501662 
L 86.864647 215.54929 
L 87.099651 214.471568 
L 87.334655 215.060561 
L 87.569659 215.019448 
L 87.804663 213.946363 
L 88.039667 215.371302 
L 88.274671 214.672952 
L 88.509675 215.728682 
L 88.744678 214.37154 
L 88.979682 215.83487 
L 89.214686 214.988662 
L 89.44969 215.112058 
L 89.684694 214.957917 
L 90.154702 216.038004 
L 90.62471 215.423507 
L 90.859714 215.350453 
L 91.094718 216.199664 
L 91.329721 216.286355 
L 91.799729 215.112058 
L 92.034733 215.941557 
L 92.269737 215.83487 
L 92.504741 215.25687 
L 92.974749 216.813549 
L 93.209753 215.54929 
L 93.444757 215.215401 
L 93.679761 216.253807 
L 93.914764 215.675772 
L 94.149768 215.824229 
L 94.384772 215.423507 
L 94.619776 215.381733 
L 94.85478 215.029719 
L 95.089784 216.735902 
L 95.324788 214.876133 
L 95.794796 215.74988 
L 96.0298 215.392169 
L 96.734811 214.988662 
L 96.969815 214.683068 
L 97.204819 215.246496 
L 97.439823 214.66284 
L 98.144835 214.632532 
L 98.379839 215.070851 
L 98.614843 215.215401 
L 98.849847 214.461545 
L 99.08485 214.672952 
L 99.319854 213.693081 
L 99.554858 214.361562 
L 99.789862 214.501662 
L 100.25987 213.081369 
L 100.494874 214.202496 
L 100.729878 213.70277 
L 100.964882 212.320903 
L 101.199886 213.006048 
L 101.43489 212.623895 
L 101.669894 213.567489 
L 102.139901 212.403138 
L 102.374905 212.987257 
L 102.844913 211.976928 
L 103.079917 211.833638 
L 103.314921 212.63314 
L 103.549925 212.54086 
L 103.784929 211.165066 
L 104.019933 211.243221 
L 104.254937 211.602699 
L 104.48994 212.266244 
L 104.959948 210.915042 
L 105.194952 211.321646 
L 105.429956 211.251922 
L 105.66496 210.106446 
L 106.134968 210.855101 
L 106.369972 210.339333 
L 106.604976 210.439877 
L 106.83998 209.737086 
L 107.544991 209.542518 
L 107.779995 208.882179 
L 108.014999 208.897868 
L 108.250003 209.357605 
L 108.485007 208.562925 
L 108.720011 208.929277 
L 108.955015 208.378102 
L 109.190019 207.475854 
L 109.425023 208.020448 
L 109.660026 208.270978 
L 109.89503 207.564486 
L 110.130034 207.219299 
L 110.365038 207.780116 
L 110.600042 207.117481 
L 110.835046 207.321574 
L 111.305054 206.487709 
L 111.540058 206.650634 
L 111.775062 206.565484 
L 112.010066 206.200141 
L 112.245069 205.258087 
L 112.480073 204.965741 
L 112.715077 205.63568 
L 112.950081 205.594923 
L 113.185085 205.025234 
L 113.420089 205.204653 
L 113.655093 204.972343 
L 113.890097 205.0451 
L 114.360105 203.713496 
L 114.595109 203.713496 
L 114.830113 203.471109 
L 115.065116 203.813688 
L 115.30012 203.066706 
L 115.535124 203.434046 
L 115.770128 202.849115 
L 116.005132 202.71118 
L 116.240136 202.138481 
L 116.710144 202.027972 
L 116.945148 202.491024 
L 117.415156 201.387231 
L 117.650159 201.802804 
L 117.885163 201.970023 
L 118.120167 201.438058 
L 118.355171 202.091885 
L 118.590175 201.257854 
L 118.825179 201.545733 
L 119.060183 201.517348 
L 119.295187 200.874079 
L 119.765195 201.562781 
L 120.000199 200.36685 
L 120.235202 200.561858 
L 120.470206 201.15153 
L 120.70521 200.835505 
L 120.940214 201.449368 
L 121.410222 200.835505 
L 121.645226 201.185052 
L 121.88023 200.502094 
L 122.115234 201.173873 
L 122.350238 201.404161 
L 122.585242 200.775019 
L 122.820245 201.297152 
L 123.055249 201.359043 
L 123.290253 201.676762 
L 123.525257 201.699627 
L 124.230269 200.890631 
L 124.465273 201.90645 
L 124.700277 201.751157 
L 124.935281 202.02217 
L 125.405288 202.208554 
L 125.640292 201.981601 
L 126.1103 202.813052 
L 126.345304 203.255758 
L 126.580308 202.538446 
L 126.815312 203.732248 
L 127.050316 202.831076 
L 127.28532 203.036361 
L 127.520324 204.002747 
L 127.755328 203.782331 
L 127.990332 203.857662 
L 128.225335 203.763537 
L 128.460339 203.990094 
L 128.695343 204.893237 
L 128.930347 204.775091 
L 129.165351 204.424289 
L 129.400355 204.853787 
L 129.635359 205.785752 
L 129.870363 206.026561 
L 130.105367 205.964395 
L 130.340371 206.368032 
L 130.575375 205.52039 
L 130.810378 206.431312 
L 131.045382 205.662893 
L 131.280386 206.63642 
L 131.51539 206.908011 
L 131.750394 206.864913 
L 132.455406 207.750252 
L 132.69041 208.118813 
L 132.925414 207.892456 
L 133.160418 208.570659 
L 133.395421 208.671436 
L 133.630425 208.248088 
L 133.865429 209.22985 
L 134.100433 208.858667 
L 134.335437 209.777831 
L 134.570441 209.753375 
L 134.805445 209.867728 
L 135.040449 210.35606 
L 135.275453 210.222592 
L 135.510457 209.753375 
L 135.980464 211.044022 
L 136.215468 210.481901 
L 136.450472 211.90517 
L 136.685476 210.727185 
L 136.92048 211.069906 
L 137.155484 212.744372 
L 137.390488 211.365332 
L 137.625492 211.753432 
L 137.860496 211.914128 
L 138.0955 211.638076 
L 138.565507 212.912247 
L 138.800511 213.062515 
L 139.035515 212.184502 
L 139.270519 210.032093 
L 139.975531 192.406151 
L 140.210535 192.303739 
L 140.445539 196.118335 
L 141.150551 214.794643 
L 141.385554 214.331652 
L 141.620558 215.039995 
L 142.090566 215.54929 
L 142.32557 215.246496 
L 142.560574 215.277633 
L 143.030582 215.995088 
L 143.265586 215.517779 
L 143.50059 215.74988 
L 143.735594 214.825168 
L 144.440605 216.614417 
L 144.675609 216.80244 
L 144.910613 216.362481 
L 145.145617 216.286355 
L 145.850629 217.330503 
L 146.085633 216.482624 
L 146.320637 216.537445 
L 146.55564 217.743429 
L 146.790644 217.501646 
L 147.025648 216.091764 
L 147.260652 216.75806 
L 147.495656 216.858038 
L 147.73066 215.350453 
L 148.670676 217.836217 
L 148.90568 217.126816 
L 149.375687 218.436804 
L 149.610691 217.906057 
L 149.845695 218.223018 
L 150.080699 219.090485 
L 150.315703 218.282202 
L 150.550707 218.846186 
L 150.785711 218.628537 
L 151.020715 219.412046 
L 151.255719 219.612212 
L 151.490723 219.574546 
L 151.725726 221.483998 
L 152.195734 220.223495 
L 152.665742 220.825131 
L 152.900746 219.852218 
L 153.13575 221.456729 
L 153.370754 220.851654 
L 153.840762 223.583425 
L 154.075766 222.402723 
L 154.31077 223.899802 
L 154.545773 221.730904 
L 154.780777 222.275236 
L 155.015781 221.320871 
L 155.250785 221.253244 
L 155.485789 223.899802 
L 155.720793 219.712959 
L 155.955797 222.008422 
L 156.425805 222.746219 
L 156.660809 222.162512 
L 156.895813 222.388522 
L 157.36582 222.008422 
L 157.600824 222.232899 
L 157.835828 221.897008 
L 158.070832 222.204718 
L 158.305836 222.232899 
L 158.775844 223.271386 
L 159.010848 223.065712 
L 159.245852 222.317653 
L 159.480856 224.282269 
L 159.715859 223.703432 
L 159.950863 223.464048 
L 160.420871 226.129466 
L 160.655875 224.297702 
L 160.890879 225.323997 
L 161.125883 223.99101 
L 161.360887 224.297702 
L 161.595891 222.261115 
L 161.830895 227.173747 
L 162.065899 225.115002 
L 162.300902 225.502351 
L 162.535906 222.659858 
L 163.005914 227.473524 
L 163.240918 225.404894 
L 163.475922 224.530465 
L 163.94593 226.162955 
L 164.180934 224.892056 
L 164.650942 220.146181 
L 164.885945 205.909278 
L 165.355953 168.855124 
L 165.590957 161.055967 
L 165.825961 160.20545 
L 166.060965 166.935591 
L 166.295969 178.497657 
L 166.765977 219.43697 
L 167.000981 223.464048 
L 167.235985 224.530465 
L 167.470989 222.050343 
L 167.705992 223.869481 
L 167.940996 227.544637 
L 168.176 227.544637 
L 168.411004 228.323477 
L 168.646008 226.860584 
L 169.116016 228.139958 
L 169.35102 227.473524 
L 169.586024 225.45357 
L 169.821028 225.243387 
L 170.056032 226.146204 
L 170.526039 228.788856 
L 170.761043 230.025491 
L 170.996047 226.808806 
L 171.231051 228.901977 
L 171.466055 229.946201 
L 171.701059 226.179719 
L 171.936063 228.030553 
L 172.171067 227.976047 
L 172.641075 228.80767 
L 172.876078 229.321634 
L 173.111082 228.434303 
L 173.346086 229.110838 
L 173.58109 228.732505 
L 174.051098 228.80767 
L 174.286102 228.194859 
L 174.521106 229.283162 
L 174.75611 229.14902 
L 174.991114 230.345443 
L 175.226118 228.695015 
L 175.461121 230.568049 
L 175.696125 229.514976 
L 175.931129 231.228293 
L 176.401137 230.446357 
L 176.636141 230.792854 
L 176.871145 230.669958 
L 177.106149 229.168135 
L 177.341153 229.168135 
L 177.811161 230.588394 
L 178.046164 229.6513 
L 178.281168 229.514976 
L 178.516172 228.489919 
L 178.751176 229.072721 
L 178.98618 230.08514 
L 179.221184 229.340895 
L 179.456188 228.977705 
L 179.691192 229.827781 
L 179.926196 228.732505 
L 180.1612 229.283162 
L 180.631208 229.553842 
L 180.866211 230.184904 
L 181.101215 230.045356 
L 181.336219 229.553842 
L 181.571223 230.164917 
L 181.806227 230.426139 
L 182.041231 229.034667 
L 182.276235 230.06524 
L 182.511239 228.751273 
L 182.746243 229.4181 
L 182.981247 230.547722 
L 183.216251 230.731323 
L 183.451254 229.946201 
L 183.686258 231.523286 
L 183.921262 231.502087 
L 184.156266 229.867186 
L 184.39127 230.124993 
L 184.861278 229.906659 
L 185.096282 229.6513 
L 185.331286 229.906659 
L 185.56629 230.608757 
L 185.801294 230.20491 
L 186.036297 228.582916 
L 186.271301 228.751273 
L 186.506305 222.890887 
L 186.976313 198.315445 
L 187.211317 192.243267 
L 187.446321 190.046592 
L 187.681325 195.184548 
L 188.151333 216.16724 
L 188.386337 229.072721 
L 188.62134 228.788856 
L 189.091348 230.426139 
L 189.326352 229.379464 
L 189.561356 230.20491 
L 189.79636 229.187266 
L 190.031364 230.385755 
L 190.266368 229.015664 
L 190.501372 230.669958 
L 190.736376 229.985811 
L 190.97138 230.446357 
L 191.206383 230.446357 
L 191.441387 232.277943 
L 191.676391 230.547722 
L 191.911395 230.957755 
L 192.146399 229.534401 
L 192.381403 230.854552 
L 192.616407 229.729567 
L 192.851411 229.437442 
L 193.086415 230.895777 
L 193.321419 230.265032 
L 193.556423 230.895777 
L 193.791427 230.854552 
L 194.02643 231.270202 
L 194.261434 232.190419 
L 194.496438 231.650891 
L 194.731442 229.847475 
L 194.966446 230.895777 
L 195.436454 230.507122 
L 195.671458 230.669958 
L 195.906462 231.144708 
L 196.611473 229.592775 
L 196.846477 227.633842 
L 197.081481 229.244755 
L 197.316485 227.314327 
L 197.551489 230.305202 
L 197.786493 230.105058 
L 198.021497 232.586955 
L 198.256501 229.847475 
L 198.491505 231.291185 
L 198.726509 231.123859 
L 198.961513 231.396392 
L 199.196516 231.84365 
L 199.43152 230.345443 
L 199.666524 230.608757 
L 199.901528 231.354251 
L 200.136532 231.672228 
L 200.371536 230.045356 
L 200.60654 231.565741 
L 200.841544 230.669958 
L 201.076548 231.144708 
L 201.311552 230.045356 
L 201.546556 230.710849 
L 201.781559 232.10323 
L 202.016563 232.081485 
L 202.251567 231.061428 
L 202.486571 231.886709 
L 202.721575 232.10323 
L 202.956579 231.480909 
L 203.191583 231.523286 
L 203.426587 231.908268 
L 204.366602 231.228293 
L 204.601606 231.502087 
L 205.071614 230.466594 
L 205.306618 231.040655 
L 205.541622 230.426139 
L 205.776626 230.957755 
L 206.01163 230.751815 
L 206.481638 230.669958 
L 206.716642 230.005642 
L 206.951646 230.466594 
L 207.186649 231.354251 
L 207.421653 231.186462 
L 207.656657 231.396392 
L 207.891661 231.994712 
L 208.126665 230.629139 
L 208.361669 230.08514 
L 208.596673 231.082219 
L 209.066681 229.514976 
L 209.301685 230.957755 
L 209.536689 229.14902 
L 209.771692 230.792854 
L 210.006696 230.164917 
L 210.2417 230.568049 
L 210.711708 230.466594 
L 210.946712 229.926421 
L 211.181716 231.480909 
L 211.41672 228.93981 
L 211.651724 227.867426 
L 211.886728 229.495568 
L 212.121732 228.901977 
L 212.356735 227.813308 
L 212.826743 228.066963 
L 213.296751 227.296707 
L 213.531755 228.360359 
L 214.001763 224.143839 
L 214.236767 225.846776 
L 214.471771 225.714951 
L 214.706775 225.929556 
L 214.941778 223.065712 
L 215.176782 224.35954 
L 215.411786 220.71935 
L 215.64679 221.402288 
L 215.881794 221.33442 
L 216.116798 219.776153 
L 216.351802 219.078208 
L 216.586806 219.188944 
L 217.056814 216.669557 
L 217.526821 215.444423 
L 217.761825 213.14748 
L 217.996829 212.430616 
L 218.231833 210.667736 
L 218.701841 206.501831 
L 219.171849 201.998979 
L 219.641857 190.887894 
L 219.876861 178.759106 
L 220.581872 60.719159 
L 220.816876 49.926372 
L 221.05188 44.64 
L 221.286884 49.126748 
L 221.521888 59.898189 
L 221.756892 80.237878 
L 222.2269 194.962285 
L 222.461904 205.005386 
L 222.931911 211.165066 
L 223.166915 214.431504 
L 223.401919 214.865931 
L 223.636923 216.242968 
L 223.871927 218.436804 
L 224.106931 218.175781 
L 224.341935 219.275446 
L 224.576939 222.120384 
L 224.811943 223.065712 
L 225.046947 223.051092 
L 225.281951 224.067296 
L 225.516954 224.282269 
L 225.751958 225.830256 
L 225.986962 225.846776 
L 226.221966 228.378823 
L 226.45697 226.929804 
L 226.691974 227.349608 
L 226.926978 227.138738 
L 227.161982 228.378823 
L 227.396986 228.901977 
L 227.63199 229.091771 
L 227.866994 230.527413 
L 228.101997 230.854552 
L 228.337001 230.345443 
L 228.807009 231.438611 
L 229.042013 231.523286 
L 229.277017 231.480909 
L 229.512021 231.822152 
L 229.747025 231.714963 
L 229.982029 230.792854 
L 230.452037 232.743049 
L 230.68704 233.03581 
L 230.922044 232.124996 
L 231.157048 233.726143 
L 231.392052 233.195025 
L 232.097064 232.698342 
L 232.332068 232.124996 
L 232.567072 232.676021 
L 232.802076 234.510508 
L 233.03708 234.583172 
L 233.272084 232.720684 
L 233.507087 232.321831 
L 233.742091 232.720684 
L 233.977095 234.65607 
L 234.212099 233.03581 
L 234.447103 232.877702 
L 234.682107 233.355361 
L 235.152115 234.680421 
L 235.622123 234.510508 
L 235.857127 234.008248 
L 236.09213 235.398186 
L 236.327134 234.41398 
L 236.562138 235.322876 
L 236.797142 234.900763 
L 237.032146 235.52426 
L 237.26715 233.126653 
L 237.502154 233.843262 
L 237.737158 235.574886 
L 237.972162 235.098429 
L 238.207166 235.727442 
L 238.44217 233.103909 
L 238.677173 235.148116 
L 238.912177 234.438074 
L 239.147181 235.958211 
L 239.617189 234.583172 
L 239.852193 236.744794 
L 240.087197 234.607446 
L 240.322201 234.950019 
L 240.557205 235.829717 
L 240.792209 233.470583 
L 241.027213 235.373055 
L 241.262216 236.217396 
L 241.732224 235.829717 
L 241.967228 235.19791 
L 242.202232 235.498989 
L 242.437236 234.631745 
L 242.67224 234.558925 
L 243.142248 237.148523 
L 243.377252 235.172999 
L 243.612256 235.297828 
L 243.847259 235.123259 
L 244.082263 235.222849 
L 244.317267 235.932454 
L 244.552271 234.827078 
L 244.787275 236.269589 
L 245.022279 236.269589 
L 245.492287 235.625624 
L 245.727291 237.58721 
L 245.962295 233.960987 
L 246.197299 235.855358 
L 246.432303 234.462193 
L 246.667306 235.727442 
L 246.90231 235.073627 
L 247.137314 235.600241 
L 247.372318 235.347952 
L 247.607322 234.80257 
L 247.842326 235.52426 
L 248.07733 235.600241 
L 248.312334 236.453214 
L 248.547338 235.932454 
L 248.782342 234.729202 
L 249.017346 236.035657 
L 249.252349 235.52426 
L 249.487353 237.148523 
L 249.957361 235.398186 
L 250.192365 236.348104 
L 250.427369 236.691501 
L 250.662373 234.900763 
L 250.897377 236.165322 
L 251.132381 236.295731 
L 251.367385 238.204556 
L 251.837392 235.073627 
L 252.072396 238.693337 
L 252.3074 236.113368 
L 252.542404 236.585288 
L 253.012412 236.321902 
L 253.247416 235.600241 
L 253.48242 236.217396 
L 253.717424 237.559543 
L 253.952428 236.035657 
L 254.187432 236.113368 
L 254.422435 236.771488 
L 254.657439 236.771488 
L 254.892443 235.804105 
L 255.127447 237.257404 
L 255.362451 236.087435 
L 256.302467 205.601711 
L 256.537471 207.358213 
L 256.772475 212.679421 
L 257.242482 233.656159 
L 257.477486 236.400598 
L 257.71249 236.400598 
L 257.947494 237.230135 
L 258.182498 235.172999 
L 258.417502 237.559543 
L 258.652506 237.44921 
L 258.88751 236.087435 
L 259.122514 237.670414 
L 259.357518 237.148523 
L 259.592522 237.312041 
L 259.827525 237.148523 
L 260.062529 238.462014 
L 260.297533 238.751537 
L 260.532537 236.400598 
L 260.767541 235.958211 
L 261.237549 237.121383 
L 261.472553 237.257404 
L 261.707557 237.865747 
L 261.942561 236.374336 
L 262.177565 236.986171 
L 262.412568 238.147736 
L 262.647572 237.698216 
L 262.882576 235.983997 
L 263.11758 236.321902 
L 263.352584 238.006305 
L 263.822592 238.233019 
L 264.057596 238.233019 
L 264.2926 238.927036 
L 264.762608 235.906726 
L 264.997611 235.983997 
L 265.232615 235.600241 
L 265.467619 235.676476 
L 265.937627 237.175694 
L 266.172631 236.905427 
L 266.407635 239.044792 
L 266.877643 238.290052 
L 267.112647 238.927036 
L 267.347651 237.698216 
L 267.582654 238.204556 
L 267.817658 237.504309 
L 268.052662 237.394243 
L 268.287666 238.577382 
L 268.52267 237.42171 
L 268.757674 238.233019 
L 268.992678 236.959224 
L 269.227682 237.531909 
L 269.462686 238.462014 
L 269.932694 237.504309 
L 270.167697 237.726053 
L 270.402701 239.044792 
L 270.637705 239.70357 
L 270.872709 239.552164 
L 271.342717 238.006305 
L 271.577721 238.233019 
L 271.812725 239.103899 
L 272.047729 238.693337 
L 272.517737 238.956418 
L 272.987744 238.606315 
L 273.222748 237.89379 
L 273.457752 238.577382 
L 273.692756 238.062772 
L 273.92776 239.947935 
L 274.162764 238.868386 
L 274.397768 239.825424 
L 274.632772 238.091058 
L 274.867776 240.570578 
L 275.10278 238.985838 
L 275.337784 238.985838 
L 275.572787 237.726053 
L 275.807791 237.949978 
L 276.042795 237.921866 
L 276.277799 239.16316 
L 276.512803 238.347229 
L 276.747807 238.11938 
L 276.982811 238.606315 
L 277.217815 238.11938 
L 277.452819 239.015296 
L 277.687823 238.233019 
L 277.922827 238.062772 
L 278.15783 238.868386 
L 278.392834 237.642646 
L 278.627838 238.490801 
L 278.862842 236.93231 
L 279.097846 237.58721 
L 279.33285 232.542553 
L 279.802858 213.868129 
L 280.037862 209.079067 
L 280.272866 211.009556 
L 280.50787 214.947678 
L 280.742873 222.963568 
L 280.977877 235.398186 
L 281.212881 235.958211 
L 281.447885 237.504309 
L 281.917893 238.062772 
L 282.152897 236.505951 
L 282.387901 238.091058 
L 282.622905 236.638332 
L 282.857909 237.257404 
L 283.092913 238.261518 
L 283.327916 238.433264 
L 283.56292 237.559543 
L 283.797924 237.202898 
L 284.032928 237.809767 
L 284.267932 237.89379 
L 284.502936 236.505951 
L 284.972944 237.781828 
L 285.207948 235.983997 
L 285.677956 239.13351 
L 285.91296 236.558811 
L 286.382967 239.311991 
L 286.617971 238.809887 
L 286.852975 239.431761 
L 287.322983 236.878576 
L 287.792991 237.978124 
L 288.027995 236.878576 
L 288.262999 238.635286 
L 288.498003 237.949978 
L 288.733006 238.006305 
L 288.96801 237.175694 
L 289.203014 238.375871 
L 289.438018 237.949978 
L 289.673022 238.11938 
L 289.908026 236.479567 
L 290.14303 235.906726 
L 290.378034 237.978124 
L 290.848042 236.374336 
L 291.083046 237.781828 
L 291.318049 236.243478 
L 291.553053 236.585288 
L 291.788057 236.664901 
L 292.023061 236.374336 
L 292.258065 237.614911 
L 292.493069 237.394243 
L 292.728073 237.978124 
L 292.963077 237.476743 
L 293.198081 235.778522 
L 293.433085 236.479567 
L 293.668089 236.585288 
L 293.903092 236.009812 
L 294.138096 236.851757 
L 294.3731 235.701945 
L 294.843108 237.013149 
L 295.078112 233.937393 
L 295.313116 235.932454 
L 295.54812 236.664901 
L 295.783124 235.600241 
L 296.018128 235.549559 
L 296.253132 236.426891 
L 296.723139 232.016374 
L 296.958143 231.165575 
L 297.193147 229.225576 
L 297.428151 230.669958 
L 297.898159 235.373055 
L 298.368167 234.778088 
L 298.603171 233.702791 
L 298.838175 234.80257 
L 299.073179 236.986171 
L 299.308182 234.80257 
L 299.543186 235.423345 
L 299.77819 235.024103 
L 300.248198 236.744794 
L 300.483202 234.827078 
L 300.718206 236.087435 
L 300.95321 234.126832 
L 301.188214 235.098429 
L 301.423218 234.631745 
L 301.893225 235.983997 
L 302.128229 235.983997 
L 302.363233 235.727442 
L 302.598237 234.778088 
L 302.833241 235.855358 
L 303.068245 234.851613 
L 303.303249 234.607446 
L 303.538253 235.123259 
L 303.773257 236.611794 
L 304.008261 234.341853 
L 304.243265 236.165322 
L 304.478268 236.505951 
L 304.713272 235.829717 
L 304.948276 236.087435 
L 305.18328 237.559543 
L 305.418284 236.479567 
L 305.653288 236.035657 
L 305.888292 234.950019 
L 306.123296 235.983997 
L 306.3583 234.583172 
L 306.593304 235.222849 
L 306.828308 236.986171 
L 307.063311 235.958211 
L 307.298315 235.983997 
L 307.533319 236.585288 
L 307.768323 236.400598 
L 308.003327 235.651036 
L 308.238331 236.718132 
L 308.473335 236.744794 
L 308.943343 235.272807 
L 309.178347 233.309435 
L 309.413351 230.08514 
L 309.648354 224.971429 
L 309.883358 228.249892 
L 310.118362 229.244755 
L 310.58837 235.148116 
L 310.823374 236.191344 
L 311.058378 235.322876 
L 311.293382 236.321902 
L 311.528386 236.348104 
L 311.76339 236.771488 
L 311.998394 235.701945 
L 312.233398 237.394243 
L 312.468401 235.752968 
L 312.703405 235.098429 
L 313.173413 236.824969 
L 313.408417 235.855358 
L 313.878425 236.243478 
L 314.113429 237.121383 
L 314.348433 236.93231 
L 314.583437 236.009812 
L 314.818441 236.217396 
L 315.053444 235.473747 
L 315.288448 236.93231 
L 315.523452 237.230135 
L 315.758456 236.93231 
L 315.99346 235.423345 
L 316.228464 236.113368 
L 316.463468 238.176128 
L 316.698472 237.067202 
L 316.933476 237.312041 
L 317.16848 235.983997 
L 317.403484 235.855358 
L 317.638487 238.664293 
L 317.873491 238.956418 
L 318.108495 238.462014 
L 318.343499 237.559543 
L 318.578503 238.664293 
L 318.813507 238.606315 
L 319.048511 236.93231 
L 319.283515 236.165322 
L 319.518519 236.374336 
L 319.753523 237.257404 
L 319.988527 237.121383 
L 320.22353 237.284706 
L 320.693538 238.927036 
L 320.928542 239.192848 
L 321.163546 237.284706 
L 321.39855 238.956418 
L 321.868558 239.582365 
L 322.103562 239.311991 
L 322.338566 239.582365 
L 322.57357 238.868386 
L 322.808573 239.673208 
L 323.043577 238.985838 
L 323.278581 239.16316 
L 323.513585 238.956418 
L 323.748589 240.009438 
L 323.983593 239.16316 
L 324.218597 239.673208 
L 324.453601 239.733973 
L 324.688605 239.311991 
L 325.158613 242.037127 
L 325.393617 239.764416 
L 325.62862 240.507542 
L 326.098628 238.693337 
L 326.333632 240.413313 
L 326.568636 240.071108 
L 326.80364 239.282147 
L 327.038644 239.978665 
L 327.273648 239.431761 
L 327.508652 240.760743 
L 327.97866 239.192848 
L 328.213663 239.886597 
L 328.448667 240.95251 
L 328.683671 241.373633 
L 328.918675 241.537702 
L 329.153679 240.602162 
L 329.388683 241.537702 
L 329.623687 241.439119 
L 329.858691 240.009438 
L 330.328699 242.444712 
L 330.563703 242.104553 
L 330.798706 243.713188 
L 331.03371 240.132945 
L 331.268714 240.226018 
L 331.503718 241.736159 
L 331.738722 239.582365 
L 331.973726 241.769404 
L 332.20873 240.040252 
L 332.443734 243.460939 
L 332.678738 242.070815 
L 333.148746 241.373633 
L 333.383749 241.9699 
L 333.618753 241.504793 
L 333.853757 241.936361 
L 334.088761 241.081258 
L 334.323765 243.713188 
L 334.558769 241.406353 
L 334.793773 240.760743 
L 335.028777 244.637613 
L 335.263781 241.603662 
L 335.498785 242.824855 
L 335.733789 242.85973 
L 336.203796 244.4497 
L 336.4388 242.479009 
L 336.673804 243.318043 
L 336.908808 241.702962 
L 337.143812 241.603662 
L 337.378816 240.257127 
L 337.61382 242.999769 
L 337.848824 242.790033 
L 338.083828 242.104553 
L 338.788839 232.676021 
L 339.023843 231.10303 
L 339.258847 233.263602 
L 339.963859 242.410466 
L 340.198863 243.676981 
L 340.433867 242.138341 
L 340.668871 244.979818 
L 340.903875 241.769404 
L 341.138879 243.568704 
L 341.373882 243.176038 
L 341.608886 243.070113 
L 341.84389 242.755264 
L 342.078894 244.713215 
L 342.313898 245.056568 
L 342.783906 242.172179 
L 343.01891 244.4497 
L 343.253914 243.176038 
L 343.723922 245.798897 
L 343.958925 243.640831 
L 344.193929 243.676981 
L 344.428933 243.968265 
L 344.663937 242.342129 
L 344.898941 242.444712 
L 345.133945 244.115317 
L 345.368949 244.078464 
L 345.603953 242.964678 
L 345.838957 243.460939 
L 346.073961 242.755264 
L 346.308965 242.582212 
L 346.543968 240.792592 
L 346.778972 234.293895 
L 347.013976 232.299876 
L 347.24898 231.629573 
L 347.483984 234.008248 
L 348.188996 245.133577 
L 348.424 243.318043 
L 348.659004 243.176038 
L 348.894008 245.366181 
L 349.129011 244.263325 
L 349.599019 239.673208 
L 349.834023 243.176038 
L 350.304031 244.487158 
L 350.539035 243.034914 
L 350.774039 244.524679 
L 351.009043 243.211456 
L 351.244047 243.389379 
L 351.479051 245.483381 
L 351.714055 243.640831 
L 352.184062 243.389379 
L 352.419066 243.895093 
L 352.65407 241.11356 
L 352.889074 243.140675 
L 353.359082 240.226018 
L 353.594086 240.760743 
L 353.82909 241.9699 
L 354.064094 244.078464 
L 354.299098 242.616717 
L 354.534101 243.858596 
L 354.769105 243.676981 
L 355.004109 242.240007 
L 355.239113 243.785776 
L 355.474117 243.568704 
L 355.709121 244.041672 
L 355.944125 243.034914 
L 356.179129 244.941541 
L 356.414133 243.24693 
L 356.649137 243.749453 
L 356.884141 243.105366 
L 357.119144 244.041672 
L 357.589152 244.789069 
L 357.824156 244.374966 
L 358.05916 242.755264 
L 358.529168 243.968265 
L 358.764172 242.547759 
L 358.999176 243.389379 
L 359.23418 243.460939 
L 359.469184 244.562261 
L 359.704187 244.941541 
L 359.939191 243.425131 
L 360.174195 246.24 
L 360.409199 243.318043 
L 360.644203 242.616717 
L 360.879207 245.056568 
L 361.349215 242.894659 
L 361.584219 242.479009 
L 361.819223 243.070113 
L 362.054227 243.140675 
L 362.28923 242.479009 
L 362.524234 243.211456 
L 362.759238 245.018161 
L 362.994242 243.24693 
L 363.229246 245.483381 
L 363.46425 243.034914 
L 363.699254 243.858596 
L 363.934258 244.226233 
L 364.169262 242.616717 
L 364.404266 244.941541 
L 364.63927 242.342129 
L 364.874274 243.211456 
L 365.109277 242.755264 
L 365.344281 243.713188 
L 365.579285 243.140675 
L 365.814289 243.389379 
L 366.049293 242.172179 
L 366.284297 244.152229 
L 366.754305 243.24693 
L 366.989309 244.041672 
L 367.224313 242.582212 
L 367.459317 243.353683 
L 367.69432 243.676981 
L 367.929324 242.755264 
L 368.164328 243.389379 
L 368.634336 242.894659 
L 368.86934 243.282458 
L 369.104344 245.405181 
L 369.339348 244.524679 
L 369.574352 244.487158 
L 369.809356 243.24693 
L 370.04436 244.751111 
L 370.279363 245.17218 
L 370.514367 244.827092 
L 370.749371 243.676981 
L 370.984375 243.785776 
L 371.219379 241.9699 
L 371.454383 242.308037 
L 371.689387 243.822157 
L 371.924391 243.389379 
L 372.159395 243.425131 
L 372.394399 243.640831 
L 372.629403 244.487158 
L 372.864406 243.822157 
L 373.09941 241.669814 
L 373.334414 243.140675 
L 373.569418 242.003489 
L 373.804422 243.105366 
L 374.039426 243.034914 
L 374.27443 242.755264 
L 374.509434 241.504793 
L 374.744438 241.636714 
L 374.979442 243.968265 
L 375.214446 243.211456 
L 375.449449 243.568704 
L 375.684453 243.24693 
L 375.919457 242.651275 
L 376.154461 244.562261 
L 376.389465 242.964678 
L 376.624469 243.070113 
L 376.859473 242.003489 
L 377.094477 243.282458 
L 377.329481 242.685885 
L 377.564485 242.790033 
L 377.799489 241.210739 
L 378.269496 242.410466 
L 378.5045 242.685885 
L 378.739504 243.640831 
L 379.209512 241.702962 
L 379.444516 242.376272 
L 379.67952 242.685885 
L 379.914524 242.104553 
L 380.149528 243.24693 
L 380.384532 243.389379 
L 380.619536 240.257127 
L 380.854539 243.496804 
L 381.089543 242.410466 
L 381.559551 243.318043 
L 381.794555 242.513358 
L 382.029559 243.858596 
L 382.264563 242.037127 
L 382.499567 241.340961 
L 382.734571 243.532726 
L 382.969575 240.444679 
L 383.204579 240.728938 
L 383.439582 243.176038 
L 383.674586 243.895093 
L 383.90959 241.9699 
L 384.379598 243.425131 
L 384.614602 241.049003 
L 384.849606 240.413313 
L 385.08461 242.342129 
L 385.319614 242.206068 
L 385.554618 242.308037 
L 386.024625 241.1783 
L 386.259629 243.640831 
L 386.494633 240.476089 
L 386.729637 240.728938 
L 386.964641 242.824855 
L 387.199645 240.63379 
L 387.669653 243.282458 
L 387.904657 241.769404 
L 388.139661 242.104553 
L 388.374665 241.439119 
L 388.609668 241.83604 
L 388.844672 241.9699 
L 389.079676 240.102006 
L 389.31468 241.243225 
L 389.549684 240.602162 
L 389.784688 240.665462 
L 390.254696 241.1783 
L 390.4897 241.902872 
L 390.724704 242.999769 
L 390.959708 241.243225 
L 391.194712 240.602162 
L 391.429715 241.406353 
L 391.664719 240.920436 
L 391.899723 241.869431 
L 392.134727 241.406353 
L 392.369731 240.63379 
L 392.839739 240.728938 
L 393.074743 238.751537 
L 393.309747 239.13351 
L 393.544751 235.297828 
L 394.014758 204.392079 
L 394.249762 195.609424 
L 394.484766 194.000347 
L 394.71977 197.355165 
L 394.954774 206.00582 
L 395.424782 237.067202 
L 395.659786 239.612606 
L 395.89479 239.522004 
L 396.129794 239.7949 
L 396.364798 241.669814 
L 396.599801 239.103899 
L 396.834805 241.081258 
L 397.069809 240.539038 
L 397.304813 239.044792 
L 397.539817 240.792592 
L 397.774821 239.252342 
L 398.009825 241.869431 
L 398.714837 239.371797 
L 398.949841 241.340961 
L 399.184844 239.282147 
L 399.419848 239.311991 
L 399.654852 240.194952 
L 399.889856 237.726053 
L 400.12486 239.252342 
L 400.359864 239.582365 
L 400.594868 240.163927 
L 400.829872 240.163927 
L 401.064876 239.16316 
L 401.29988 240.824486 
L 401.534884 240.288279 
L 401.769887 241.936361 
L 402.004891 241.406353 
L 402.239895 240.040252 
L 402.474899 240.728938 
L 402.709903 239.642887 
L 402.944907 239.7949 
L 403.179911 240.602162 
L 403.414915 239.371797 
L 403.649919 239.7949 
L 403.884923 238.347229 
L 404.589934 240.071108 
L 404.824938 239.642887 
L 405.294946 239.886597 
L 405.52995 240.792592 
L 405.764954 238.809887 
L 405.999958 238.034521 
L 406.469966 239.371797 
L 406.70497 238.462014 
L 406.939974 238.927036 
L 407.174977 237.865747 
L 407.409981 239.341874 
L 407.644985 239.7949 
L 408.114993 239.16316 
L 408.585001 239.886597 
L 408.820005 237.726053 
L 409.055009 239.015296 
L 409.290013 237.067202 
L 409.525017 240.257127 
L 409.76002 240.132945 
L 409.995024 237.476743 
L 410.230028 237.067202 
L 410.700036 241.340961 
L 410.93504 239.16316 
L 411.170044 238.635286 
L 411.405048 239.461802 
L 411.640052 238.956418 
L 411.875056 238.809887 
L 412.11006 237.148523 
L 412.345063 238.635286 
L 412.580067 238.204556 
L 412.815071 237.476743 
L 413.050075 239.222576 
L 413.285079 237.865747 
L 413.520083 237.670414 
L 414.225095 239.552164 
L 414.460099 238.176128 
L 414.695103 239.491883 
L 415.16511 237.394243 
L 415.400114 238.375871 
L 415.635118 238.147736 
L 415.870122 239.431761 
L 416.105126 236.718132 
L 416.34013 238.233019 
L 416.575134 237.339409 
L 416.810138 237.921866 
L 417.045142 237.670414 
L 417.280146 238.204556 
L 417.51515 238.233019 
L 417.750153 238.462014 
L 417.985157 237.642646 
L 418.220161 237.339409 
L 418.455165 236.426891 
L 418.690169 238.261518 
L 418.925173 236.824969 
L 419.395181 238.261518 
L 419.630185 237.284706 
L 419.865189 235.804105 
L 420.100193 237.175694 
L 420.335196 236.035657 
L 420.5702 237.284706 
L 420.805204 237.312041 
L 421.040208 237.89379 
L 421.275212 236.718132 
L 421.510216 237.921866 
L 421.74522 236.426891 
L 421.980224 235.727442 
L 422.215228 236.374336 
L 422.450232 237.670414 
L 422.685236 236.400598 
L 422.920239 237.58721 
L 423.155243 236.321902 
L 423.390247 237.394243 
L 423.625251 235.906726 
L 423.860255 236.191344 
L 424.095259 237.670414 
L 424.330263 235.958211 
L 424.565267 235.600241 
L 425.035275 237.202898 
L 425.270279 235.906726 
L 425.505282 236.217396 
L 425.740286 235.222849 
L 425.97529 237.230135 
L 426.210294 236.479567 
L 426.445298 234.36587 
L 426.680302 235.932454 
L 426.915306 236.585288 
L 427.15031 235.804105 
L 427.385314 235.778522 
L 427.620318 236.453214 
L 427.855322 236.191344 
L 428.090325 234.510508 
L 428.325329 235.048852 
L 428.560333 233.516835 
L 428.795337 234.150623 
L 429.030341 235.958211 
L 429.265345 234.851613 
L 429.500349 234.900763 
L 429.735353 235.473747 
L 429.970357 237.013149 
L 430.205361 234.999382 
L 430.440365 234.827078 
L 430.675369 235.549559 
L 430.910372 234.462193 
L 431.145376 235.498989 
L 431.38038 234.631745 
L 431.615384 234.41398 
L 431.850388 234.462193 
L 432.085392 234.174439 
L 432.320396 232.945328 
L 432.5554 233.103909 
L 432.790404 232.810276 
L 433.260412 233.679463 
L 433.495415 235.423345 
L 433.730419 234.055607 
L 433.965423 234.41398 
L 434.200427 233.843262 
L 434.435431 234.174439 
L 434.670435 234.851613 
L 435.375447 234.269953 
L 435.610451 234.293895 
L 435.845455 234.126832 
L 435.845455 234.126832 
" clip-path="url(#p24d885dd1d)" style="fill: none; stroke: #1f77b4; stroke-width: 1.5; stroke-linecap: square"/>
   </g>
   <g id="patch_3">
    <path d="M 63 256.32 
L 63 34.56 
" style="fill: none; stroke: #000000; stroke-width: 0.8; stroke-linejoin: miter; stroke-linecap: square"/>
   </g>
   <g id="patch_4">
    <path d="M 453.6 256.32 
L 453.6 34.56 
" style="fill: none; stroke: #000000; stroke-width: 0.8; stroke-linejoin: miter; stroke-linecap: square"/>
   </g>
   <g id="patch_5">
    <path d="M 63 256.32 
L 453.6 256.32 
" style="fill: none; stroke: #000000; stroke-width: 0.8; stroke-linejoin: miter; stroke-linecap: square"/>
   </g>
   <g id="patch_6">
    <path d="M 63 34.56 
L 453.6 34.56 
" style="fill: none; stroke: #000000; stroke-width: 0.8; stroke-linejoin: miter; stroke-linecap: square"/>
   </g>
   <g id="text_14">
    <!-- 3w degree -->
    <g transform="translate(226.643438 28.56)scale(0.12 -0.12)">
     <defs>
      <path id="DejaVuSans-77" d="M 269 3500 
L 844 3500 
L 1563 769 
L 2278 3500 
L 2956 3500 
L 3675 769 
L 4391 3500 
L 4966 3500 
L 4050 0 
L 3372 0 
L 2619 2869 
L 1863 0 
L 1184 0 
L 269 3500 
z
" transform="scale(0.015625)"/>
      <path id="DejaVuSans-64" d="M 2906 2969 
L 2906 4863 
L 3481 4863 
L 3481 0 
L 2906 0 
L 2906 525 
Q 2725 213 2448 61 
Q 2172 -91 1784 -91 
Q 1150 -91 751 415 
Q 353 922 353 1747 
Q 353 2572 751 3078 
Q 1150 3584 1784 3584 
Q 2172 3584 2448 3432 
Q 2725 3281 2906 2969 
z
M 947 1747 
Q 947 1113 1208 752 
Q 1469 391 1925 391 
Q 2381 391 2643 752 
Q 2906 1113 2906 1747 
Q 2906 2381 2643 2742 
Q 2381 3103 1925 3103 
Q 1469 3103 1208 2742 
Q 947 2381 947 1747 
z
" transform="scale(0.015625)"/>
      <path id="DejaVuSans-72" d="M 2631 2963 
Q 2534 3019 2420 3045 
Q 2306 3072 2169 3072 
Q 1681 3072 1420 2755 
Q 1159 2438 1159 1844 
L 1159 0 
L 581 0 
L 581 3500 
L 1159 3500 
L 1159 2956 
Q 1341 3275 1631 3429 
Q 1922 3584 2338 3584 
Q 2397 3584 2469 3576 
Q 2541 3569 2628 3553 
L 2631 2963 
z
" transform="scale(0.015625)"/>
     </defs>
     <use xlink:href="#DejaVuSans-33"/>
     <use xlink:href="#DejaVuSans-77" x="63.623047"/>
     <use xlink:href="#DejaVuSans-20" x="145.410156"/>
     <use xlink:href="#DejaVuSans-64" x="177.197266"/>
     <use xlink:href="#DejaVuSans-65" x="240.673828"/>
     <use xlink:href="#DejaVuSans-67" x="302.197266"/>
     <use xlink:href="#DejaVuSans-72" x="365.673828"/>
     <use xlink:href="#DejaVuSans-65" x="404.537109"/>
     <use xlink:href="#DejaVuSans-65" x="466.060547"/>
    </g>
   </g>
  </g>
 </g>
 <defs>
  <clipPath id="p24d885dd1d">
   <rect x="63" y="34.56" width="390.6" height="221.76"/>
  </clipPath>
 </defs>
</svg>
